<?xml version="1.0" encoding="UTF-8" standalone="no"?>
<!DOCTYPE svg PUBLIC "-//W3C//DTD SVG 1.1//EN"
 "http://www.w3.org/Graphics/SVG/1.1/DTD/svg11.dtd">
<!-- Generated by graphviz version 14.1.4 (20260321.0153)
 -->
<!-- Title: G Pages: 1 -->
<svg width="1352pt" height="2202pt"
 viewBox="0.00 0.00 1352.00 2202.00" xmlns="http://www.w3.org/2000/svg" xmlns:xlink="http://www.w3.org/1999/xlink">
<g id="graph0" class="graph" transform="scale(1 1) rotate(0) translate(21.6 2180.81)">
<title>G</title>
<polygon fill="#111111" stroke="none" points="-21.6,21.6 -21.6,-2180.81 1330.85,-2180.81 1330.85,21.6 -21.6,21.6"/>
<!-- app/(tabs)/_layout.tsx -->
<g id="node1" class="node">
<title>app/(tabs)/_layout.tsx</title>
<path fill="none" stroke="#c6c5fe" d="M741.33,-2040.21C741.33,-2040.21 612.17,-2040.21 612.17,-2040.21 608.21,-2040.21 604.25,-2036.25 604.25,-2032.3 604.25,-2032.3 604.25,-2024.38 604.25,-2024.38 604.25,-2020.42 608.21,-2016.46 612.17,-2016.46 612.17,-2016.46 741.33,-2016.46 741.33,-2016.46 745.29,-2016.46 749.25,-2020.42 749.25,-2024.38 749.25,-2024.38 749.25,-2032.3 749.25,-2032.3 749.25,-2036.25 745.29,-2040.21 741.33,-2040.21"/>
<text xml:space="preserve" text-anchor="middle" x="676.75" y="-2022.91" font-family="Arial" font-size="14.00" fill="#c6c5fe">app/(tabs)/_layout.tsx</text>
</g>
<!-- components/AppBackground.tsx -->
<g id="node2" class="node">
<title>components/AppBackground.tsx</title>
<path fill="none" stroke="#cfffac" d="M1044.58,-2041.21C1044.58,-2041.21 849.42,-2041.21 849.42,-2041.21 845.46,-2041.21 841.5,-2037.25 841.5,-2033.3 841.5,-2033.3 841.5,-2025.38 841.5,-2025.38 841.5,-2021.42 845.46,-2017.46 849.42,-2017.46 849.42,-2017.46 1044.58,-2017.46 1044.58,-2017.46 1048.54,-2017.46 1052.5,-2021.42 1052.5,-2025.38 1052.5,-2025.38 1052.5,-2033.3 1052.5,-2033.3 1052.5,-2037.25 1048.54,-2041.21 1044.58,-2041.21"/>
<text xml:space="preserve" text-anchor="middle" x="947" y="-2023.91" font-family="Arial" font-size="14.00" fill="#cfffac">components/AppBackground.tsx</text>
</g>
<!-- app/(tabs)/_layout.tsx&#45;&gt;components/AppBackground.tsx -->
<g id="edge1" class="edge">
<title>app/(tabs)/_layout.tsx&#45;&gt;components/AppBackground.tsx</title>
<path fill="none" stroke="#757575" d="M749.64,-2028.61C774.32,-2028.7 802.63,-2028.8 829.92,-2028.9"/>
<polygon fill="#757575" stroke="#757575" points="829.6,-2032.4 839.61,-2028.94 829.63,-2025.4 829.6,-2032.4"/>
</g>
<!-- components/FloatingTabBar.tsx -->
<g id="node3" class="node">
<title>components/FloatingTabBar.tsx</title>
<path fill="none" stroke="#c6c5fe" d="M1041.58,-1828.21C1041.58,-1828.21 852.42,-1828.21 852.42,-1828.21 848.46,-1828.21 844.5,-1824.25 844.5,-1820.3 844.5,-1820.3 844.5,-1812.38 844.5,-1812.38 844.5,-1808.42 848.46,-1804.46 852.42,-1804.46 852.42,-1804.46 1041.58,-1804.46 1041.58,-1804.46 1045.54,-1804.46 1049.5,-1808.42 1049.5,-1812.38 1049.5,-1812.38 1049.5,-1820.3 1049.5,-1820.3 1049.5,-1824.25 1045.54,-1828.21 1041.58,-1828.21"/>
<text xml:space="preserve" text-anchor="middle" x="947" y="-1810.91" font-family="Arial" font-size="14.00" fill="#c6c5fe">components/FloatingTabBar.tsx</text>
</g>
<!-- app/(tabs)/_layout.tsx&#45;&gt;components/FloatingTabBar.tsx -->
<g id="edge2" class="edge">
<title>app/(tabs)/_layout.tsx&#45;&gt;components/FloatingTabBar.tsx</title>
<path fill="none" stroke="#757575" d="M693.33,-2016.02C738.06,-1980.68 867.11,-1878.69 921.43,-1835.75"/>
<polygon fill="#757575" stroke="#757575" points="923.51,-1838.57 929.19,-1829.62 919.17,-1833.08 923.51,-1838.57"/>
</g>
<!-- lib/fabEmitter.ts -->
<g id="node11" class="node">
<title>lib/fabEmitter.ts</title>
<path fill="none" stroke="#cfffac" d="M1245.46,-1828.21C1245.46,-1828.21 1152.29,-1828.21 1152.29,-1828.21 1148.33,-1828.21 1144.38,-1824.25 1144.38,-1820.3 1144.38,-1820.3 1144.38,-1812.38 1144.38,-1812.38 1144.38,-1808.42 1148.33,-1804.46 1152.29,-1804.46 1152.29,-1804.46 1245.46,-1804.46 1245.46,-1804.46 1249.42,-1804.46 1253.38,-1808.42 1253.38,-1812.38 1253.38,-1812.38 1253.38,-1820.3 1253.38,-1820.3 1253.38,-1824.25 1249.42,-1828.21 1245.46,-1828.21"/>
<text xml:space="preserve" text-anchor="middle" x="1198.88" y="-1810.91" font-family="Arial" font-size="14.00" fill="#cfffac">lib/fabEmitter.ts</text>
</g>
<!-- components/FloatingTabBar.tsx&#45;&gt;lib/fabEmitter.ts -->
<g id="edge56" class="edge">
<title>components/FloatingTabBar.tsx&#45;&gt;lib/fabEmitter.ts</title>
<path fill="none" stroke="#757575" d="M1049.99,-1816.34C1077.96,-1816.34 1107.52,-1816.34 1132.8,-1816.34"/>
<polygon fill="#757575" stroke="#757575" points="1132.58,-1819.84 1142.58,-1816.34 1132.58,-1812.84 1132.58,-1819.84"/>
</g>
<!-- components/NotificationBadge.tsx -->
<g id="node17" class="node">
<title>components/NotificationBadge.tsx</title>
<path fill="none" stroke="#cfffac" d="M1301.33,-752.21C1301.33,-752.21 1096.42,-752.21 1096.42,-752.21 1092.46,-752.21 1088.5,-748.25 1088.5,-744.3 1088.5,-744.3 1088.5,-736.38 1088.5,-736.38 1088.5,-732.42 1092.46,-728.46 1096.42,-728.46 1096.42,-728.46 1301.33,-728.46 1301.33,-728.46 1305.29,-728.46 1309.25,-732.42 1309.25,-736.38 1309.25,-736.38 1309.25,-744.3 1309.25,-744.3 1309.25,-748.25 1305.29,-752.21 1301.33,-752.21"/>
<text xml:space="preserve" text-anchor="middle" x="1198.88" y="-734.91" font-family="Arial" font-size="14.00" fill="#cfffac">components/NotificationBadge.tsx</text>
</g>
<!-- components/FloatingTabBar.tsx&#45;&gt;components/NotificationBadge.tsx -->
<g id="edge55" class="edge">
<title>components/FloatingTabBar.tsx&#45;&gt;components/NotificationBadge.tsx</title>
<path fill="none" stroke="#757575" d="M955.33,-1804.17C975.27,-1770.31 1030.52,-1671.57 1052.5,-1581.34 1116.16,-1320.06 1023.02,-1238.17 1088.5,-977.34 1109.57,-893.42 1160.05,-802.84 1184.35,-762.22"/>
<polygon fill="#757575" stroke="#757575" points="1187.23,-764.23 1189.42,-753.86 1181.24,-760.6 1187.23,-764.23"/>
</g>
<!-- lib/notificationState.ts -->
<g id="node21" class="node">
<title>lib/notificationState.ts</title>
<path fill="none" stroke="#cfffac" d="M1262.71,-278.21C1262.71,-278.21 1135.04,-278.21 1135.04,-278.21 1131.08,-278.21 1127.12,-274.25 1127.12,-270.3 1127.12,-270.3 1127.12,-262.38 1127.12,-262.38 1127.12,-258.42 1131.08,-254.46 1135.04,-254.46 1135.04,-254.46 1262.71,-254.46 1262.71,-254.46 1266.67,-254.46 1270.62,-258.42 1270.62,-262.38 1270.62,-262.38 1270.62,-270.3 1270.62,-270.3 1270.62,-274.25 1266.67,-278.21 1262.71,-278.21"/>
<text xml:space="preserve" text-anchor="middle" x="1198.88" y="-260.91" font-family="Arial" font-size="14.00" fill="#cfffac">lib/notificationState.ts</text>
</g>
<!-- components/FloatingTabBar.tsx&#45;&gt;lib/notificationState.ts -->
<g id="edge57" class="edge">
<title>components/FloatingTabBar.tsx&#45;&gt;lib/notificationState.ts</title>
<path fill="none" stroke="#757575" d="M955.41,-1804.19C975.57,-1770.38 1031.32,-1671.76 1052.5,-1581.34 1096.22,-1394.67 1061.87,-909.2 1088.5,-719.34 1112.03,-551.51 1170.28,-355.05 1190.68,-289.17"/>
<polygon fill="#757575" stroke="#757575" points="1193.94,-290.45 1193.58,-279.87 1187.26,-288.37 1193.94,-290.45"/>
</g>
<!-- lib/tabBarEmitter.ts -->
<g id="node37" class="node">
<title>lib/tabBarEmitter.ts</title>
<path fill="none" stroke="#cfffac" d="M1255.96,-2004.21C1255.96,-2004.21 1141.79,-2004.21 1141.79,-2004.21 1137.83,-2004.21 1133.88,-2000.25 1133.88,-1996.3 1133.88,-1996.3 1133.88,-1988.38 1133.88,-1988.38 1133.88,-1984.42 1137.83,-1980.46 1141.79,-1980.46 1141.79,-1980.46 1255.96,-1980.46 1255.96,-1980.46 1259.92,-1980.46 1263.88,-1984.42 1263.88,-1988.38 1263.88,-1988.38 1263.88,-1996.3 1263.88,-1996.3 1263.88,-2000.25 1259.92,-2004.21 1255.96,-2004.21"/>
<text xml:space="preserve" text-anchor="middle" x="1198.88" y="-1986.91" font-family="Arial" font-size="14.00" fill="#cfffac">lib/tabBarEmitter.ts</text>
</g>
<!-- components/FloatingTabBar.tsx&#45;&gt;lib/tabBarEmitter.ts -->
<g id="edge58" class="edge">
<title>components/FloatingTabBar.tsx&#45;&gt;lib/tabBarEmitter.ts</title>
<path fill="none" stroke="#757575" d="M965.17,-1828.43C1008.06,-1858.64 1120.07,-1937.54 1171.44,-1973.72"/>
<polygon fill="#757575" stroke="#757575" points="1169.15,-1976.39 1179.34,-1979.28 1173.18,-1970.66 1169.15,-1976.39"/>
</g>
<!-- app/(tabs)/index.tsx -->
<g id="node4" class="node">
<title>app/(tabs)/index.tsx</title>
<path fill="none" stroke="#c6c5fe" d="M171.21,-1452.21C171.21,-1452.21 53.29,-1452.21 53.29,-1452.21 49.33,-1452.21 45.38,-1448.25 45.38,-1444.3 45.38,-1444.3 45.38,-1436.38 45.38,-1436.38 45.38,-1432.42 49.33,-1428.46 53.29,-1428.46 53.29,-1428.46 171.21,-1428.46 171.21,-1428.46 175.17,-1428.46 179.12,-1432.42 179.12,-1436.38 179.12,-1436.38 179.12,-1444.3 179.12,-1444.3 179.12,-1448.25 175.17,-1452.21 171.21,-1452.21"/>
<text xml:space="preserve" text-anchor="middle" x="112.25" y="-1434.91" font-family="Arial" font-size="14.00" fill="#c6c5fe">app/(tabs)/index.tsx</text>
</g>
<!-- app/(tabs)/index.tsx&#45;&gt;components/FloatingTabBar.tsx -->
<g id="edge3" class="edge">
<title>app/(tabs)/index.tsx&#45;&gt;components/FloatingTabBar.tsx</title>
<path fill="none" stroke="#757575" d="M114.77,-1452.39C121.52,-1500.35 153.29,-1678.98 260.5,-1761.34 350.43,-1830.42 402.35,-1775.41 512,-1804.34 528.45,-1808.68 531.24,-1814.4 548,-1817.34 660.73,-1837.07 691.06,-1817.74 805.5,-1817.34 814.43,-1817.31 823.68,-1817.26 832.98,-1817.21"/>
<polygon fill="#757575" stroke="#757575" points="832.83,-1820.71 842.81,-1817.16 832.79,-1813.71 832.83,-1820.71"/>
</g>
<!-- components/ForespørselKort.tsx -->
<g id="node5" class="node">
<title>components/ForespørselKort.tsx</title>
<path fill="none" stroke="#c6c5fe" d="M484.21,-1168.21C484.21,-1168.21 288.29,-1168.21 288.29,-1168.21 284.33,-1168.21 280.38,-1164.25 280.38,-1160.3 280.38,-1160.3 280.38,-1152.38 280.38,-1152.38 280.38,-1148.42 284.33,-1144.46 288.29,-1144.46 288.29,-1144.46 484.21,-1144.46 484.21,-1144.46 488.17,-1144.46 492.12,-1148.42 492.12,-1152.38 492.12,-1152.38 492.12,-1160.3 492.12,-1160.3 492.12,-1164.25 488.17,-1168.21 484.21,-1168.21"/>
<text xml:space="preserve" text-anchor="middle" x="386.25" y="-1150.91" font-family="Arial" font-size="14.00" fill="#c6c5fe">components/ForespørselKort.tsx</text>
</g>
<!-- app/(tabs)/index.tsx&#45;&gt;components/ForespørselKort.tsx -->
<g id="edge4" class="edge">
<title>app/(tabs)/index.tsx&#45;&gt;components/ForespørselKort.tsx</title>
<path fill="none" stroke="#757575" d="M121.8,-1428.23C143.34,-1398.1 202.28,-1317.98 260.5,-1259.34 292.22,-1227.38 333.14,-1195.06 359.29,-1175.36"/>
<polygon fill="#757575" stroke="#757575" points="361.08,-1178.39 367,-1169.6 356.89,-1172.78 361.08,-1178.39"/>
</g>
<!-- components/NyttTilbudModal.tsx -->
<g id="node6" class="node">
<title>components/NyttTilbudModal.tsx</title>
<path fill="none" stroke="#c6c5fe" d="M484.96,-1292.21C484.96,-1292.21 287.54,-1292.21 287.54,-1292.21 283.58,-1292.21 279.62,-1288.25 279.62,-1284.3 279.62,-1284.3 279.62,-1276.38 279.62,-1276.38 279.62,-1272.42 283.58,-1268.46 287.54,-1268.46 287.54,-1268.46 484.96,-1268.46 484.96,-1268.46 488.92,-1268.46 492.88,-1272.42 492.88,-1276.38 492.88,-1276.38 492.88,-1284.3 492.88,-1284.3 492.88,-1288.25 488.92,-1292.21 484.96,-1292.21"/>
<text xml:space="preserve" text-anchor="middle" x="386.25" y="-1274.91" font-family="Arial" font-size="14.00" fill="#c6c5fe">components/NyttTilbudModal.tsx</text>
</g>
<!-- app/(tabs)/index.tsx&#45;&gt;components/NyttTilbudModal.tsx -->
<g id="edge5" class="edge">
<title>app/(tabs)/index.tsx&#45;&gt;components/NyttTilbudModal.tsx</title>
<path fill="none" stroke="#757575" d="M134.14,-1428.05C181.81,-1400.01 298.76,-1331.22 354.6,-1298.37"/>
<polygon fill="#757575" stroke="#757575" points="356.14,-1301.52 362.98,-1293.44 352.59,-1295.49 356.14,-1301.52"/>
</g>
<!-- components/TjenesteSelectorSheet.tsx -->
<g id="node7" class="node">
<title>components/TjenesteSelectorSheet.tsx</title>
<path fill="none" stroke="#c6c5fe" d="M504.08,-1672.21C504.08,-1672.21 268.42,-1672.21 268.42,-1672.21 264.46,-1672.21 260.5,-1668.25 260.5,-1664.3 260.5,-1664.3 260.5,-1656.38 260.5,-1656.38 260.5,-1652.42 264.46,-1648.46 268.42,-1648.46 268.42,-1648.46 504.08,-1648.46 504.08,-1648.46 508.04,-1648.46 512,-1652.42 512,-1656.38 512,-1656.38 512,-1664.3 512,-1664.3 512,-1668.25 508.04,-1672.21 504.08,-1672.21"/>
<text xml:space="preserve" text-anchor="middle" x="386.25" y="-1654.91" font-family="Arial" font-size="14.00" fill="#c6c5fe">components/TjenesteSelectorSheet.tsx</text>
</g>
<!-- app/(tabs)/index.tsx&#45;&gt;components/TjenesteSelectorSheet.tsx -->
<g id="edge6" class="edge">
<title>app/(tabs)/index.tsx&#45;&gt;components/TjenesteSelectorSheet.tsx</title>
<path fill="none" stroke="#757575" d="M118.53,-1452.28C134.44,-1486.75 185.43,-1586.91 260.5,-1634.34 266.39,-1638.06 272.72,-1641.26 279.29,-1644.01"/>
<polygon fill="#757575" stroke="#757575" points="277.78,-1647.18 288.38,-1647.44 280.26,-1640.63 277.78,-1647.18"/>
</g>
<!-- components/ToastMessage.tsx -->
<g id="node8" class="node">
<title>components/ToastMessage.tsx</title>
<path fill="none" stroke="#c6c5fe" d="M479.71,-1752.21C479.71,-1752.21 292.79,-1752.21 292.79,-1752.21 288.83,-1752.21 284.88,-1748.25 284.88,-1744.3 284.88,-1744.3 284.88,-1736.38 284.88,-1736.38 284.88,-1732.42 288.83,-1728.46 292.79,-1728.46 292.79,-1728.46 479.71,-1728.46 479.71,-1728.46 483.67,-1728.46 487.62,-1732.42 487.62,-1736.38 487.62,-1736.38 487.62,-1744.3 487.62,-1744.3 487.62,-1748.25 483.67,-1752.21 479.71,-1752.21"/>
<text xml:space="preserve" text-anchor="middle" x="386.25" y="-1734.91" font-family="Arial" font-size="14.00" fill="#c6c5fe">components/ToastMessage.tsx</text>
</g>
<!-- app/(tabs)/index.tsx&#45;&gt;components/ToastMessage.tsx -->
<g id="edge7" class="edge">
<title>app/(tabs)/index.tsx&#45;&gt;components/ToastMessage.tsx</title>
<path fill="none" stroke="#757575" d="M115.92,-1452.59C126.09,-1496.09 166.61,-1644.21 260.5,-1714.34 265.09,-1717.77 270.03,-1720.77 275.2,-1723.39"/>
<polygon fill="#757575" stroke="#757575" points="273.46,-1726.45 284.01,-1727.37 276.33,-1720.07 273.46,-1726.45"/>
</g>
<!-- components/TopBar.tsx -->
<g id="node9" class="node">
<title>components/TopBar.tsx</title>
<path fill="none" stroke="#cfffac" d="M456.83,-734.21C456.83,-734.21 315.67,-734.21 315.67,-734.21 311.71,-734.21 307.75,-730.25 307.75,-726.3 307.75,-726.3 307.75,-718.38 307.75,-718.38 307.75,-714.42 311.71,-710.46 315.67,-710.46 315.67,-710.46 456.83,-710.46 456.83,-710.46 460.79,-710.46 464.75,-714.42 464.75,-718.38 464.75,-718.38 464.75,-726.3 464.75,-726.3 464.75,-730.25 460.79,-734.21 456.83,-734.21"/>
<text xml:space="preserve" text-anchor="middle" x="386.25" y="-716.91" font-family="Arial" font-size="14.00" fill="#cfffac">components/TopBar.tsx</text>
</g>
<!-- app/(tabs)/index.tsx&#45;&gt;components/TopBar.tsx -->
<g id="edge8" class="edge">
<title>app/(tabs)/index.tsx&#45;&gt;components/TopBar.tsx</title>
<path fill="none" stroke="#757575" d="M114.07,-1428.13C119.97,-1343.94 158.67,-849.74 260.5,-748.34 270.46,-738.42 283.15,-731.83 296.62,-727.51"/>
<polygon fill="#757575" stroke="#757575" points="297.36,-730.94 306.08,-724.92 295.51,-724.19 297.36,-730.94"/>
</g>
<!-- hooks/useNyttTilbudFlyt.ts -->
<g id="node10" class="node">
<title>hooks/useNyttTilbudFlyt.ts</title>
<path fill="none" stroke="#c6c5fe" d="M465.46,-1592.21C465.46,-1592.21 307.04,-1592.21 307.04,-1592.21 303.08,-1592.21 299.12,-1588.25 299.12,-1584.3 299.12,-1584.3 299.12,-1576.38 299.12,-1576.38 299.12,-1572.42 303.08,-1568.46 307.04,-1568.46 307.04,-1568.46 465.46,-1568.46 465.46,-1568.46 469.42,-1568.46 473.38,-1572.42 473.38,-1576.38 473.38,-1576.38 473.38,-1584.3 473.38,-1584.3 473.38,-1588.25 469.42,-1592.21 465.46,-1592.21"/>
<text xml:space="preserve" text-anchor="middle" x="386.25" y="-1574.91" font-family="Arial" font-size="14.00" fill="#c6c5fe">hooks/useNyttTilbudFlyt.ts</text>
</g>
<!-- app/(tabs)/index.tsx&#45;&gt;hooks/useNyttTilbudFlyt.ts -->
<g id="edge9" class="edge">
<title>app/(tabs)/index.tsx&#45;&gt;hooks/useNyttTilbudFlyt.ts</title>
<path fill="none" stroke="#757575" d="M124.96,-1452.54C148.35,-1476.15 203.55,-1528.07 260.5,-1554.34 269.57,-1558.52 279.33,-1562.04 289.24,-1565"/>
<polygon fill="#757575" stroke="#757575" points="288.01,-1568.28 298.58,-1567.58 289.87,-1561.54 288.01,-1568.28"/>
</g>
<!-- app/(tabs)/index.tsx&#45;&gt;lib/fabEmitter.ts -->
<g id="edge10" class="edge">
<title>app/(tabs)/index.tsx&#45;&gt;lib/fabEmitter.ts</title>
<path fill="none" stroke="#757575" d="M114.08,-1452.41C118.32,-1503.86 142.24,-1706.41 260.5,-1797.34 536.54,-2009.59 1005.82,-1880.37 1152.61,-1832.17"/>
<polygon fill="#757575" stroke="#757575" points="1153.6,-1835.53 1161.98,-1829.05 1151.39,-1828.88 1153.6,-1835.53"/>
</g>
<!-- lib/firmaCache.ts -->
<g id="node12" class="node">
<title>lib/firmaCache.ts</title>
<path fill="none" stroke="#c6c5fe" d="M727.46,-1088.21C727.46,-1088.21 626.04,-1088.21 626.04,-1088.21 622.08,-1088.21 618.12,-1084.25 618.12,-1080.3 618.12,-1080.3 618.12,-1072.38 618.12,-1072.38 618.12,-1068.42 622.08,-1064.46 626.04,-1064.46 626.04,-1064.46 727.46,-1064.46 727.46,-1064.46 731.42,-1064.46 735.38,-1068.42 735.38,-1072.38 735.38,-1072.38 735.38,-1080.3 735.38,-1080.3 735.38,-1084.25 731.42,-1088.21 727.46,-1088.21"/>
<text xml:space="preserve" text-anchor="middle" x="676.75" y="-1070.91" font-family="Arial" font-size="14.00" fill="#c6c5fe">lib/firmaCache.ts</text>
</g>
<!-- app/(tabs)/index.tsx&#45;&gt;lib/firmaCache.ts -->
<g id="edge11" class="edge">
<title>app/(tabs)/index.tsx&#45;&gt;lib/firmaCache.ts</title>
<path fill="none" stroke="#757575" d="M114.21,-1427.97C118.88,-1377.09 144.05,-1182.83 260.5,-1101.34 366.54,-1027.13 527.6,-1044.57 614.69,-1061.7"/>
<polygon fill="#757575" stroke="#757575" points="613.98,-1065.13 624.48,-1063.7 615.38,-1058.27 613.98,-1065.13"/>
</g>
<!-- lib/supabase.ts -->
<g id="node13" class="node">
<title>lib/supabase.ts</title>
<path fill="none" stroke="#c6c5fe" d="M992.08,-802.21C992.08,-802.21 901.92,-802.21 901.92,-802.21 897.96,-802.21 894,-798.25 894,-794.3 894,-794.3 894,-786.38 894,-786.38 894,-782.42 897.96,-778.46 901.92,-778.46 901.92,-778.46 992.08,-778.46 992.08,-778.46 996.04,-778.46 1000,-782.42 1000,-786.38 1000,-786.38 1000,-794.3 1000,-794.3 1000,-798.25 996.04,-802.21 992.08,-802.21"/>
<text xml:space="preserve" text-anchor="middle" x="947" y="-784.91" font-family="Arial" font-size="14.00" fill="#c6c5fe">lib/supabase.ts</text>
</g>
<!-- app/(tabs)/index.tsx&#45;&gt;lib/supabase.ts -->
<g id="edge12" class="edge">
<title>app/(tabs)/index.tsx&#45;&gt;lib/supabase.ts</title>
<path fill="none" stroke="#757575" d="M114.2,-1427.97C120.76,-1345.87 162.05,-879.78 260.5,-786.34 342.75,-708.27 422.79,-813.35 512,-743.34 543.63,-718.51 514.38,-682.4 548,-660.34 643.68,-597.55 698.94,-618.6 805.5,-660.34 812.91,-663.24 887.96,-734.65 925.23,-770.37"/>
<polygon fill="#757575" stroke="#757575" points="922.68,-772.77 932.32,-777.17 927.52,-767.72 922.68,-772.77"/>
</g>
<!-- lib/tilbudTjenester.ts -->
<g id="node14" class="node">
<title>lib/tilbudTjenester.ts</title>
<path fill="none" stroke="#c6c5fe" d="M445.96,-692.21C445.96,-692.21 326.54,-692.21 326.54,-692.21 322.58,-692.21 318.62,-688.25 318.62,-684.3 318.62,-684.3 318.62,-676.38 318.62,-676.38 318.62,-672.42 322.58,-668.46 326.54,-668.46 326.54,-668.46 445.96,-668.46 445.96,-668.46 449.92,-668.46 453.88,-672.42 453.88,-676.38 453.88,-676.38 453.88,-684.3 453.88,-684.3 453.88,-688.25 449.92,-692.21 445.96,-692.21"/>
<text xml:space="preserve" text-anchor="middle" x="386.25" y="-674.91" font-family="Arial" font-size="14.00" fill="#c6c5fe">lib/tilbudTjenester.ts</text>
</g>
<!-- app/(tabs)/index.tsx&#45;&gt;lib/tilbudTjenester.ts -->
<g id="edge13" class="edge">
<title>app/(tabs)/index.tsx&#45;&gt;lib/tilbudTjenester.ts</title>
<path fill="none" stroke="#757575" d="M113.85,-1428.12C118.39,-1340.5 150.31,-808.28 260.5,-701.34 273.04,-689.17 289.84,-682.53 307.03,-679.17"/>
<polygon fill="#757575" stroke="#757575" points="307.51,-682.64 316.85,-677.64 306.44,-675.72 307.51,-682.64"/>
</g>
<!-- types/index.ts -->
<g id="node15" class="node">
<title>types/index.ts</title>
<path fill="none" stroke="#cfffac" d="M1240.21,-1010.21C1240.21,-1010.21 1157.54,-1010.21 1157.54,-1010.21 1153.58,-1010.21 1149.62,-1006.25 1149.62,-1002.3 1149.62,-1002.3 1149.62,-994.38 1149.62,-994.38 1149.62,-990.42 1153.58,-986.46 1157.54,-986.46 1157.54,-986.46 1240.21,-986.46 1240.21,-986.46 1244.17,-986.46 1248.12,-990.42 1248.12,-994.38 1248.12,-994.38 1248.12,-1002.3 1248.12,-1002.3 1248.12,-1006.25 1244.17,-1010.21 1240.21,-1010.21"/>
<text xml:space="preserve" text-anchor="middle" x="1198.88" y="-992.91" font-family="Arial" font-size="14.00" fill="#cfffac">types/index.ts</text>
</g>
<!-- app/(tabs)/index.tsx&#45;&gt;types/index.ts -->
<g id="edge14" class="edge">
<title>app/(tabs)/index.tsx&#45;&gt;types/index.ts</title>
<path fill="none" stroke="#757575" d="M116.7,-1452.7C128.71,-1493.28 172.88,-1623.16 260.5,-1681.34 354.68,-1743.87 404.23,-1685.2 512,-1719.34 529.05,-1724.74 530.59,-1733.23 548,-1737.34 659.38,-1763.63 694.48,-1765.14 805.5,-1737.34 926.24,-1707.1 980.28,-1706.72 1052.5,-1605.34 1111.51,-1522.5 1066.43,-1478.62 1088.5,-1379.34 1119.1,-1241.7 1170.78,-1080.33 1190.19,-1021.38"/>
<polygon fill="#757575" stroke="#757575" points="1193.44,-1022.72 1193.26,-1012.13 1186.79,-1020.52 1193.44,-1022.72"/>
</g>
<!-- components/ForespørselKort.tsx&#45;&gt;lib/supabase.ts -->
<g id="edge62" class="edge">
<title>components/ForespørselKort.tsx&#45;&gt;lib/supabase.ts</title>
<path fill="none" stroke="#757575" d="M391.76,-1143.97C416.9,-1075.2 538.77,-742.69 548,-736.34 663.53,-656.85 843.17,-735.58 914.89,-772.99"/>
<polygon fill="#757575" stroke="#757575" points="912.86,-775.88 923.33,-777.48 916.14,-769.69 912.86,-775.88"/>
</g>
<!-- components/ForespørselKort.tsx&#45;&gt;types/index.ts -->
<g id="edge63" class="edge">
<title>components/ForespørselKort.tsx&#45;&gt;types/index.ts</title>
<path fill="none" stroke="#757575" d="M478.61,-1143.97C582.15,-1129.86 744.46,-1107.44 805.5,-1097.34 915.75,-1079.08 944.68,-1079.69 1052.5,-1050.34 1088.51,-1040.54 1128.34,-1026.02 1157.2,-1014.81"/>
<polygon fill="#757575" stroke="#757575" points="1158.25,-1018.16 1166.28,-1011.25 1155.69,-1011.64 1158.25,-1018.16"/>
</g>
<!-- components/TilbudsForhåndsvisning.tsx -->
<g id="node38" class="node">
<title>components/TilbudsForhåndsvisning.tsx</title>
<path fill="none" stroke="#c6c5fe" d="M797.58,-1252.21C797.58,-1252.21 555.92,-1252.21 555.92,-1252.21 551.96,-1252.21 548,-1248.25 548,-1244.3 548,-1244.3 548,-1236.38 548,-1236.38 548,-1232.42 551.96,-1228.46 555.92,-1228.46 555.92,-1228.46 797.58,-1228.46 797.58,-1228.46 801.54,-1228.46 805.5,-1232.42 805.5,-1236.38 805.5,-1236.38 805.5,-1244.3 805.5,-1244.3 805.5,-1248.25 801.54,-1252.21 797.58,-1252.21"/>
<text xml:space="preserve" text-anchor="middle" x="676.75" y="-1234.91" font-family="Arial" font-size="14.00" fill="#c6c5fe">components/TilbudsForhåndsvisning.tsx</text>
</g>
<!-- components/ForespørselKort.tsx&#45;&gt;components/TilbudsForhåndsvisning.tsx -->
<g id="edge59" class="edge">
<title>components/ForespørselKort.tsx&#45;&gt;components/TilbudsForhåndsvisning.tsx</title>
<path fill="none" stroke="#757575" d="M413.68,-1168.7C445.07,-1182.89 499.3,-1205.95 548,-1219.34 556.63,-1221.71 565.66,-1223.85 574.77,-1225.78"/>
<polygon fill="#757575" stroke="#757575" points="573.91,-1229.17 584.4,-1227.72 575.29,-1222.31 573.91,-1229.17"/>
</g>
<!-- lib/openai.ts -->
<g id="node39" class="node">
<title>lib/openai.ts</title>
<path fill="none" stroke="#c6c5fe" d="M712.83,-1168.21C712.83,-1168.21 640.67,-1168.21 640.67,-1168.21 636.71,-1168.21 632.75,-1164.25 632.75,-1160.3 632.75,-1160.3 632.75,-1152.38 632.75,-1152.38 632.75,-1148.42 636.71,-1144.46 640.67,-1144.46 640.67,-1144.46 712.83,-1144.46 712.83,-1144.46 716.79,-1144.46 720.75,-1148.42 720.75,-1152.38 720.75,-1152.38 720.75,-1160.3 720.75,-1160.3 720.75,-1164.25 716.79,-1168.21 712.83,-1168.21"/>
<text xml:space="preserve" text-anchor="middle" x="676.75" y="-1150.91" font-family="Arial" font-size="14.00" fill="#c6c5fe">lib/openai.ts</text>
</g>
<!-- components/ForespørselKort.tsx&#45;&gt;lib/openai.ts -->
<g id="edge60" class="edge">
<title>components/ForespørselKort.tsx&#45;&gt;lib/openai.ts</title>
<path fill="none" stroke="#757575" d="M492.22,-1156.34C535.83,-1156.34 584.63,-1156.34 620.94,-1156.34"/>
<polygon fill="#757575" stroke="#757575" points="620.76,-1159.84 630.76,-1156.34 620.76,-1152.84 620.76,-1159.84"/>
</g>
<!-- lib/resend.ts -->
<g id="node40" class="node">
<title>lib/resend.ts</title>
<path fill="none" stroke="#cfffac" d="M713.21,-1210.21C713.21,-1210.21 640.29,-1210.21 640.29,-1210.21 636.33,-1210.21 632.38,-1206.25 632.38,-1202.3 632.38,-1202.3 632.38,-1194.38 632.38,-1194.38 632.38,-1190.42 636.33,-1186.46 640.29,-1186.46 640.29,-1186.46 713.21,-1186.46 713.21,-1186.46 717.17,-1186.46 721.12,-1190.42 721.12,-1194.38 721.12,-1194.38 721.12,-1202.3 721.12,-1202.3 721.12,-1206.25 717.17,-1210.21 713.21,-1210.21"/>
<text xml:space="preserve" text-anchor="middle" x="676.75" y="-1192.91" font-family="Arial" font-size="14.00" fill="#cfffac">lib/resend.ts</text>
</g>
<!-- components/ForespørselKort.tsx&#45;&gt;lib/resend.ts -->
<g id="edge61" class="edge">
<title>components/ForespørselKort.tsx&#45;&gt;lib/resend.ts</title>
<path fill="none" stroke="#757575" d="M472.25,-1168.71C520.26,-1175.7 578.87,-1184.23 620.83,-1190.34"/>
<polygon fill="#757575" stroke="#757575" points="620.31,-1193.8 630.71,-1191.78 621.32,-1186.88 620.31,-1193.8"/>
</g>
<!-- utils/tilbudStatus.ts -->
<g id="node41" class="node">
<title>utils/tilbudStatus.ts</title>
<path fill="none" stroke="#c6c5fe" d="M733.08,-372.21C733.08,-372.21 620.42,-372.21 620.42,-372.21 616.46,-372.21 612.5,-368.25 612.5,-364.3 612.5,-364.3 612.5,-356.38 612.5,-356.38 612.5,-352.42 616.46,-348.46 620.42,-348.46 620.42,-348.46 733.08,-348.46 733.08,-348.46 737.04,-348.46 741,-352.42 741,-356.38 741,-356.38 741,-364.3 741,-364.3 741,-368.25 737.04,-372.21 733.08,-372.21"/>
<text xml:space="preserve" text-anchor="middle" x="676.75" y="-354.91" font-family="Arial" font-size="14.00" fill="#c6c5fe">utils/tilbudStatus.ts</text>
</g>
<!-- components/ForespørselKort.tsx&#45;&gt;utils/tilbudStatus.ts -->
<g id="edge64" class="edge">
<title>components/ForespørselKort.tsx&#45;&gt;utils/tilbudStatus.ts</title>
<path fill="none" stroke="#757575" d="M391.92,-1144.06C410.49,-1094.66 479.69,-905.3 512,-743.34 527.6,-665.14 494.52,-445.47 548,-386.34 561.52,-371.39 581.08,-363.7 600.85,-360.02"/>
<polygon fill="#757575" stroke="#757575" points="601.28,-363.49 610.65,-358.55 600.24,-356.57 601.28,-363.49"/>
</g>
<!-- components/NyttTilbudModal.tsx&#45;&gt;lib/firmaCache.ts -->
<g id="edge69" class="edge">
<title>components/NyttTilbudModal.tsx&#45;&gt;lib/firmaCache.ts</title>
<path fill="none" stroke="#757575" d="M403.76,-1268.17C428.38,-1249.69 475.72,-1212.95 512,-1177.34 529.54,-1160.11 528.39,-1150.17 548,-1135.34 572.13,-1117.09 602.8,-1102.7 628.04,-1092.69"/>
<polygon fill="#757575" stroke="#757575" points="629,-1096.07 637.08,-1089.22 626.49,-1089.54 629,-1096.07"/>
</g>
<!-- components/NyttTilbudModal.tsx&#45;&gt;lib/supabase.ts -->
<g id="edge72" class="edge">
<title>components/NyttTilbudModal.tsx&#45;&gt;lib/supabase.ts</title>
<path fill="none" stroke="#757575" d="M411.72,-1268.01C441.21,-1251.7 489.57,-1219.97 512,-1177.34 554.38,-1096.79 480.87,-830.8 548,-769.34 595.3,-726.03 782.75,-756.45 882.61,-776.53"/>
<polygon fill="#757575" stroke="#757575" points="881.77,-779.93 892.27,-778.5 883.17,-773.07 881.77,-779.93"/>
</g>
<!-- components/NyttTilbudModal.tsx&#45;&gt;types/index.ts -->
<g id="edge77" class="edge">
<title>components/NyttTilbudModal.tsx&#45;&gt;types/index.ts</title>
<path fill="none" stroke="#757575" d="M493.31,-1283.01C669.09,-1286.59 1006.12,-1289.59 1052.5,-1261.34 1142.19,-1206.69 1180.72,-1075.35 1193.09,-1021.73"/>
<polygon fill="#757575" stroke="#757575" points="1196.46,-1022.68 1195.19,-1012.17 1189.62,-1021.18 1196.46,-1022.68"/>
</g>
<!-- lib/tilbudPris.ts -->
<g id="node23" class="node">
<title>lib/tilbudPris.ts</title>
<path fill="none" stroke="#cfffac" d="M990.58,-313.21C990.58,-313.21 903.42,-313.21 903.42,-313.21 899.46,-313.21 895.5,-309.25 895.5,-305.3 895.5,-305.3 895.5,-297.38 895.5,-297.38 895.5,-293.42 899.46,-289.46 903.42,-289.46 903.42,-289.46 990.58,-289.46 990.58,-289.46 994.54,-289.46 998.5,-293.42 998.5,-297.38 998.5,-297.38 998.5,-305.3 998.5,-305.3 998.5,-309.25 994.54,-313.21 990.58,-313.21"/>
<text xml:space="preserve" text-anchor="middle" x="947" y="-295.91" font-family="Arial" font-size="14.00" fill="#cfffac">lib/tilbudPris.ts</text>
</g>
<!-- components/NyttTilbudModal.tsx&#45;&gt;lib/tilbudPris.ts -->
<g id="edge76" class="edge">
<title>components/NyttTilbudModal.tsx&#45;&gt;lib/tilbudPris.ts</title>
<path fill="none" stroke="#757575" d="M412.27,-1268.02C442.06,-1251.81 490.5,-1220.29 512,-1177.34 549.74,-1101.94 491.4,-481.84 548,-419.34 586.83,-376.46 750.82,-400.19 805.5,-381.34 848.28,-366.59 892.89,-338.69 920.07,-320.05"/>
<polygon fill="#757575" stroke="#757575" points="921.81,-323.1 928.01,-314.51 917.81,-317.36 921.81,-323.1"/>
</g>
<!-- components/NyttTilbudModal.tsx&#45;&gt;components/TilbudsForhåndsvisning.tsx -->
<g id="edge67" class="edge">
<title>components/NyttTilbudModal.tsx&#45;&gt;components/TilbudsForhåndsvisning.tsx</title>
<path fill="none" stroke="#757575" d="M476.16,-1268.01C507.56,-1263.66 543.08,-1258.73 575.36,-1254.26"/>
<polygon fill="#757575" stroke="#757575" points="575.71,-1257.74 585.13,-1252.9 574.75,-1250.81 575.71,-1257.74"/>
</g>
<!-- components/NyttTilbudModal.tsx&#45;&gt;lib/openai.ts -->
<g id="edge70" class="edge">
<title>components/NyttTilbudModal.tsx&#45;&gt;lib/openai.ts</title>
<path fill="none" stroke="#757575" d="M401.65,-1268.18C428.5,-1246.19 488.89,-1200.02 548,-1177.34 571.07,-1168.49 597.88,-1163.36 620.97,-1160.4"/>
<polygon fill="#757575" stroke="#757575" points="621.29,-1163.89 630.81,-1159.25 620.47,-1156.94 621.29,-1163.89"/>
</g>
<!-- components/NyttTilbudModal.tsx&#45;&gt;lib/resend.ts -->
<g id="edge71" class="edge">
<title>components/NyttTilbudModal.tsx&#45;&gt;lib/resend.ts</title>
<path fill="none" stroke="#757575" d="M414.57,-1268.04C446.12,-1254.3 499.86,-1232.29 548,-1219.34 571.58,-1212.99 598.16,-1208.25 620.94,-1204.9"/>
<polygon fill="#757575" stroke="#757575" points="621.22,-1208.39 630.63,-1203.52 620.23,-1201.46 621.22,-1208.39"/>
</g>
<!-- components/KundeKontaktKalender.tsx -->
<g id="node42" class="node">
<title>components/KundeKontaktKalender.tsx</title>
<path fill="none" stroke="#cfffac" d="M795.33,-1374.21C795.33,-1374.21 558.17,-1374.21 558.17,-1374.21 554.21,-1374.21 550.25,-1370.25 550.25,-1366.3 550.25,-1366.3 550.25,-1358.38 550.25,-1358.38 550.25,-1354.42 554.21,-1350.46 558.17,-1350.46 558.17,-1350.46 795.33,-1350.46 795.33,-1350.46 799.29,-1350.46 803.25,-1354.42 803.25,-1358.38 803.25,-1358.38 803.25,-1366.3 803.25,-1366.3 803.25,-1370.25 799.29,-1374.21 795.33,-1374.21"/>
<text xml:space="preserve" text-anchor="middle" x="676.75" y="-1356.91" font-family="Arial" font-size="14.00" fill="#cfffac">components/KundeKontaktKalender.tsx</text>
</g>
<!-- components/NyttTilbudModal.tsx&#45;&gt;components/KundeKontaktKalender.tsx -->
<g id="edge65" class="edge">
<title>components/NyttTilbudModal.tsx&#45;&gt;components/KundeKontaktKalender.tsx</title>
<path fill="none" stroke="#757575" d="M414.57,-1292.63C446.12,-1306.37 499.86,-1328.39 548,-1341.34 556.72,-1343.68 565.85,-1345.81 575.04,-1347.73"/>
<polygon fill="#757575" stroke="#757575" points="574.29,-1351.15 584.78,-1349.67 575.66,-1344.28 574.29,-1351.15"/>
</g>
<!-- components/SkeletonLoader.tsx -->
<g id="node43" class="node">
<title>components/SkeletonLoader.tsx</title>
<path fill="none" stroke="#cfffac" d="M773.21,-1332.21C773.21,-1332.21 580.29,-1332.21 580.29,-1332.21 576.33,-1332.21 572.38,-1328.25 572.38,-1324.3 572.38,-1324.3 572.38,-1316.38 572.38,-1316.38 572.38,-1312.42 576.33,-1308.46 580.29,-1308.46 580.29,-1308.46 773.21,-1308.46 773.21,-1308.46 777.17,-1308.46 781.12,-1312.42 781.12,-1316.38 781.12,-1316.38 781.12,-1324.3 781.12,-1324.3 781.12,-1328.25 777.17,-1332.21 773.21,-1332.21"/>
<text xml:space="preserve" text-anchor="middle" x="676.75" y="-1314.91" font-family="Arial" font-size="14.00" fill="#cfffac">components/SkeletonLoader.tsx</text>
</g>
<!-- components/NyttTilbudModal.tsx&#45;&gt;components/SkeletonLoader.tsx -->
<g id="edge66" class="edge">
<title>components/NyttTilbudModal.tsx&#45;&gt;components/SkeletonLoader.tsx</title>
<path fill="none" stroke="#757575" d="M476.16,-1292.67C507.56,-1297.02 543.08,-1301.94 575.36,-1306.42"/>
<polygon fill="#757575" stroke="#757575" points="574.75,-1309.87 585.13,-1307.77 575.71,-1302.93 574.75,-1309.87"/>
</g>
<!-- constants/tjenestePlaceholders.ts -->
<g id="node44" class="node">
<title>constants/tjenestePlaceholders.ts</title>
<path fill="none" stroke="#c6c5fe" d="M777.33,-1572.21C777.33,-1572.21 576.17,-1572.21 576.17,-1572.21 572.21,-1572.21 568.25,-1568.25 568.25,-1564.3 568.25,-1564.3 568.25,-1556.38 568.25,-1556.38 568.25,-1552.42 572.21,-1548.46 576.17,-1548.46 576.17,-1548.46 777.33,-1548.46 777.33,-1548.46 781.29,-1548.46 785.25,-1552.42 785.25,-1556.38 785.25,-1556.38 785.25,-1564.3 785.25,-1564.3 785.25,-1568.25 781.29,-1572.21 777.33,-1572.21"/>
<text xml:space="preserve" text-anchor="middle" x="676.75" y="-1554.91" font-family="Arial" font-size="14.00" fill="#c6c5fe">constants/tjenestePlaceholders.ts</text>
</g>
<!-- components/NyttTilbudModal.tsx&#45;&gt;constants/tjenestePlaceholders.ts -->
<g id="edge68" class="edge">
<title>components/NyttTilbudModal.tsx&#45;&gt;constants/tjenestePlaceholders.ts</title>
<path fill="none" stroke="#757575" d="M394.3,-1292.69C422.17,-1341.37 524.32,-1518.01 548,-1534.34 553.12,-1537.87 558.62,-1540.95 564.35,-1543.62"/>
<polygon fill="#757575" stroke="#757575" points="562.92,-1546.81 573.49,-1547.43 565.61,-1540.35 562.92,-1546.81"/>
</g>
<!-- lib/tekstUtils.ts -->
<g id="node45" class="node">
<title>lib/tekstUtils.ts</title>
<path fill="none" stroke="#cfffac" d="M990.21,-1252.21C990.21,-1252.21 903.79,-1252.21 903.79,-1252.21 899.83,-1252.21 895.88,-1248.25 895.88,-1244.3 895.88,-1244.3 895.88,-1236.38 895.88,-1236.38 895.88,-1232.42 899.83,-1228.46 903.79,-1228.46 903.79,-1228.46 990.21,-1228.46 990.21,-1228.46 994.17,-1228.46 998.12,-1232.42 998.12,-1236.38 998.12,-1236.38 998.12,-1244.3 998.12,-1244.3 998.12,-1248.25 994.17,-1252.21 990.21,-1252.21"/>
<text xml:space="preserve" text-anchor="middle" x="947" y="-1234.91" font-family="Arial" font-size="14.00" fill="#cfffac">lib/tekstUtils.ts</text>
</g>
<!-- components/NyttTilbudModal.tsx&#45;&gt;lib/tekstUtils.ts -->
<g id="edge73" class="edge">
<title>components/NyttTilbudModal.tsx&#45;&gt;lib/tekstUtils.ts</title>
<path fill="none" stroke="#757575" d="M400.11,-1292.36C425.79,-1315.43 486.29,-1365.26 548,-1383.34 657.83,-1415.51 699.96,-1427.6 805.5,-1383.34 864.55,-1358.57 911.29,-1295.55 932.91,-1262.05"/>
<polygon fill="#757575" stroke="#757575" points="935.64,-1264.28 938,-1253.96 929.72,-1260.56 935.64,-1264.28"/>
</g>
<!-- lib/tilbudFinalisering.ts -->
<g id="node46" class="node">
<title>lib/tilbudFinalisering.ts</title>
<path fill="none" stroke="#c6c5fe" d="M1013.46,-1412.21C1013.46,-1412.21 880.54,-1412.21 880.54,-1412.21 876.58,-1412.21 872.62,-1408.25 872.62,-1404.3 872.62,-1404.3 872.62,-1396.38 872.62,-1396.38 872.62,-1392.42 876.58,-1388.46 880.54,-1388.46 880.54,-1388.46 1013.46,-1388.46 1013.46,-1388.46 1017.42,-1388.46 1021.38,-1392.42 1021.38,-1396.38 1021.38,-1396.38 1021.38,-1404.3 1021.38,-1404.3 1021.38,-1408.25 1017.42,-1412.21 1013.46,-1412.21"/>
<text xml:space="preserve" text-anchor="middle" x="947" y="-1394.91" font-family="Arial" font-size="14.00" fill="#c6c5fe">lib/tilbudFinalisering.ts</text>
</g>
<!-- components/NyttTilbudModal.tsx&#45;&gt;lib/tilbudFinalisering.ts -->
<g id="edge74" class="edge">
<title>components/NyttTilbudModal.tsx&#45;&gt;lib/tilbudFinalisering.ts</title>
<path fill="none" stroke="#757575" d="M393.12,-1292.39C410.75,-1327.04 467.1,-1426.72 548,-1463.34 652.26,-1510.53 693.59,-1487.28 805.5,-1463.34 845.83,-1454.71 888.58,-1433.6 916.19,-1418.18"/>
<polygon fill="#757575" stroke="#757575" points="917.72,-1421.34 924.67,-1413.34 914.25,-1415.26 917.72,-1421.34"/>
</g>
<!-- lib/tilbudKundePlassholder.ts -->
<g id="node47" class="node">
<title>lib/tilbudKundePlassholder.ts</title>
<path fill="none" stroke="#cfffac" d="M1285.21,-1412.21C1285.21,-1412.21 1112.54,-1412.21 1112.54,-1412.21 1108.58,-1412.21 1104.62,-1408.25 1104.62,-1404.3 1104.62,-1404.3 1104.62,-1396.38 1104.62,-1396.38 1104.62,-1392.42 1108.58,-1388.46 1112.54,-1388.46 1112.54,-1388.46 1285.21,-1388.46 1285.21,-1388.46 1289.17,-1388.46 1293.12,-1392.42 1293.12,-1396.38 1293.12,-1396.38 1293.12,-1404.3 1293.12,-1404.3 1293.12,-1408.25 1289.17,-1412.21 1285.21,-1412.21"/>
<text xml:space="preserve" text-anchor="middle" x="1198.88" y="-1394.91" font-family="Arial" font-size="14.00" fill="#cfffac">lib/tilbudKundePlassholder.ts</text>
</g>
<!-- components/NyttTilbudModal.tsx&#45;&gt;lib/tilbudKundePlassholder.ts -->
<g id="edge75" class="edge">
<title>components/NyttTilbudModal.tsx&#45;&gt;lib/tilbudKundePlassholder.ts</title>
<path fill="none" stroke="#757575" d="M391.89,-1292.51C407.19,-1330.64 460.1,-1447.8 548,-1491.34 763.47,-1598.06 1065.38,-1466.95 1164.75,-1417.63"/>
<polygon fill="#757575" stroke="#757575" points="1166.07,-1420.88 1173.43,-1413.26 1162.93,-1414.63 1166.07,-1420.88"/>
</g>
<!-- lib/tjenesteIkon.ts -->
<g id="node51" class="node">
<title>lib/tjenesteIkon.ts</title>
<path fill="none" stroke="#cfffac" d="M728.96,-1728.21C728.96,-1728.21 624.54,-1728.21 624.54,-1728.21 620.58,-1728.21 616.62,-1724.25 616.62,-1720.3 616.62,-1720.3 616.62,-1712.38 616.62,-1712.38 616.62,-1708.42 620.58,-1704.46 624.54,-1704.46 624.54,-1704.46 728.96,-1704.46 728.96,-1704.46 732.92,-1704.46 736.88,-1708.42 736.88,-1712.38 736.88,-1712.38 736.88,-1720.3 736.88,-1720.3 736.88,-1724.25 732.92,-1728.21 728.96,-1728.21"/>
<text xml:space="preserve" text-anchor="middle" x="676.75" y="-1710.91" font-family="Arial" font-size="14.00" fill="#cfffac">lib/tjenesteIkon.ts</text>
</g>
<!-- components/TjenesteSelectorSheet.tsx&#45;&gt;lib/tjenesteIkon.ts -->
<g id="edge98" class="edge">
<title>components/TjenesteSelectorSheet.tsx&#45;&gt;lib/tjenesteIkon.ts</title>
<path fill="none" stroke="#757575" d="M450.92,-1672.7C496.55,-1681.55 558.01,-1693.48 605.14,-1702.63"/>
<polygon fill="#757575" stroke="#757575" points="604.21,-1706.02 614.7,-1704.49 605.55,-1699.14 604.21,-1706.02"/>
</g>
<!-- components/Toast.tsx -->
<g id="node20" class="node">
<title>components/Toast.tsx</title>
<path fill="none" stroke="#c6c5fe" d="M742.46,-1808.21C742.46,-1808.21 611.04,-1808.21 611.04,-1808.21 607.08,-1808.21 603.12,-1804.25 603.12,-1800.3 603.12,-1800.3 603.12,-1792.38 603.12,-1792.38 603.12,-1788.42 607.08,-1784.46 611.04,-1784.46 611.04,-1784.46 742.46,-1784.46 742.46,-1784.46 746.42,-1784.46 750.38,-1788.42 750.38,-1792.38 750.38,-1792.38 750.38,-1800.3 750.38,-1800.3 750.38,-1804.25 746.42,-1808.21 742.46,-1808.21"/>
<text xml:space="preserve" text-anchor="middle" x="676.75" y="-1790.91" font-family="Arial" font-size="14.00" fill="#c6c5fe">components/Toast.tsx</text>
</g>
<!-- components/ToastMessage.tsx&#45;&gt;components/Toast.tsx -->
<g id="edge100" class="edge">
<title>components/ToastMessage.tsx&#45;&gt;components/Toast.tsx</title>
<path fill="none" stroke="#757575" d="M450.92,-1752.7C495.22,-1761.3 554.46,-1772.79 601,-1781.83"/>
<polygon fill="#757575" stroke="#757575" points="600.27,-1785.25 610.76,-1783.72 601.61,-1778.38 600.27,-1785.25"/>
</g>
<!-- hooks/useNyttTilbudFlyt.ts&#45;&gt;types/index.ts -->
<g id="edge105" class="edge">
<title>hooks/useNyttTilbudFlyt.ts&#45;&gt;types/index.ts</title>
<path fill="none" stroke="#757575" d="M473.58,-1586.53C643.61,-1597.86 1009.2,-1617.61 1052.5,-1581.34 1087.46,-1552.06 1078.2,-1423.75 1088.5,-1379.34 1120.44,-1241.68 1171.52,-1079.71 1190.48,-1021.01"/>
<polygon fill="#757575" stroke="#757575" points="1193.7,-1022.42 1193.45,-1011.83 1187.04,-1020.26 1193.7,-1022.42"/>
</g>
<!-- lib/firmaCache.ts&#45;&gt;types/index.ts -->
<g id="edge106" class="edge">
<title>lib/firmaCache.ts&#45;&gt;types/index.ts</title>
<path fill="none" stroke="#757575" d="M735.65,-1067.65C835.09,-1052.74 1037.31,-1022.42 1138.06,-1007.31"/>
<polygon fill="#757575" stroke="#757575" points="1138.37,-1010.8 1147.74,-1005.86 1137.33,-1003.88 1138.37,-1010.8"/>
</g>
<!-- lib/supabase.ts&#45;&gt;types/index.ts -->
<g id="edge111" class="edge">
<title>lib/supabase.ts&#45;&gt;types/index.ts</title>
<path fill="none" stroke="#757575" d="M971.88,-802.58C993.78,-814.29 1026.63,-833.12 1052.5,-853.34 1102.9,-892.72 1154.07,-948.13 1180.17,-977.76"/>
<polygon fill="#757575" stroke="#757575" points="1177.22,-979.7 1186.44,-984.93 1182.5,-975.1 1177.22,-979.7"/>
</g>
<!-- lib/tilbudTjenester.ts&#45;&gt;types/index.ts -->
<g id="edge115" class="edge">
<title>lib/tilbudTjenester.ts&#45;&gt;types/index.ts</title>
<path fill="none" stroke="#757575" d="M454.09,-676.74C475.29,-679.12 497.07,-685.83 512,-701.34 598.41,-791.09 455.63,-895.73 548,-979.34 591.07,-1018.32 985.21,-1006.89 1137.87,-1000.92"/>
<polygon fill="#757575" stroke="#757575" points="1137.93,-1004.42 1147.78,-1000.53 1137.65,-997.43 1137.93,-1004.42"/>
</g>
<!-- app/(tabs)/tilbud.tsx -->
<g id="node16" class="node">
<title>app/(tabs)/tilbud.tsx</title>
<path fill="none" stroke="#c6c5fe" d="M171.21,-652.21C171.21,-652.21 53.29,-652.21 53.29,-652.21 49.33,-652.21 45.38,-648.25 45.38,-644.3 45.38,-644.3 45.38,-636.38 45.38,-636.38 45.38,-632.42 49.33,-628.46 53.29,-628.46 53.29,-628.46 171.21,-628.46 171.21,-628.46 175.17,-628.46 179.12,-632.42 179.12,-636.38 179.12,-636.38 179.12,-644.3 179.12,-644.3 179.12,-648.25 175.17,-652.21 171.21,-652.21"/>
<text xml:space="preserve" text-anchor="middle" x="112.25" y="-634.91" font-family="Arial" font-size="14.00" fill="#c6c5fe">app/(tabs)/tilbud.tsx</text>
</g>
<!-- app/(tabs)/tilbud.tsx&#45;&gt;components/FloatingTabBar.tsx -->
<g id="edge15" class="edge">
<title>app/(tabs)/tilbud.tsx&#45;&gt;components/FloatingTabBar.tsx</title>
<path fill="none" stroke="#757575" d="M114.89,-652.56C128.88,-756.16 228.14,-1483.88 260.5,-1516.34 340.57,-1596.64 424.21,-1487.56 512,-1559.34 546.31,-1587.39 513.63,-1624.35 548,-1652.34 637.97,-1725.61 708.34,-1631.91 805.5,-1695.34 829.96,-1711.31 820.67,-1729.85 841.5,-1750.34 861.61,-1770.12 888.63,-1787 910.16,-1798.73"/>
<polygon fill="#757575" stroke="#757575" points="908.42,-1801.77 918.89,-1803.36 911.69,-1795.58 908.42,-1801.77"/>
</g>
<!-- app/(tabs)/tilbud.tsx&#45;&gt;components/NyttTilbudModal.tsx -->
<g id="edge17" class="edge">
<title>app/(tabs)/tilbud.tsx&#45;&gt;components/NyttTilbudModal.tsx</title>
<path fill="none" stroke="#757575" d="M113.9,-652.36C117.72,-713.36 141.32,-993.08 260.5,-1177.34 284.24,-1214.04 325.23,-1244.19 353.72,-1262.19"/>
<polygon fill="#757575" stroke="#757575" points="351.58,-1264.98 361.93,-1267.24 355.25,-1259.02 351.58,-1264.98"/>
</g>
<!-- app/(tabs)/tilbud.tsx&#45;&gt;components/TjenesteSelectorSheet.tsx -->
<g id="edge20" class="edge">
<title>app/(tabs)/tilbud.tsx&#45;&gt;components/TjenesteSelectorSheet.tsx</title>
<path fill="none" stroke="#757575" d="M114.94,-652.42C130.72,-764.91 251.55,-1624.85 260.5,-1634.34 263.12,-1637.11 265.95,-1639.63 268.96,-1641.92"/>
<polygon fill="#757575" stroke="#757575" points="266.89,-1644.75 277.18,-1647.27 270.71,-1638.88 266.89,-1644.75"/>
</g>
<!-- app/(tabs)/tilbud.tsx&#45;&gt;components/TopBar.tsx -->
<g id="edge22" class="edge">
<title>app/(tabs)/tilbud.tsx&#45;&gt;components/TopBar.tsx</title>
<path fill="none" stroke="#757575" d="M138.16,-652.7C166.96,-666.51 216.09,-688.58 260.5,-701.34 271.97,-704.63 284.2,-707.48 296.34,-709.91"/>
<polygon fill="#757575" stroke="#757575" points="295.48,-713.31 305.96,-711.75 296.79,-706.43 295.48,-713.31"/>
</g>
<!-- app/(tabs)/tilbud.tsx&#45;&gt;hooks/useNyttTilbudFlyt.ts -->
<g id="edge23" class="edge">
<title>app/(tabs)/tilbud.tsx&#45;&gt;hooks/useNyttTilbudFlyt.ts</title>
<path fill="none" stroke="#757575" d="M114.8,-652.41C128.38,-757.89 227.44,-1519.73 260.5,-1554.34 268.24,-1562.44 277.79,-1568.35 288.14,-1572.62"/>
<polygon fill="#757575" stroke="#757575" points="286.7,-1575.82 297.3,-1575.87 289.04,-1569.23 286.7,-1575.82"/>
</g>
<!-- app/(tabs)/tilbud.tsx&#45;&gt;lib/fabEmitter.ts -->
<g id="edge24" class="edge">
<title>app/(tabs)/tilbud.tsx&#45;&gt;lib/fabEmitter.ts</title>
<path fill="none" stroke="#757575" d="M113.19,-652.69C113.37,-722.23 121.47,-1070.09 260.5,-1301.34 336.27,-1427.37 419,-1402.42 512,-1516.34 532.88,-1541.92 522.05,-1560.91 548,-1581.34 641.27,-1654.78 693.29,-1613.59 805.5,-1652.34 939.31,-1698.54 1092.8,-1767.54 1161.41,-1799.26"/>
<polygon fill="#757575" stroke="#757575" points="1159.76,-1802.35 1170.31,-1803.39 1162.71,-1796 1159.76,-1802.35"/>
</g>
<!-- app/(tabs)/tilbud.tsx&#45;&gt;lib/firmaCache.ts -->
<g id="edge25" class="edge">
<title>app/(tabs)/tilbud.tsx&#45;&gt;lib/firmaCache.ts</title>
<path fill="none" stroke="#757575" d="M179.61,-633.5C280.59,-624.7 465.99,-615.32 512,-659.34 575.05,-719.66 489.75,-985.37 548,-1050.34 562.73,-1066.77 584.77,-1074.46 606.42,-1077.67"/>
<polygon fill="#757575" stroke="#757575" points="605.82,-1081.13 616.16,-1078.8 606.63,-1074.18 605.82,-1081.13"/>
</g>
<!-- app/(tabs)/tilbud.tsx&#45;&gt;lib/supabase.ts -->
<g id="edge27" class="edge">
<title>app/(tabs)/tilbud.tsx&#45;&gt;lib/supabase.ts</title>
<path fill="none" stroke="#757575" d="M135.36,-628.08C163.45,-613.23 213.9,-589.03 260.5,-579.34 379.08,-554.67 699.04,-516.59 805.5,-574.34 882.73,-616.23 924.16,-720.98 939.26,-767.48"/>
<polygon fill="#757575" stroke="#757575" points="935.84,-768.27 942.16,-776.78 942.52,-766.19 935.84,-768.27"/>
</g>
<!-- app/(tabs)/tilbud.tsx&#45;&gt;lib/tilbudTjenester.ts -->
<g id="edge30" class="edge">
<title>app/(tabs)/tilbud.tsx&#45;&gt;lib/tilbudTjenester.ts</title>
<path fill="none" stroke="#757575" d="M179.44,-650.07C217.96,-655.74 266.74,-662.91 307.13,-668.85"/>
<polygon fill="#757575" stroke="#757575" points="306.39,-672.28 316.79,-670.27 307.41,-665.35 306.39,-672.28"/>
</g>
<!-- app/(tabs)/tilbud.tsx&#45;&gt;types/index.ts -->
<g id="edge31" class="edge">
<title>app/(tabs)/tilbud.tsx&#45;&gt;types/index.ts</title>
<path fill="none" stroke="#757575" d="M113.14,-628.13C113.34,-569.94 122.39,-318.76 260.5,-201.34 327.62,-144.27 989.59,-102.66 1052.5,-164.34 1099.95,-210.86 1072.3,-696.89 1088.5,-761.34 1109.6,-845.25 1160.07,-935.83 1184.36,-976.45"/>
<polygon fill="#757575" stroke="#757575" points="1181.25,-978.07 1189.42,-984.81 1187.24,-974.45 1181.25,-978.07"/>
</g>
<!-- app/(tabs)/tilbud.tsx&#45;&gt;components/NotificationBadge.tsx -->
<g id="edge16" class="edge">
<title>app/(tabs)/tilbud.tsx&#45;&gt;components/NotificationBadge.tsx</title>
<path fill="none" stroke="#757575" d="M114.68,-628.12C123.51,-555.23 172.96,-178.81 260.5,-112.34 330.59,-59.12 984.29,-56.73 1052.5,-112.34 1114.05,-162.51 1071.18,-209.84 1088.5,-287.34 1125.47,-452.72 1175.16,-650.74 1192.01,-717.27"/>
<polygon fill="#757575" stroke="#757575" points="1188.54,-717.82 1194.39,-726.65 1195.33,-716.1 1188.54,-717.82"/>
</g>
<!-- components/TilbudDetaljerModal.tsx -->
<g id="node18" class="node">
<title>components/TilbudDetaljerModal.tsx</title>
<path fill="none" stroke="#c6c5fe" d="M496.21,-612.21C496.21,-612.21 276.29,-612.21 276.29,-612.21 272.33,-612.21 268.38,-608.25 268.38,-604.3 268.38,-604.3 268.38,-596.38 268.38,-596.38 268.38,-592.42 272.33,-588.46 276.29,-588.46 276.29,-588.46 496.21,-588.46 496.21,-588.46 500.17,-588.46 504.12,-592.42 504.12,-596.38 504.12,-596.38 504.12,-604.3 504.12,-604.3 504.12,-608.25 500.17,-612.21 496.21,-612.21"/>
<text xml:space="preserve" text-anchor="middle" x="386.25" y="-594.91" font-family="Arial" font-size="14.00" fill="#c6c5fe">components/TilbudDetaljerModal.tsx</text>
</g>
<!-- app/(tabs)/tilbud.tsx&#45;&gt;components/TilbudDetaljerModal.tsx -->
<g id="edge18" class="edge">
<title>app/(tabs)/tilbud.tsx&#45;&gt;components/TilbudDetaljerModal.tsx</title>
<path fill="none" stroke="#757575" d="M179.44,-630.6C212.65,-625.72 253.47,-619.72 289.98,-614.35"/>
<polygon fill="#757575" stroke="#757575" points="290.27,-617.84 299.66,-612.92 289.25,-610.92 290.27,-617.84"/>
</g>
<!-- components/TilbudKort.tsx -->
<g id="node19" class="node">
<title>components/TilbudKort.tsx</title>
<path fill="none" stroke="#c6c5fe" d="M466.58,-234.21C466.58,-234.21 305.92,-234.21 305.92,-234.21 301.96,-234.21 298,-230.25 298,-226.3 298,-226.3 298,-218.38 298,-218.38 298,-214.42 301.96,-210.46 305.92,-210.46 305.92,-210.46 466.58,-210.46 466.58,-210.46 470.54,-210.46 474.5,-214.42 474.5,-218.38 474.5,-218.38 474.5,-226.3 474.5,-226.3 474.5,-230.25 470.54,-234.21 466.58,-234.21"/>
<text xml:space="preserve" text-anchor="middle" x="386.25" y="-216.91" font-family="Arial" font-size="14.00" fill="#c6c5fe">components/TilbudKort.tsx</text>
</g>
<!-- app/(tabs)/tilbud.tsx&#45;&gt;components/TilbudKort.tsx -->
<g id="edge19" class="edge">
<title>app/(tabs)/tilbud.tsx&#45;&gt;components/TilbudKort.tsx</title>
<path fill="none" stroke="#757575" d="M114.51,-628.1C120.46,-576.7 150.18,-376.08 260.5,-268.34 274.37,-254.79 292.58,-245.18 310.77,-238.38"/>
<polygon fill="#757575" stroke="#757575" points="311.71,-241.76 320.02,-235.19 309.43,-235.14 311.71,-241.76"/>
</g>
<!-- app/(tabs)/tilbud.tsx&#45;&gt;components/Toast.tsx -->
<g id="edge21" class="edge">
<title>app/(tabs)/tilbud.tsx&#45;&gt;components/Toast.tsx</title>
<path fill="none" stroke="#757575" d="M114.92,-652.6C130.02,-763.09 242.67,-1583.55 260.5,-1601.34 340.52,-1681.19 424.41,-1567.87 512,-1639.34 547.95,-1668.67 516.54,-1703.23 548,-1737.34 566.31,-1757.19 592.64,-1770.9 616.64,-1780.07"/>
<polygon fill="#757575" stroke="#757575" points="615.45,-1783.36 626.04,-1783.46 617.82,-1776.78 615.45,-1783.36"/>
</g>
<!-- app/(tabs)/tilbud.tsx&#45;&gt;lib/notificationState.ts -->
<g id="edge26" class="edge">
<title>app/(tabs)/tilbud.tsx&#45;&gt;lib/notificationState.ts</title>
<path fill="none" stroke="#757575" d="M114.44,-628.2C122.11,-552.36 167.41,-144.44 260.5,-71.34 398.92,37.37 895.9,7.99 1052.5,-72.34 1124.71,-109.38 1170.62,-200.68 1188.88,-243.49"/>
<polygon fill="#757575" stroke="#757575" points="1185.57,-244.66 1192.62,-252.56 1192.04,-241.99 1185.57,-244.66"/>
</g>
<!-- lib/tilbudHendelserCache.ts -->
<g id="node22" class="node">
<title>lib/tilbudHendelserCache.ts</title>
<path fill="none" stroke="#c6c5fe" d="M758.96,-494.21C758.96,-494.21 594.54,-494.21 594.54,-494.21 590.58,-494.21 586.62,-490.25 586.62,-486.3 586.62,-486.3 586.62,-478.38 586.62,-478.38 586.62,-474.42 590.58,-470.46 594.54,-470.46 594.54,-470.46 758.96,-470.46 758.96,-470.46 762.92,-470.46 766.88,-474.42 766.88,-478.38 766.88,-478.38 766.88,-486.3 766.88,-486.3 766.88,-490.25 762.92,-494.21 758.96,-494.21"/>
<text xml:space="preserve" text-anchor="middle" x="676.75" y="-476.91" font-family="Arial" font-size="14.00" fill="#c6c5fe">lib/tilbudHendelserCache.ts</text>
</g>
<!-- app/(tabs)/tilbud.tsx&#45;&gt;lib/tilbudHendelserCache.ts -->
<g id="edge28" class="edge">
<title>app/(tabs)/tilbud.tsx&#45;&gt;lib/tilbudHendelserCache.ts</title>
<path fill="none" stroke="#757575" d="M127.61,-628.22C152.74,-607.72 207.15,-566.45 260.5,-546.34 363.38,-507.55 489.07,-492.25 575.04,-486.23"/>
<polygon fill="#757575" stroke="#757575" points="575.12,-489.73 584.86,-485.57 574.65,-482.75 575.12,-489.73"/>
</g>
<!-- app/(tabs)/tilbud.tsx&#45;&gt;lib/tilbudPris.ts -->
<g id="edge29" class="edge">
<title>app/(tabs)/tilbud.tsx&#45;&gt;lib/tilbudPris.ts</title>
<path fill="none" stroke="#757575" d="M122.55,-628.19C164.44,-574.7 342.45,-360.12 548,-298.34 662.48,-263.93 803.98,-277.39 883.71,-289.74"/>
<polygon fill="#757575" stroke="#757575" points="883.09,-293.19 893.52,-291.31 884.2,-286.28 883.09,-293.19"/>
</g>
<!-- components/TilbudDetaljerModal.tsx&#45;&gt;lib/supabase.ts -->
<g id="edge88" class="edge">
<title>components/TilbudDetaljerModal.tsx&#45;&gt;lib/supabase.ts</title>
<path fill="none" stroke="#757575" d="M455.53,-587.99C541.97,-575.8 693.14,-566.19 805.5,-622.34 869.58,-654.36 915.44,-730.24 935.19,-768.08"/>
<polygon fill="#757575" stroke="#757575" points="931.94,-769.41 939.58,-776.75 938.18,-766.24 931.94,-769.41"/>
</g>
<!-- components/TilbudDetaljerModal.tsx&#45;&gt;types/index.ts -->
<g id="edge92" class="edge">
<title>components/TilbudDetaljerModal.tsx&#45;&gt;types/index.ts</title>
<path fill="none" stroke="#757575" d="M426.67,-588.02C502.49,-566.45 672.85,-528.29 805.5,-574.34 1010.5,-645.5 1149.25,-899.23 1187.31,-976.11"/>
<polygon fill="#757575" stroke="#757575" points="1184,-977.3 1191.53,-984.76 1190.29,-974.24 1184,-977.3"/>
</g>
<!-- components/TilbudDetaljerModal.tsx&#45;&gt;lib/tilbudHendelserCache.ts -->
<g id="edge90" class="edge">
<title>components/TilbudDetaljerModal.tsx&#45;&gt;lib/tilbudHendelserCache.ts</title>
<path fill="none" stroke="#757575" d="M404.18,-588.19C432.53,-568.44 492.03,-529.42 548,-508.34 559.55,-503.99 571.97,-500.31 584.38,-497.22"/>
<polygon fill="#757575" stroke="#757575" points="584.85,-500.7 593.78,-495 583.24,-493.89 584.85,-500.7"/>
</g>
<!-- components/TilbudDetaljerModal.tsx&#45;&gt;lib/tilbudPris.ts -->
<g id="edge91" class="edge">
<title>components/TilbudDetaljerModal.tsx&#45;&gt;lib/tilbudPris.ts</title>
<path fill="none" stroke="#757575" d="M390.56,-587.96C402.85,-544.8 450.2,-400.24 548,-339.34 602.5,-305.4 786.04,-300.67 883.68,-300.65"/>
<polygon fill="#757575" stroke="#757575" points="883.63,-304.15 893.64,-300.67 883.65,-297.15 883.63,-304.15"/>
</g>
<!-- lib/paminnelseInnstillinger.ts -->
<g id="node35" class="node">
<title>lib/paminnelseInnstillinger.ts</title>
<path fill="none" stroke="#cfffac" d="M761.21,-1454.21C761.21,-1454.21 592.29,-1454.21 592.29,-1454.21 588.33,-1454.21 584.38,-1450.25 584.38,-1446.3 584.38,-1446.3 584.38,-1438.38 584.38,-1438.38 584.38,-1434.42 588.33,-1430.46 592.29,-1430.46 592.29,-1430.46 761.21,-1430.46 761.21,-1430.46 765.17,-1430.46 769.12,-1434.42 769.12,-1438.38 769.12,-1438.38 769.12,-1446.3 769.12,-1446.3 769.12,-1450.25 765.17,-1454.21 761.21,-1454.21"/>
<text xml:space="preserve" text-anchor="middle" x="676.75" y="-1436.91" font-family="Arial" font-size="14.00" fill="#cfffac">lib/paminnelseInnstillinger.ts</text>
</g>
<!-- components/TilbudDetaljerModal.tsx&#45;&gt;lib/paminnelseInnstillinger.ts -->
<g id="edge86" class="edge">
<title>components/TilbudDetaljerModal.tsx&#45;&gt;lib/paminnelseInnstillinger.ts</title>
<path fill="none" stroke="#757575" d="M442.9,-612.69C468.32,-621.34 496.22,-635.74 512,-659.34 601.54,-793.25 457.85,-1249.83 548,-1383.34 561.81,-1403.79 584.61,-1417.28 607.15,-1426.13"/>
<polygon fill="#757575" stroke="#757575" points="605.79,-1429.36 616.39,-1429.48 608.18,-1422.78 605.79,-1429.36"/>
</g>
<!-- components/TilbudDetaljerModal.tsx&#45;&gt;components/TilbudsForhåndsvisning.tsx -->
<g id="edge84" class="edge">
<title>components/TilbudDetaljerModal.tsx&#45;&gt;components/TilbudsForhåndsvisning.tsx</title>
<path fill="none" stroke="#757575" d="M442.43,-612.68C467.9,-621.35 495.98,-635.75 512,-659.34 582.06,-762.5 464.28,-1126.92 548,-1219.34 548.37,-1219.74 548.74,-1220.14 549.12,-1220.54"/>
<polygon fill="#757575" stroke="#757575" points="546.68,-1223.05 556.51,-1227 551.29,-1217.79 546.68,-1223.05"/>
</g>
<!-- components/TilbudDetaljerModal.tsx&#45;&gt;lib/openai.ts -->
<g id="edge85" class="edge">
<title>components/TilbudDetaljerModal.tsx&#45;&gt;lib/openai.ts</title>
<path fill="none" stroke="#757575" d="M441.93,-612.69C467.44,-621.38 495.7,-635.8 512,-659.34 567.59,-739.64 492.05,-1017.29 548,-1097.34 565.1,-1121.8 594.97,-1136.35 621.53,-1144.88"/>
<polygon fill="#757575" stroke="#757575" points="620.25,-1148.15 630.83,-1147.64 622.24,-1141.44 620.25,-1148.15"/>
</g>
<!-- components/TilbudDetaljerModal.tsx&#45;&gt;lib/resend.ts -->
<g id="edge87" class="edge">
<title>components/TilbudDetaljerModal.tsx&#45;&gt;lib/resend.ts</title>
<path fill="none" stroke="#757575" d="M442.06,-612.61C467.6,-621.27 495.85,-635.7 512,-659.34 577.08,-754.62 470.31,-1092.02 548,-1177.34 566.06,-1197.17 595.04,-1203.08 620.84,-1203.73"/>
<polygon fill="#757575" stroke="#757575" points="620.53,-1207.23 630.53,-1203.71 620.52,-1200.23 620.53,-1207.23"/>
</g>
<!-- components/TilbudDetaljerModal.tsx&#45;&gt;utils/tilbudStatus.ts -->
<g id="edge93" class="edge">
<title>components/TilbudDetaljerModal.tsx&#45;&gt;utils/tilbudStatus.ts</title>
<path fill="none" stroke="#757575" d="M392.48,-588.21C409.13,-551.19 464.73,-438.97 548,-386.34 563.76,-376.37 582.62,-370.13 600.93,-366.24"/>
<polygon fill="#757575" stroke="#757575" points="601.57,-369.69 610.75,-364.4 600.28,-362.81 601.57,-369.69"/>
</g>
<!-- components/TilbudDetaljerModal.tsx&#45;&gt;lib/tekstUtils.ts -->
<g id="edge89" class="edge">
<title>components/TilbudDetaljerModal.tsx&#45;&gt;lib/tekstUtils.ts</title>
<path fill="none" stroke="#757575" d="M500.61,-612.63C504.73,-615.41 508.56,-618.63 512,-622.34 566.26,-680.77 497.11,-917.95 548,-979.34 624.15,-1071.2 707.3,-987.56 805.5,-1055.34 868.34,-1098.71 915.07,-1179.1 935.16,-1218.05"/>
<polygon fill="#757575" stroke="#757575" points="932.01,-1219.58 939.63,-1226.94 938.26,-1216.43 932.01,-1219.58"/>
</g>
<!-- components/TilbudKort.tsx&#45;&gt;types/index.ts -->
<g id="edge95" class="edge">
<title>components/TilbudKort.tsx&#45;&gt;types/index.ts</title>
<path fill="none" stroke="#757575" d="M424.87,-210.05C542.02,-174.38 901.5,-85.31 1052.5,-280.34 1118.12,-365.09 1061.61,-657.58 1088.5,-761.34 1110.2,-845.1 1160.38,-935.75 1184.48,-976.42"/>
<polygon fill="#757575" stroke="#757575" points="1181.35,-978.02 1189.5,-984.79 1187.35,-974.42 1181.35,-978.02"/>
</g>
<!-- components/TilbudKort.tsx&#45;&gt;lib/tilbudPris.ts -->
<g id="edge94" class="edge">
<title>components/TilbudKort.tsx&#45;&gt;lib/tilbudPris.ts</title>
<path fill="none" stroke="#757575" d="M467.83,-210C553.23,-199.71 691.26,-191.09 805.5,-221.34 849.97,-233.11 895.08,-262.59 921.79,-282.29"/>
<polygon fill="#757575" stroke="#757575" points="919.46,-284.91 929.55,-288.14 923.67,-279.32 919.46,-284.91"/>
</g>
<!-- components/TilbudKort.tsx&#45;&gt;utils/tilbudStatus.ts -->
<g id="edge96" class="edge">
<title>components/TilbudKort.tsx&#45;&gt;utils/tilbudStatus.ts</title>
<path fill="none" stroke="#757575" d="M413.11,-234.71C464.8,-259.43 580.97,-315 639.94,-343.21"/>
<polygon fill="#757575" stroke="#757575" points="638.36,-346.33 648.9,-347.49 641.39,-340.02 638.36,-346.33"/>
</g>
<!-- components/Toast.tsx&#45;&gt;components/FloatingTabBar.tsx -->
<g id="edge99" class="edge">
<title>components/Toast.tsx&#45;&gt;components/FloatingTabBar.tsx</title>
<path fill="none" stroke="#757575" d="M750.7,-1801.78C775.99,-1803.66 804.98,-1805.82 832.75,-1807.89"/>
<polygon fill="#757575" stroke="#757575" points="832.4,-1811.38 842.63,-1808.63 832.92,-1804.4 832.4,-1811.38"/>
</g>
<!-- lib/tilbudHendelserCache.ts&#45;&gt;lib/supabase.ts -->
<g id="edge113" class="edge">
<title>lib/tilbudHendelserCache.ts&#45;&gt;lib/supabase.ts</title>
<path fill="none" stroke="#757575" d="M715.66,-494.62C743.12,-505 779.79,-522.08 805.5,-546.34 875.31,-612.21 920.69,-720.58 938.04,-767.5"/>
<polygon fill="#757575" stroke="#757575" points="934.65,-768.41 941.34,-776.62 941.23,-766.03 934.65,-768.41"/>
</g>
<!-- lib/tilbudHendelserCache.ts&#45;&gt;types/index.ts -->
<g id="edge114" class="edge">
<title>lib/tilbudHendelserCache.ts&#45;&gt;types/index.ts</title>
<path fill="none" stroke="#757575" d="M767.24,-476.15C864.86,-471.48 1012.57,-471.19 1052.5,-508.34 1094.08,-547.02 1072.43,-706.87 1088.5,-761.34 1112.93,-844.15 1161.58,-934.98 1184.87,-976.01"/>
<polygon fill="#757575" stroke="#757575" points="1181.83,-977.75 1189.84,-984.69 1187.9,-974.27 1181.83,-977.75"/>
</g>
<!-- app/_layout.tsx -->
<g id="node24" class="node">
<title>app/_layout.tsx</title>
<path fill="none" stroke="#c6c5fe" d="M722.21,-802.21C722.21,-802.21 631.29,-802.21 631.29,-802.21 627.33,-802.21 623.38,-798.25 623.38,-794.3 623.38,-794.3 623.38,-786.38 623.38,-786.38 623.38,-782.42 627.33,-778.46 631.29,-778.46 631.29,-778.46 722.21,-778.46 722.21,-778.46 726.17,-778.46 730.12,-782.42 730.12,-786.38 730.12,-786.38 730.12,-794.3 730.12,-794.3 730.12,-798.25 726.17,-802.21 722.21,-802.21"/>
<text xml:space="preserve" text-anchor="middle" x="676.75" y="-784.91" font-family="Arial" font-size="14.00" fill="#c6c5fe">app/_layout.tsx</text>
</g>
<!-- app/_layout.tsx&#45;&gt;lib/supabase.ts -->
<g id="edge33" class="edge">
<title>app/_layout.tsx&#45;&gt;lib/supabase.ts</title>
<path fill="none" stroke="#757575" d="M730.43,-790.34C774.03,-790.34 836.12,-790.34 882.47,-790.34"/>
<polygon fill="#757575" stroke="#757575" points="882.39,-793.84 892.39,-790.34 882.39,-786.84 882.39,-793.84"/>
</g>
<!-- lib/auth.ts -->
<g id="node25" class="node">
<title>lib/auth.ts</title>
<path fill="none" stroke="#cfffac" d="M975.96,-886.21C975.96,-886.21 918.04,-886.21 918.04,-886.21 914.08,-886.21 910.12,-882.25 910.12,-878.3 910.12,-878.3 910.12,-870.38 910.12,-870.38 910.12,-866.42 914.08,-862.46 918.04,-862.46 918.04,-862.46 975.96,-862.46 975.96,-862.46 979.92,-862.46 983.88,-866.42 983.88,-870.38 983.88,-870.38 983.88,-878.3 983.88,-878.3 983.88,-882.25 979.92,-886.21 975.96,-886.21"/>
<text xml:space="preserve" text-anchor="middle" x="947" y="-868.91" font-family="Arial" font-size="14.00" fill="#cfffac">lib/auth.ts</text>
</g>
<!-- app/_layout.tsx&#45;&gt;lib/auth.ts -->
<g id="edge32" class="edge">
<title>app/_layout.tsx&#45;&gt;lib/auth.ts</title>
<path fill="none" stroke="#757575" d="M730.35,-795.87C753.68,-799.12 781.29,-804.05 805.5,-811.34 843.86,-822.88 885.46,-842.5 913.35,-856.78"/>
<polygon fill="#757575" stroke="#757575" points="911.51,-859.76 921.99,-861.27 914.73,-853.55 911.51,-859.76"/>
</g>
<!-- app/auth/_layout.tsx -->
<g id="node26" class="node">
<title>app/auth/_layout.tsx</title>
<path fill="none" stroke="#cfffac" d="M172.71,-1948.21C172.71,-1948.21 51.79,-1948.21 51.79,-1948.21 47.83,-1948.21 43.88,-1944.25 43.88,-1940.3 43.88,-1940.3 43.88,-1932.38 43.88,-1932.38 43.88,-1928.42 47.83,-1924.46 51.79,-1924.46 51.79,-1924.46 172.71,-1924.46 172.71,-1924.46 176.67,-1924.46 180.62,-1928.42 180.62,-1932.38 180.62,-1932.38 180.62,-1940.3 180.62,-1940.3 180.62,-1944.25 176.67,-1948.21 172.71,-1948.21"/>
<text xml:space="preserve" text-anchor="middle" x="112.25" y="-1930.91" font-family="Arial" font-size="14.00" fill="#cfffac">app/auth/_layout.tsx</text>
</g>
<!-- app/auth/forgot&#45;password.tsx -->
<g id="node27" class="node">
<title>app/auth/forgot&#45;password.tsx</title>
<path fill="none" stroke="#c6c5fe" d="M763.83,-970.21C763.83,-970.21 589.67,-970.21 589.67,-970.21 585.71,-970.21 581.75,-966.25 581.75,-962.3 581.75,-962.3 581.75,-954.38 581.75,-954.38 581.75,-950.42 585.71,-946.46 589.67,-946.46 589.67,-946.46 763.83,-946.46 763.83,-946.46 767.79,-946.46 771.75,-950.42 771.75,-954.38 771.75,-954.38 771.75,-962.3 771.75,-962.3 771.75,-966.25 767.79,-970.21 763.83,-970.21"/>
<text xml:space="preserve" text-anchor="middle" x="676.75" y="-952.91" font-family="Arial" font-size="14.00" fill="#c6c5fe">app/auth/forgot&#45;password.tsx</text>
</g>
<!-- app/auth/forgot&#45;password.tsx&#45;&gt;lib/supabase.ts -->
<g id="edge36" class="edge">
<title>app/auth/forgot&#45;password.tsx&#45;&gt;lib/supabase.ts</title>
<path fill="none" stroke="#757575" d="M772.02,-954.03C784.11,-950.37 795.68,-945.03 805.5,-937.34 837.48,-912.29 814.82,-883.97 841.5,-853.34 858.84,-833.43 884.06,-817.98 905.38,-807.36"/>
<polygon fill="#757575" stroke="#757575" points="906.6,-810.65 914.11,-803.19 903.58,-804.34 906.6,-810.65"/>
</g>
<!-- app/auth/forgot&#45;password.tsx&#45;&gt;lib/auth.ts -->
<g id="edge35" class="edge">
<title>app/auth/forgot&#45;password.tsx&#45;&gt;lib/auth.ts</title>
<path fill="none" stroke="#757575" d="M772.09,-950.59C783.78,-947.42 795.22,-943.12 805.5,-937.34 826.93,-925.28 820.29,-907.77 841.5,-895.34 858.69,-885.26 879.9,-879.95 898.71,-877.17"/>
<polygon fill="#757575" stroke="#757575" points="899.07,-880.65 908.56,-875.94 898.2,-873.71 899.07,-880.65"/>
</g>
<!-- constants/colors.ts -->
<g id="node28" class="node">
<title>constants/colors.ts</title>
<path fill="none" stroke="#cfffac" d="M1002.96,-928.21C1002.96,-928.21 891.04,-928.21 891.04,-928.21 887.08,-928.21 883.12,-924.25 883.12,-920.3 883.12,-920.3 883.12,-912.38 883.12,-912.38 883.12,-908.42 887.08,-904.46 891.04,-904.46 891.04,-904.46 1002.96,-904.46 1002.96,-904.46 1006.92,-904.46 1010.88,-908.42 1010.88,-912.38 1010.88,-912.38 1010.88,-920.3 1010.88,-920.3 1010.88,-924.25 1006.92,-928.21 1002.96,-928.21"/>
<text xml:space="preserve" text-anchor="middle" x="947" y="-910.91" font-family="Arial" font-size="14.00" fill="#cfffac">constants/colors.ts</text>
</g>
<!-- app/auth/forgot&#45;password.tsx&#45;&gt;constants/colors.ts -->
<g id="edge34" class="edge">
<title>app/auth/forgot&#45;password.tsx&#45;&gt;constants/colors.ts</title>
<path fill="none" stroke="#757575" d="M756.78,-945.96C793.04,-940.29 835.8,-933.59 871.49,-928"/>
<polygon fill="#757575" stroke="#757575" points="871.98,-931.47 881.32,-926.47 870.89,-924.55 871.98,-931.47"/>
</g>
<!-- app/auth/login.tsx -->
<g id="node29" class="node">
<title>app/auth/login.tsx</title>
<path fill="none" stroke="#c6c5fe" d="M729.71,-928.21C729.71,-928.21 623.79,-928.21 623.79,-928.21 619.83,-928.21 615.88,-924.25 615.88,-920.3 615.88,-920.3 615.88,-912.38 615.88,-912.38 615.88,-908.42 619.83,-904.46 623.79,-904.46 623.79,-904.46 729.71,-904.46 729.71,-904.46 733.67,-904.46 737.62,-908.42 737.62,-912.38 737.62,-912.38 737.62,-920.3 737.62,-920.3 737.62,-924.25 733.67,-928.21 729.71,-928.21"/>
<text xml:space="preserve" text-anchor="middle" x="676.75" y="-910.91" font-family="Arial" font-size="14.00" fill="#c6c5fe">app/auth/login.tsx</text>
</g>
<!-- app/auth/login.tsx&#45;&gt;lib/supabase.ts -->
<g id="edge39" class="edge">
<title>app/auth/login.tsx&#45;&gt;lib/supabase.ts</title>
<path fill="none" stroke="#757575" d="M737.83,-915.04C760.22,-912.42 785.13,-906.8 805.5,-895.34 826.93,-883.28 822.73,-869.22 841.5,-853.34 862.76,-835.34 889.75,-819.21 910.97,-807.78"/>
<polygon fill="#757575" stroke="#757575" points="912.33,-811.02 919.54,-803.26 909.06,-804.83 912.33,-811.02"/>
</g>
<!-- app/auth/login.tsx&#45;&gt;lib/auth.ts -->
<g id="edge38" class="edge">
<title>app/auth/login.tsx&#45;&gt;lib/auth.ts</title>
<path fill="none" stroke="#757575" d="M737.95,-906.91C786.55,-899.3 853.98,-888.75 898.75,-881.74"/>
<polygon fill="#757575" stroke="#757575" points="899.06,-885.23 908.4,-880.22 897.98,-878.31 899.06,-885.23"/>
</g>
<!-- app/auth/login.tsx&#45;&gt;constants/colors.ts -->
<g id="edge37" class="edge">
<title>app/auth/login.tsx&#45;&gt;constants/colors.ts</title>
<path fill="none" stroke="#757575" d="M737.95,-916.34C777.43,-916.34 829.33,-916.34 871.42,-916.34"/>
<polygon fill="#757575" stroke="#757575" points="871.22,-919.84 881.22,-916.34 871.22,-912.84 871.22,-919.84"/>
</g>
<!-- app/auth/register.tsx -->
<g id="node30" class="node">
<title>app/auth/register.tsx</title>
<path fill="none" stroke="#c6c5fe" d="M737.58,-886.21C737.58,-886.21 615.92,-886.21 615.92,-886.21 611.96,-886.21 608,-882.25 608,-878.3 608,-878.3 608,-870.38 608,-870.38 608,-866.42 611.96,-862.46 615.92,-862.46 615.92,-862.46 737.58,-862.46 737.58,-862.46 741.54,-862.46 745.5,-866.42 745.5,-870.38 745.5,-870.38 745.5,-878.3 745.5,-878.3 745.5,-882.25 741.54,-886.21 737.58,-886.21"/>
<text xml:space="preserve" text-anchor="middle" x="676.75" y="-868.91" font-family="Arial" font-size="14.00" fill="#c6c5fe">app/auth/register.tsx</text>
</g>
<!-- app/auth/register.tsx&#45;&gt;lib/supabase.ts -->
<g id="edge42" class="edge">
<title>app/auth/register.tsx&#45;&gt;lib/supabase.ts</title>
<path fill="none" stroke="#757575" d="M745.79,-866.49C765.31,-863.35 786.45,-859.07 805.5,-853.34 843.86,-841.8 885.46,-822.18 913.35,-807.9"/>
<polygon fill="#757575" stroke="#757575" points="914.73,-811.12 921.99,-803.41 911.51,-804.91 914.73,-811.12"/>
</g>
<!-- app/auth/register.tsx&#45;&gt;lib/auth.ts -->
<g id="edge41" class="edge">
<title>app/auth/register.tsx&#45;&gt;lib/auth.ts</title>
<path fill="none" stroke="#757575" d="M745.79,-874.34C793.46,-874.34 855.98,-874.34 898.38,-874.34"/>
<polygon fill="#757575" stroke="#757575" points="898.27,-877.84 908.27,-874.34 898.27,-870.84 898.27,-877.84"/>
</g>
<!-- app/auth/register.tsx&#45;&gt;constants/colors.ts -->
<g id="edge40" class="edge">
<title>app/auth/register.tsx&#45;&gt;constants/colors.ts</title>
<path fill="none" stroke="#757575" d="M745.79,-884.99C784.15,-891 832.14,-898.51 871.52,-904.68"/>
<polygon fill="#757575" stroke="#757575" points="870.73,-908.09 881.15,-906.18 871.81,-901.18 870.73,-908.09"/>
</g>
<!-- app/auth/reset&#45;password.tsx -->
<g id="node31" class="node">
<title>app/auth/reset&#45;password.tsx</title>
<path fill="none" stroke="#c6c5fe" d="M761.58,-844.21C761.58,-844.21 591.92,-844.21 591.92,-844.21 587.96,-844.21 584,-840.25 584,-836.3 584,-836.3 584,-828.38 584,-828.38 584,-824.42 587.96,-820.46 591.92,-820.46 591.92,-820.46 761.58,-820.46 761.58,-820.46 765.54,-820.46 769.5,-824.42 769.5,-828.38 769.5,-828.38 769.5,-836.3 769.5,-836.3 769.5,-840.25 765.54,-844.21 761.58,-844.21"/>
<text xml:space="preserve" text-anchor="middle" x="676.75" y="-826.91" font-family="Arial" font-size="14.00" fill="#c6c5fe">app/auth/reset&#45;password.tsx</text>
</g>
<!-- app/auth/reset&#45;password.tsx&#45;&gt;lib/supabase.ts -->
<g id="edge45" class="edge">
<title>app/auth/reset&#45;password.tsx&#45;&gt;lib/supabase.ts</title>
<path fill="none" stroke="#757575" d="M756.78,-819.96C796.84,-813.69 844.83,-806.18 882.46,-800.29"/>
<polygon fill="#757575" stroke="#757575" points="882.95,-803.75 892.29,-798.75 881.87,-796.84 882.95,-803.75"/>
</g>
<!-- app/auth/reset&#45;password.tsx&#45;&gt;lib/auth.ts -->
<g id="edge44" class="edge">
<title>app/auth/reset&#45;password.tsx&#45;&gt;lib/auth.ts</title>
<path fill="none" stroke="#757575" d="M756.78,-844.71C802.82,-851.92 859.34,-860.77 898.56,-866.91"/>
<polygon fill="#757575" stroke="#757575" points="897.98,-870.36 908.4,-868.45 899.06,-863.45 897.98,-870.36"/>
</g>
<!-- app/auth/reset&#45;password.tsx&#45;&gt;constants/colors.ts -->
<g id="edge43" class="edge">
<title>app/auth/reset&#45;password.tsx&#45;&gt;constants/colors.ts</title>
<path fill="none" stroke="#757575" d="M769.75,-839.46C782.25,-842.69 794.53,-847.16 805.5,-853.34 826.93,-865.39 820.29,-882.9 841.5,-895.34 850.74,-900.76 861.15,-904.8 871.72,-907.81"/>
<polygon fill="#757575" stroke="#757575" points="870.73,-911.17 881.28,-910.22 872.44,-904.38 870.73,-911.17"/>
</g>
<!-- app/bedrift.tsx -->
<g id="node32" class="node">
<title>app/bedrift.tsx</title>
<path fill="none" stroke="#c6c5fe" d="M154.71,-1906.21C154.71,-1906.21 69.79,-1906.21 69.79,-1906.21 65.83,-1906.21 61.88,-1902.25 61.88,-1898.3 61.88,-1898.3 61.88,-1890.38 61.88,-1890.38 61.88,-1886.42 65.83,-1882.46 69.79,-1882.46 69.79,-1882.46 154.71,-1882.46 154.71,-1882.46 158.67,-1882.46 162.62,-1886.42 162.62,-1890.38 162.62,-1890.38 162.62,-1898.3 162.62,-1898.3 162.62,-1902.25 158.67,-1906.21 154.71,-1906.21"/>
<text xml:space="preserve" text-anchor="middle" x="112.25" y="-1888.91" font-family="Arial" font-size="14.00" fill="#c6c5fe">app/bedrift.tsx</text>
</g>
<!-- app/bedrift.tsx&#45;&gt;components/AppBackground.tsx -->
<g id="edge46" class="edge">
<title>app/bedrift.tsx&#45;&gt;components/AppBackground.tsx</title>
<path fill="none" stroke="#757575" d="M163.03,-1894.41C183.73,-1896.66 206.98,-1902.34 224.5,-1915.34 252.28,-1935.95 233.09,-1963.24 260.5,-1984.34 364.3,-2064.26 417.81,-2034.8 548,-2049.34 661.74,-2062.03 691.34,-2057.42 805.5,-2049.34 823.82,-2048.04 843.38,-2045.8 861.91,-2043.28"/>
<polygon fill="#757575" stroke="#757575" points="862.37,-2046.75 871.79,-2041.89 861.4,-2039.82 862.37,-2046.75"/>
</g>
<!-- app/bedrift.tsx&#45;&gt;components/FloatingTabBar.tsx -->
<g id="edge47" class="edge">
<title>app/bedrift.tsx&#45;&gt;components/FloatingTabBar.tsx</title>
<path fill="none" stroke="#757575" d="M162.72,-1902.51C278,-1919.72 572.44,-1953.04 805.5,-1888.34 847.18,-1876.77 890.88,-1852.09 918.25,-1834.87"/>
<polygon fill="#757575" stroke="#757575" points="920.11,-1837.84 926.64,-1829.5 916.33,-1831.95 920.11,-1837.84"/>
</g>
<!-- app/bedrift.tsx&#45;&gt;components/ToastMessage.tsx -->
<g id="edge49" class="edge">
<title>app/bedrift.tsx&#45;&gt;components/ToastMessage.tsx</title>
<path fill="none" stroke="#757575" d="M135.05,-1882C183.11,-1854.78 298.34,-1789.55 354.05,-1758.01"/>
<polygon fill="#757575" stroke="#757575" points="355.43,-1761.24 362.41,-1753.27 351.98,-1755.15 355.43,-1761.24"/>
</g>
<!-- app/bedrift.tsx&#45;&gt;lib/firmaCache.ts -->
<g id="edge51" class="edge">
<title>app/bedrift.tsx&#45;&gt;lib/firmaCache.ts</title>
<path fill="none" stroke="#757575" d="M117.08,-1882.08C132.89,-1831.08 193.6,-1630.45 224.5,-1461.34 237.6,-1389.64 209.77,-1187.67 260.5,-1135.34 284.2,-1110.88 495.01,-1090.66 606.81,-1081.55"/>
<polygon fill="#757575" stroke="#757575" points="606.77,-1085.06 616.46,-1080.77 606.21,-1078.08 606.77,-1085.06"/>
</g>
<!-- app/bedrift.tsx&#45;&gt;lib/supabase.ts -->
<g id="edge53" class="edge">
<title>app/bedrift.tsx&#45;&gt;lib/supabase.ts</title>
<path fill="none" stroke="#757575" d="M117.15,-1882.09C133.21,-1831.14 194.81,-1630.67 224.5,-1461.34 253.42,-1296.42 196.68,-1241.13 260.5,-1086.34 327.73,-923.27 419.46,-929.5 512,-779.34 532.67,-745.8 514.97,-719.8 548,-698.34 643.96,-635.98 695.83,-665.63 805.5,-698.34 852.74,-712.43 898.86,-748.03 924.74,-770.59"/>
<polygon fill="#757575" stroke="#757575" points="922.09,-772.92 931.89,-776.96 926.75,-767.69 922.09,-772.92"/>
</g>
<!-- app/bedrift.tsx&#45;&gt;types/index.ts -->
<g id="edge54" class="edge">
<title>app/bedrift.tsx&#45;&gt;types/index.ts</title>
<path fill="none" stroke="#757575" d="M163.09,-1900.49C182.59,-1903.73 204.92,-1908.5 224.5,-1915.34 241.58,-1921.3 242.94,-1929.99 260.5,-1934.34 432.61,-1976.97 943.43,-1977.14 1052.5,-1837.34 1115.3,-1756.84 1070.32,-1479.8 1088.5,-1379.34 1113.6,-1240.59 1168.58,-1079.89 1189.54,-1021.25"/>
<polygon fill="#757575" stroke="#757575" points="1192.76,-1022.64 1192.85,-1012.04 1186.17,-1020.27 1192.76,-1022.64"/>
</g>
<!-- components/Onboarding.tsx -->
<g id="node33" class="node">
<title>components/Onboarding.tsx</title>
<path fill="none" stroke="#c6c5fe" d="M761.96,-2120.21C761.96,-2120.21 591.54,-2120.21 591.54,-2120.21 587.58,-2120.21 583.62,-2116.25 583.62,-2112.3 583.62,-2112.3 583.62,-2104.38 583.62,-2104.38 583.62,-2100.42 587.58,-2096.46 591.54,-2096.46 591.54,-2096.46 761.96,-2096.46 761.96,-2096.46 765.92,-2096.46 769.88,-2100.42 769.88,-2104.38 769.88,-2104.38 769.88,-2112.3 769.88,-2112.3 769.88,-2116.25 765.92,-2120.21 761.96,-2120.21"/>
<text xml:space="preserve" text-anchor="middle" x="676.75" y="-2102.91" font-family="Arial" font-size="14.00" fill="#c6c5fe">components/Onboarding.tsx</text>
</g>
<!-- app/bedrift.tsx&#45;&gt;components/Onboarding.tsx -->
<g id="edge48" class="edge">
<title>app/bedrift.tsx&#45;&gt;components/Onboarding.tsx</title>
<path fill="none" stroke="#757575" d="M162.87,-1892.1C184.43,-1893.77 208.38,-1899.63 224.5,-1915.34 278.88,-1968.33 202.94,-2032.82 260.5,-2082.34 362.13,-2169.78 534.69,-2144.09 621.89,-2123.35"/>
<polygon fill="#757575" stroke="#757575" points="622.5,-2126.81 631.38,-2121.03 620.83,-2120.01 622.5,-2126.81"/>
</g>
<!-- constants/tjenester.ts -->
<g id="node34" class="node">
<title>constants/tjenester.ts</title>
<path fill="none" stroke="#cfffac" d="M1010.46,-1572.21C1010.46,-1572.21 883.54,-1572.21 883.54,-1572.21 879.58,-1572.21 875.62,-1568.25 875.62,-1564.3 875.62,-1564.3 875.62,-1556.38 875.62,-1556.38 875.62,-1552.42 879.58,-1548.46 883.54,-1548.46 883.54,-1548.46 1010.46,-1548.46 1010.46,-1548.46 1014.42,-1548.46 1018.38,-1552.42 1018.38,-1556.38 1018.38,-1556.38 1018.38,-1564.3 1018.38,-1564.3 1018.38,-1568.25 1014.42,-1572.21 1010.46,-1572.21"/>
<text xml:space="preserve" text-anchor="middle" x="947" y="-1554.91" font-family="Arial" font-size="14.00" fill="#cfffac">constants/tjenester.ts</text>
</g>
<!-- app/bedrift.tsx&#45;&gt;constants/tjenester.ts -->
<g id="edge50" class="edge">
<title>app/bedrift.tsx&#45;&gt;constants/tjenester.ts</title>
<path fill="none" stroke="#757575" d="M163.06,-1894.62C303.67,-1894.53 700.29,-1887.88 805.5,-1817.34 890.15,-1760.58 928.38,-1635.16 940.98,-1583.38"/>
<polygon fill="#757575" stroke="#757575" points="944.33,-1584.43 943.19,-1573.9 937.51,-1582.85 944.33,-1584.43"/>
</g>
<!-- app/bedrift.tsx&#45;&gt;lib/paminnelseInnstillinger.ts -->
<g id="edge52" class="edge">
<title>app/bedrift.tsx&#45;&gt;lib/paminnelseInnstillinger.ts</title>
<path fill="none" stroke="#757575" d="M162.9,-1884.44C259.2,-1864.21 465.96,-1815.47 512,-1761.34 576.76,-1685.2 496.52,-1625.02 548,-1539.34 569.55,-1503.47 609.83,-1476.28 639.41,-1459.95"/>
<polygon fill="#757575" stroke="#757575" points="640.87,-1463.14 648.05,-1455.34 637.58,-1456.96 640.87,-1463.14"/>
</g>
<!-- components/Onboarding.tsx&#45;&gt;components/AppBackground.tsx -->
<g id="edge78" class="edge">
<title>components/Onboarding.tsx&#45;&gt;components/AppBackground.tsx</title>
<path fill="none" stroke="#757575" d="M764.94,-2095.99C778.83,-2092.5 792.8,-2088.04 805.5,-2082.34 823.74,-2074.14 823.44,-2063.92 841.5,-2055.34 850,-2051.3 859.19,-2047.84 868.48,-2044.9"/>
<polygon fill="#757575" stroke="#757575" points="869.34,-2048.29 877.93,-2042.1 867.35,-2041.58 869.34,-2048.29"/>
</g>
<!-- components/Onboarding.tsx&#45;&gt;lib/supabase.ts -->
<g id="edge80" class="edge">
<title>components/Onboarding.tsx&#45;&gt;lib/supabase.ts</title>
<path fill="none" stroke="#757575" d="M736.23,-2096.02C761.94,-2087.43 789.8,-2073.08 805.5,-2049.34 878.82,-1938.43 774.38,-968.1 841.5,-853.34 853.85,-832.22 876.33,-817.33 897.28,-807.35"/>
<polygon fill="#757575" stroke="#757575" points="898.61,-810.59 906.33,-803.33 895.77,-804.2 898.61,-810.59"/>
</g>
<!-- components/Onboarding.tsx&#45;&gt;types/index.ts -->
<g id="edge82" class="edge">
<title>components/Onboarding.tsx&#45;&gt;types/index.ts</title>
<path fill="none" stroke="#757575" d="M758.44,-2096.01C868.4,-2079.18 1051.88,-2051.02 1052.5,-2050.34 1102.59,-1994.97 1076.12,-1452.97 1088.5,-1379.34 1111.88,-1240.29 1167.89,-1079.77 1189.33,-1021.21"/>
<polygon fill="#757575" stroke="#757575" points="1192.54,-1022.61 1192.72,-1012.02 1185.98,-1020.19 1192.54,-1022.61"/>
</g>
<!-- components/Onboarding.tsx&#45;&gt;lib/tabBarEmitter.ts -->
<g id="edge81" class="edge">
<title>components/Onboarding.tsx&#45;&gt;lib/tabBarEmitter.ts</title>
<path fill="none" stroke="#757575" d="M770.2,-2114.54C847.53,-2116.83 959.75,-2113.35 1052.5,-2083.34 1100.14,-2067.92 1147.93,-2033.49 1175.11,-2011.68"/>
<polygon fill="#757575" stroke="#757575" points="1177.13,-2014.54 1182.65,-2005.5 1172.7,-2009.12 1177.13,-2014.54"/>
</g>
<!-- lib/fagkategorier.ts -->
<g id="node48" class="node">
<title>lib/fagkategorier.ts</title>
<path fill="none" stroke="#cfffac" d="M1001.83,-2159.21C1001.83,-2159.21 892.17,-2159.21 892.17,-2159.21 888.21,-2159.21 884.25,-2155.25 884.25,-2151.3 884.25,-2151.3 884.25,-2143.38 884.25,-2143.38 884.25,-2139.42 888.21,-2135.46 892.17,-2135.46 892.17,-2135.46 1001.83,-2135.46 1001.83,-2135.46 1005.79,-2135.46 1009.75,-2139.42 1009.75,-2143.38 1009.75,-2143.38 1009.75,-2151.3 1009.75,-2151.3 1009.75,-2155.25 1005.79,-2159.21 1001.83,-2159.21"/>
<text xml:space="preserve" text-anchor="middle" x="947" y="-2141.91" font-family="Arial" font-size="14.00" fill="#cfffac">lib/fagkategorier.ts</text>
</g>
<!-- components/Onboarding.tsx&#45;&gt;lib/fagkategorier.ts -->
<g id="edge79" class="edge">
<title>components/Onboarding.tsx&#45;&gt;lib/fagkategorier.ts</title>
<path fill="none" stroke="#757575" d="M762.63,-2120.68C797.93,-2125.81 838.52,-2131.71 872.52,-2136.65"/>
<polygon fill="#757575" stroke="#757575" points="871.89,-2140.1 882.29,-2138.07 872.89,-2133.17 871.89,-2140.1"/>
</g>
<!-- app/index.tsx -->
<g id="node36" class="node">
<title>app/index.tsx</title>
<path fill="none" stroke="#cfffac" d="M152.08,-1990.21C152.08,-1990.21 72.42,-1990.21 72.42,-1990.21 68.46,-1990.21 64.5,-1986.25 64.5,-1982.3 64.5,-1982.3 64.5,-1974.38 64.5,-1974.38 64.5,-1970.42 68.46,-1966.46 72.42,-1966.46 72.42,-1966.46 152.08,-1966.46 152.08,-1966.46 156.04,-1966.46 160,-1970.42 160,-1974.38 160,-1974.38 160,-1982.3 160,-1982.3 160,-1986.25 156.04,-1990.21 152.08,-1990.21"/>
<text xml:space="preserve" text-anchor="middle" x="112.25" y="-1972.91" font-family="Arial" font-size="14.00" fill="#cfffac">app/index.tsx</text>
</g>
<!-- components/TilbudsForhåndsvisning.tsx&#45;&gt;lib/tekstUtils.ts -->
<g id="edge97" class="edge">
<title>components/TilbudsForhåndsvisning.tsx&#45;&gt;lib/tekstUtils.ts</title>
<path fill="none" stroke="#757575" d="M805.98,-1240.34C833.18,-1240.34 860.7,-1240.34 884.06,-1240.34"/>
<polygon fill="#757575" stroke="#757575" points="884,-1243.84 894,-1240.34 884,-1236.84 884,-1243.84"/>
</g>
<!-- lib/openai.ts&#45;&gt;lib/supabase.ts -->
<g id="edge107" class="edge">
<title>lib/openai.ts&#45;&gt;lib/supabase.ts</title>
<path fill="none" stroke="#757575" d="M720.97,-1147.58C749.5,-1139.48 785.23,-1124.43 805.5,-1097.34 871.17,-1009.56 780.75,-944.58 841.5,-853.34 855.36,-832.52 878.66,-817.51 899.75,-807.37"/>
<polygon fill="#757575" stroke="#757575" points="901.14,-810.58 908.81,-803.27 898.25,-804.2 901.14,-810.58"/>
</g>
<!-- lib/openai.ts&#45;&gt;lib/tilbudPris.ts -->
<g id="edge110" class="edge">
<title>lib/openai.ts&#45;&gt;lib/tilbudPris.ts</title>
<path fill="none" stroke="#757575" d="M721.19,-1148.35C750.2,-1140.56 786.42,-1125.58 805.5,-1097.34 894.69,-965.33 767.39,-522.36 841.5,-381.34 856.19,-353.38 885.49,-332.28 909.34,-318.8"/>
<polygon fill="#757575" stroke="#757575" points="910.7,-322.04 917.83,-314.2 907.37,-315.88 910.7,-322.04"/>
</g>
<!-- lib/openai.ts&#45;&gt;lib/tilbudFinalisering.ts -->
<g id="edge108" class="edge">
<title>lib/openai.ts&#45;&gt;lib/tilbudFinalisering.ts</title>
<path fill="none" stroke="#757575" d="M720.98,-1153.45C747.9,-1153.88 781.79,-1158.77 805.5,-1177.34 837.48,-1202.38 821.15,-1226.19 841.5,-1261.34 867.37,-1306.02 905.3,-1353.03 927.64,-1379.32"/>
<polygon fill="#757575" stroke="#757575" points="924.96,-1381.57 934.13,-1386.88 930.27,-1377.01 924.96,-1381.57"/>
</g>
<!-- lib/openai.ts&#45;&gt;lib/tilbudKundePlassholder.ts -->
<g id="edge109" class="edge">
<title>lib/openai.ts&#45;&gt;lib/tilbudKundePlassholder.ts</title>
<path fill="none" stroke="#757575" d="M720.98,-1153.99C794.39,-1152 945.85,-1156.67 1052.5,-1219.34 1118.43,-1258.08 1166.48,-1338.81 1186.94,-1378.01"/>
<polygon fill="#757575" stroke="#757575" points="1183.74,-1379.44 1191.4,-1386.76 1189.98,-1376.26 1183.74,-1379.44"/>
</g>
<!-- utils/tilbudStatus.ts&#45;&gt;types/index.ts -->
<g id="edge116" class="edge">
<title>utils/tilbudStatus.ts&#45;&gt;types/index.ts</title>
<path fill="none" stroke="#757575" d="M741.31,-354.4C836.5,-347.03 1009.54,-340 1052.5,-381.34 1113.62,-440.15 1066.41,-679.44 1088.5,-761.34 1111.03,-844.88 1160.8,-935.64 1184.64,-976.38"/>
<polygon fill="#757575" stroke="#757575" points="1181.49,-977.94 1189.6,-984.76 1187.52,-974.37 1181.49,-977.94"/>
</g>
<!-- constants/tjenestePlaceholders.ts&#45;&gt;constants/tjenester.ts -->
<g id="edge101" class="edge">
<title>constants/tjenestePlaceholders.ts&#45;&gt;constants/tjenester.ts</title>
<path fill="none" stroke="#757575" d="M785.7,-1560.34C811.71,-1560.34 839.1,-1560.34 863.72,-1560.34"/>
<polygon fill="#757575" stroke="#757575" points="863.69,-1563.84 873.69,-1560.34 863.69,-1556.84 863.69,-1563.84"/>
</g>
<!-- lib/tilbudFinalisering.ts&#45;&gt;lib/tilbudKundePlassholder.ts -->
<g id="edge112" class="edge">
<title>lib/tilbudFinalisering.ts&#45;&gt;lib/tilbudKundePlassholder.ts</title>
<path fill="none" stroke="#757575" d="M1021.62,-1400.34C1043.99,-1400.34 1069.02,-1400.34 1093.03,-1400.34"/>
<polygon fill="#757575" stroke="#757575" points="1092.83,-1403.84 1102.83,-1400.34 1092.83,-1396.84 1092.83,-1403.84"/>
</g>
<!-- components/PrisKalkulator.tsx -->
<g id="node49" class="node">
<title>components/PrisKalkulator.tsx</title>
<path fill="none" stroke="#c6c5fe" d="M767.58,-254.21C767.58,-254.21 585.92,-254.21 585.92,-254.21 581.96,-254.21 578,-250.25 578,-246.3 578,-246.3 578,-238.38 578,-238.38 578,-234.42 581.96,-230.46 585.92,-230.46 585.92,-230.46 767.58,-230.46 767.58,-230.46 771.54,-230.46 775.5,-234.42 775.5,-238.38 775.5,-238.38 775.5,-246.3 775.5,-246.3 775.5,-250.25 771.54,-254.21 767.58,-254.21"/>
<text xml:space="preserve" text-anchor="middle" x="676.75" y="-236.91" font-family="Arial" font-size="14.00" fill="#c6c5fe">components/PrisKalkulator.tsx</text>
</g>
<!-- components/PrisKalkulator.tsx&#45;&gt;lib/tilbudPris.ts -->
<g id="edge83" class="edge">
<title>components/PrisKalkulator.tsx&#45;&gt;lib/tilbudPris.ts</title>
<path fill="none" stroke="#757575" d="M740.21,-254.66C761,-258.87 784.28,-263.69 805.5,-268.34 831.29,-273.99 859.65,-280.58 884.1,-286.38"/>
<polygon fill="#757575" stroke="#757575" points="883.02,-289.72 893.56,-288.63 884.64,-282.91 883.02,-289.72"/>
</g>
<!-- components/ScrollWheelPicker.tsx -->
<g id="node50" class="node">
<title>components/ScrollWheelPicker.tsx</title>
<path fill="none" stroke="#cfffac" d="M216.58,-2032.21C216.58,-2032.21 7.92,-2032.21 7.92,-2032.21 3.96,-2032.21 0,-2028.25 0,-2024.3 0,-2024.3 0,-2016.38 0,-2016.38 0,-2012.42 3.96,-2008.46 7.92,-2008.46 7.92,-2008.46 216.58,-2008.46 216.58,-2008.46 220.54,-2008.46 224.5,-2012.42 224.5,-2016.38 224.5,-2016.38 224.5,-2024.3 224.5,-2024.3 224.5,-2028.25 220.54,-2032.21 216.58,-2032.21"/>
<text xml:space="preserve" text-anchor="middle" x="112.25" y="-2014.91" font-family="Arial" font-size="14.00" fill="#cfffac">components/ScrollWheelPicker.tsx</text>
</g>
<!-- design&#45;lab/DesignLabProvider.tsx -->
<g id="node52" class="node">
<title>design&#45;lab/DesignLabProvider.tsx</title>
<path fill="none" stroke="#c6c5fe" d="M777.33,-452.21C777.33,-452.21 576.17,-452.21 576.17,-452.21 572.21,-452.21 568.25,-448.25 568.25,-444.3 568.25,-444.3 568.25,-436.38 568.25,-436.38 568.25,-432.42 572.21,-428.46 576.17,-428.46 576.17,-428.46 777.33,-428.46 777.33,-428.46 781.29,-428.46 785.25,-432.42 785.25,-436.38 785.25,-436.38 785.25,-444.3 785.25,-444.3 785.25,-448.25 781.29,-452.21 777.33,-452.21"/>
<text xml:space="preserve" text-anchor="middle" x="676.75" y="-434.91" font-family="Arial" font-size="14.00" fill="#c6c5fe">design&#45;lab/DesignLabProvider.tsx</text>
</g>
<!-- design&#45;lab/mockData.ts -->
<g id="node53" class="node">
<title>design&#45;lab/mockData.ts</title>
<path fill="none" stroke="#c6c5fe" d="M1017.96,-414.21C1017.96,-414.21 876.04,-414.21 876.04,-414.21 872.08,-414.21 868.12,-410.25 868.12,-406.3 868.12,-406.3 868.12,-398.38 868.12,-398.38 868.12,-394.42 872.08,-390.46 876.04,-390.46 876.04,-390.46 1017.96,-390.46 1017.96,-390.46 1021.92,-390.46 1025.88,-394.42 1025.88,-398.38 1025.88,-398.38 1025.88,-406.3 1025.88,-406.3 1025.88,-410.25 1021.92,-414.21 1017.96,-414.21"/>
<text xml:space="preserve" text-anchor="middle" x="947" y="-396.91" font-family="Arial" font-size="14.00" fill="#c6c5fe">design&#45;lab/mockData.ts</text>
</g>
<!-- design&#45;lab/DesignLabProvider.tsx&#45;&gt;design&#45;lab/mockData.ts -->
<g id="edge102" class="edge">
<title>design&#45;lab/DesignLabProvider.tsx&#45;&gt;design&#45;lab/mockData.ts</title>
<path fill="none" stroke="#757575" d="M764.84,-428C794.28,-423.83 827.18,-419.17 856.78,-414.98"/>
<polygon fill="#757575" stroke="#757575" points="857.04,-418.48 866.45,-413.61 856.05,-411.54 857.04,-418.48"/>
</g>
<!-- design&#45;lab/theme.ts -->
<g id="node54" class="node">
<title>design&#45;lab/theme.ts</title>
<path fill="none" stroke="#cfffac" d="M1006.33,-456.21C1006.33,-456.21 887.67,-456.21 887.67,-456.21 883.71,-456.21 879.75,-452.25 879.75,-448.3 879.75,-448.3 879.75,-440.38 879.75,-440.38 879.75,-436.42 883.71,-432.46 887.67,-432.46 887.67,-432.46 1006.33,-432.46 1006.33,-432.46 1010.29,-432.46 1014.25,-436.42 1014.25,-440.38 1014.25,-440.38 1014.25,-448.3 1014.25,-448.3 1014.25,-452.25 1010.29,-456.21 1006.33,-456.21"/>
<text xml:space="preserve" text-anchor="middle" x="947" y="-438.91" font-family="Arial" font-size="14.00" fill="#cfffac">design&#45;lab/theme.ts</text>
</g>
<!-- design&#45;lab/DesignLabProvider.tsx&#45;&gt;design&#45;lab/theme.ts -->
<g id="edge103" class="edge">
<title>design&#45;lab/DesignLabProvider.tsx&#45;&gt;design&#45;lab/theme.ts</title>
<path fill="none" stroke="#757575" d="M785.7,-441.95C813.34,-442.36 842.53,-442.79 868.32,-443.18"/>
<polygon fill="#757575" stroke="#757575" points="867.96,-446.67 878.01,-443.32 868.07,-439.68 867.96,-446.67"/>
</g>
<!-- design&#45;lab/mockData.ts&#45;&gt;types/index.ts -->
<g id="edge104" class="edge">
<title>design&#45;lab/mockData.ts&#45;&gt;types/index.ts</title>
<path fill="none" stroke="#757575" d="M1026.12,-406.45C1036.11,-410.08 1045.33,-415.47 1052.5,-423.34 1103.39,-479.15 1068.41,-688.52 1088.5,-761.34 1111.52,-844.75 1161.04,-935.58 1184.73,-976.36"/>
<polygon fill="#757575" stroke="#757575" points="1181.58,-977.89 1189.66,-984.74 1187.61,-974.35 1181.58,-977.89"/>
</g>
<!-- expo&#45;env.d.ts -->
<g id="node55" class="node">
<title>expo&#45;env.d.ts</title>
<path fill="none" stroke="#cfffac" d="M152.46,-2074.21C152.46,-2074.21 72.04,-2074.21 72.04,-2074.21 68.08,-2074.21 64.12,-2070.25 64.12,-2066.3 64.12,-2066.3 64.12,-2058.38 64.12,-2058.38 64.12,-2054.42 68.08,-2050.46 72.04,-2050.46 72.04,-2050.46 152.46,-2050.46 152.46,-2050.46 156.42,-2050.46 160.38,-2054.42 160.38,-2058.38 160.38,-2058.38 160.38,-2066.3 160.38,-2066.3 160.38,-2070.25 156.42,-2074.21 152.46,-2074.21"/>
<text xml:space="preserve" text-anchor="middle" x="112.25" y="-2056.91" font-family="Arial" font-size="14.00" fill="#cfffac">expo&#45;env.d.ts</text>
</g>
<!-- lib/foreslåTjeneste.ts -->
<g id="node56" class="node">
<title>lib/foreslåTjeneste.ts</title>
<path fill="none" stroke="#cfffac" d="M174.21,-2116.21C174.21,-2116.21 50.29,-2116.21 50.29,-2116.21 46.33,-2116.21 42.38,-2112.25 42.38,-2108.3 42.38,-2108.3 42.38,-2100.38 42.38,-2100.38 42.38,-2096.42 46.33,-2092.46 50.29,-2092.46 50.29,-2092.46 174.21,-2092.46 174.21,-2092.46 178.17,-2092.46 182.12,-2096.42 182.12,-2100.38 182.12,-2100.38 182.12,-2108.3 182.12,-2108.3 182.12,-2112.25 178.17,-2116.21 174.21,-2116.21"/>
<text xml:space="preserve" text-anchor="middle" x="112.25" y="-2098.91" font-family="Arial" font-size="14.00" fill="#cfffac">lib/foreslåTjeneste.ts</text>
</g>
</g>
</svg>
