<?xml version="1.0" encoding="UTF-8" standalone="no"?>
<!DOCTYPE svg PUBLIC "-//W3C//DTD SVG 1.1//EN"
 "http://www.w3.org/Graphics/SVG/1.1/DTD/svg11.dtd">
<!-- Generated by graphviz version 14.1.4 (20260321.0153)
 -->
<!-- Title: G Pages: 1 -->
<svg width="897pt" height="849pt"
 viewBox="0.00 0.00 897.00 849.00" xmlns="http://www.w3.org/2000/svg" xmlns:xlink="http://www.w3.org/1999/xlink">
<g id="graph0" class="graph" transform="scale(1 1) rotate(0) translate(21.6 827.38)">
<title>G</title>
<polygon fill="#111111" stroke="none" points="-21.6,21.6 -21.6,-827.38 875.35,-827.38 875.35,21.6 -21.6,21.6"/>
<!-- ../constants/tjenestePlaceholders.ts -->
<g id="node1" class="node">
<title>../constants/tjenestePlaceholders.ts</title>
<path fill="none" stroke="#c6c5fe" d="M414.08,-90.55C414.08,-90.55 201.67,-90.55 201.67,-90.55 197.71,-90.55 193.75,-86.59 193.75,-82.63 193.75,-82.63 193.75,-74.71 193.75,-74.71 193.75,-70.76 197.71,-66.8 201.67,-66.8 201.67,-66.8 414.08,-66.8 414.08,-66.8 418.04,-66.8 422,-70.76 422,-74.71 422,-74.71 422,-82.63 422,-82.63 422,-86.59 418.04,-90.55 414.08,-90.55"/>
<text xml:space="preserve" text-anchor="middle" x="307.88" y="-73.25" font-family="Arial" font-size="14.00" fill="#c6c5fe">../constants/tjenestePlaceholders.ts</text>
</g>
<!-- ../constants/tjenester.ts -->
<g id="node2" class="node">
<title>../constants/tjenester.ts</title>
<path fill="none" stroke="#cfffac" d="M607.08,-90.55C607.08,-90.55 468.92,-90.55 468.92,-90.55 464.96,-90.55 461,-86.59 461,-82.63 461,-82.63 461,-74.71 461,-74.71 461,-70.76 464.96,-66.8 468.92,-66.8 468.92,-66.8 607.08,-66.8 607.08,-66.8 611.04,-66.8 615,-70.76 615,-74.71 615,-74.71 615,-82.63 615,-82.63 615,-86.59 611.04,-90.55 607.08,-90.55"/>
<text xml:space="preserve" text-anchor="middle" x="538" y="-73.25" font-family="Arial" font-size="14.00" fill="#cfffac">../constants/tjenester.ts</text>
</g>
<!-- ../constants/tjenestePlaceholders.ts&#45;&gt;../constants/tjenester.ts -->
<g id="edge1" class="edge">
<title>../constants/tjenestePlaceholders.ts&#45;&gt;../constants/tjenester.ts</title>
<path fill="none" stroke="#757575" d="M422.27,-78.67C431.29,-78.67 440.31,-78.67 449.12,-78.67"/>
<polygon fill="#757575" stroke="#757575" points="449.03,-82.17 459.03,-78.67 449.03,-75.17 449.03,-82.17"/>
</g>
<!-- ../lib/firmaCache.ts -->
<g id="node3" class="node">
<title>../lib/firmaCache.ts</title>
<path fill="none" stroke="#c6c5fe" d="M594.33,-290.55C594.33,-290.55 481.67,-290.55 481.67,-290.55 477.71,-290.55 473.75,-286.59 473.75,-282.63 473.75,-282.63 473.75,-274.71 473.75,-274.71 473.75,-270.76 477.71,-266.8 481.67,-266.8 481.67,-266.8 594.33,-266.8 594.33,-266.8 598.29,-266.8 602.25,-270.76 602.25,-274.71 602.25,-274.71 602.25,-282.63 602.25,-282.63 602.25,-286.59 598.29,-290.55 594.33,-290.55"/>
<text xml:space="preserve" text-anchor="middle" x="538" y="-273.25" font-family="Arial" font-size="14.00" fill="#c6c5fe">../lib/firmaCache.ts</text>
</g>
<!-- ../types/index.ts -->
<g id="node4" class="node">
<title>../types/index.ts</title>
<path fill="none" stroke="#cfffac" d="M800.83,-661.55C800.83,-661.55 706.92,-661.55 706.92,-661.55 702.96,-661.55 699,-657.59 699,-653.63 699,-653.63 699,-645.71 699,-645.71 699,-641.76 702.96,-637.8 706.92,-637.8 706.92,-637.8 800.83,-637.8 800.83,-637.8 804.79,-637.8 808.75,-641.76 808.75,-645.71 808.75,-645.71 808.75,-653.63 808.75,-653.63 808.75,-657.59 804.79,-661.55 800.83,-661.55"/>
<text xml:space="preserve" text-anchor="middle" x="753.88" y="-644.25" font-family="Arial" font-size="14.00" fill="#cfffac">../types/index.ts</text>
</g>
<!-- ../lib/firmaCache.ts&#45;&gt;../types/index.ts -->
<g id="edge2" class="edge">
<title>../lib/firmaCache.ts&#45;&gt;../types/index.ts</title>
<path fill="none" stroke="#757575" d="M561.29,-290.91C578.67,-301.41 602.4,-317.93 618,-337.67 691.98,-431.3 733.24,-571.68 747.31,-626.54"/>
<polygon fill="#757575" stroke="#757575" points="743.85,-627.14 749.67,-635.99 750.64,-625.44 743.85,-627.14"/>
</g>
<!-- ../lib/openai.ts -->
<g id="node5" class="node">
<title>../lib/openai.ts</title>
<path fill="none" stroke="#c6c5fe" d="M349.58,-330.55C349.58,-330.55 266.17,-330.55 266.17,-330.55 262.21,-330.55 258.25,-326.59 258.25,-322.63 258.25,-322.63 258.25,-314.71 258.25,-314.71 258.25,-310.76 262.21,-306.8 266.17,-306.8 266.17,-306.8 349.58,-306.8 349.58,-306.8 353.54,-306.8 357.5,-310.76 357.5,-314.71 357.5,-314.71 357.5,-322.63 357.5,-322.63 357.5,-326.59 353.54,-330.55 349.58,-330.55"/>
<text xml:space="preserve" text-anchor="middle" x="307.88" y="-313.25" font-family="Arial" font-size="14.00" fill="#c6c5fe">../lib/openai.ts</text>
</g>
<!-- ../lib/supabase.ts -->
<g id="node6" class="node">
<title>../lib/supabase.ts</title>
<path fill="none" stroke="#c6c5fe" d="M588.71,-640.55C588.71,-640.55 487.29,-640.55 487.29,-640.55 483.33,-640.55 479.38,-636.59 479.38,-632.63 479.38,-632.63 479.38,-624.71 479.38,-624.71 479.38,-620.76 483.33,-616.8 487.29,-616.8 487.29,-616.8 588.71,-616.8 588.71,-616.8 592.67,-616.8 596.62,-620.76 596.62,-624.71 596.62,-624.71 596.62,-632.63 596.62,-632.63 596.62,-636.59 592.67,-640.55 588.71,-640.55"/>
<text xml:space="preserve" text-anchor="middle" x="538" y="-623.25" font-family="Arial" font-size="14.00" fill="#c6c5fe">../lib/supabase.ts</text>
</g>
<!-- ../lib/openai.ts&#45;&gt;../lib/supabase.ts -->
<g id="edge3" class="edge">
<title>../lib/openai.ts&#45;&gt;../lib/supabase.ts</title>
<path fill="none" stroke="#757575" d="M327.78,-330.83C352.89,-347.94 396.97,-381.43 422,-420.67 451.26,-466.54 431.6,-490.1 458,-537.67 473.18,-565.03 497.58,-591.47 515.25,-608.74"/>
<polygon fill="#757575" stroke="#757575" points="512.57,-611.02 522.22,-615.4 517.41,-605.96 512.57,-611.02"/>
</g>
<!-- ../lib/tilbudFinalisering.ts -->
<g id="node7" class="node">
<title>../lib/tilbudFinalisering.ts</title>
<path fill="none" stroke="#c6c5fe" d="M610.08,-151.55C610.08,-151.55 465.92,-151.55 465.92,-151.55 461.96,-151.55 458,-147.59 458,-143.63 458,-143.63 458,-135.71 458,-135.71 458,-131.76 461.96,-127.8 465.92,-127.8 465.92,-127.8 610.08,-127.8 610.08,-127.8 614.04,-127.8 618,-131.76 618,-135.71 618,-135.71 618,-143.63 618,-143.63 618,-147.59 614.04,-151.55 610.08,-151.55"/>
<text xml:space="preserve" text-anchor="middle" x="538" y="-134.25" font-family="Arial" font-size="14.00" fill="#c6c5fe">../lib/tilbudFinalisering.ts</text>
</g>
<!-- ../lib/openai.ts&#45;&gt;../lib/tilbudFinalisering.ts -->
<g id="edge4" class="edge">
<title>../lib/openai.ts&#45;&gt;../lib/tilbudFinalisering.ts</title>
<path fill="none" stroke="#757575" d="M338.77,-306.32C362.52,-295.77 395.96,-279.21 422,-259.67 461.5,-230.04 499.58,-186.4 520.49,-160.72"/>
<polygon fill="#757575" stroke="#757575" points="523.15,-163 526.68,-153.01 517.69,-158.61 523.15,-163"/>
</g>
<!-- ../lib/tilbudKundePlassholder.ts -->
<g id="node8" class="node">
<title>../lib/tilbudKundePlassholder.ts</title>
<path fill="none" stroke="#cfffac" d="M845.83,-151.55C845.83,-151.55 661.92,-151.55 661.92,-151.55 657.96,-151.55 654,-147.59 654,-143.63 654,-143.63 654,-135.71 654,-135.71 654,-131.76 657.96,-127.8 661.92,-127.8 661.92,-127.8 845.83,-127.8 845.83,-127.8 849.79,-127.8 853.75,-131.76 853.75,-135.71 853.75,-135.71 853.75,-143.63 853.75,-143.63 853.75,-147.59 849.79,-151.55 845.83,-151.55"/>
<text xml:space="preserve" text-anchor="middle" x="753.88" y="-134.25" font-family="Arial" font-size="14.00" fill="#cfffac">../lib/tilbudKundePlassholder.ts</text>
</g>
<!-- ../lib/openai.ts&#45;&gt;../lib/tilbudKundePlassholder.ts -->
<g id="edge5" class="edge">
<title>../lib/openai.ts&#45;&gt;../lib/tilbudKundePlassholder.ts</title>
<path fill="none" stroke="#757575" d="M357.98,-327.01C421.64,-335.37 534.41,-341.7 618,-299.67 678.6,-269.2 722.54,-198.09 741.89,-161.81"/>
<polygon fill="#757575" stroke="#757575" points="744.91,-163.58 746.41,-153.1 738.7,-160.37 744.91,-163.58"/>
</g>
<!-- ../lib/tilbudPris.ts -->
<g id="node9" class="node">
<title>../lib/tilbudPris.ts</title>
<path fill="none" stroke="#cfffac" d="M587.21,-370.55C587.21,-370.55 488.79,-370.55 488.79,-370.55 484.83,-370.55 480.88,-366.59 480.88,-362.63 480.88,-362.63 480.88,-354.71 480.88,-354.71 480.88,-350.76 484.83,-346.8 488.79,-346.8 488.79,-346.8 587.21,-346.8 587.21,-346.8 591.17,-346.8 595.12,-350.76 595.12,-354.71 595.12,-354.71 595.12,-362.63 595.12,-362.63 595.12,-366.59 591.17,-370.55 587.21,-370.55"/>
<text xml:space="preserve" text-anchor="middle" x="538" y="-353.25" font-family="Arial" font-size="14.00" fill="#cfffac">../lib/tilbudPris.ts</text>
</g>
<!-- ../lib/openai.ts&#45;&gt;../lib/tilbudPris.ts -->
<g id="edge6" class="edge">
<title>../lib/openai.ts&#45;&gt;../lib/tilbudPris.ts</title>
<path fill="none" stroke="#757575" d="M357.81,-327.25C390.3,-332.95 433.39,-340.5 469.17,-346.78"/>
<polygon fill="#757575" stroke="#757575" points="468.56,-350.23 479.01,-348.51 469.77,-343.33 468.56,-350.23"/>
</g>
<!-- ../lib/supabase.ts&#45;&gt;../types/index.ts -->
<g id="edge7" class="edge">
<title>../lib/supabase.ts&#45;&gt;../types/index.ts</title>
<path fill="none" stroke="#757575" d="M596.88,-634.36C624.84,-637.1 658.51,-640.41 687.4,-643.24"/>
<polygon fill="#757575" stroke="#757575" points="686.83,-646.7 697.12,-644.2 687.51,-639.74 686.83,-646.7"/>
</g>
<!-- ../lib/tilbudFinalisering.ts&#45;&gt;../lib/tilbudKundePlassholder.ts -->
<g id="edge8" class="edge">
<title>../lib/tilbudFinalisering.ts&#45;&gt;../lib/tilbudKundePlassholder.ts</title>
<path fill="none" stroke="#757575" d="M618.34,-139.67C626.17,-139.67 634.22,-139.67 642.3,-139.67"/>
<polygon fill="#757575" stroke="#757575" points="642.21,-143.17 652.21,-139.67 642.21,-136.17 642.21,-143.17"/>
</g>
<!-- ../lib/paminnelseInnstillinger.ts -->
<g id="node10" class="node">
<title>../lib/paminnelseInnstillinger.ts</title>
<path fill="none" stroke="#cfffac" d="M397.96,-722.55C397.96,-722.55 217.79,-722.55 217.79,-722.55 213.83,-722.55 209.88,-718.59 209.88,-714.63 209.88,-714.63 209.88,-706.71 209.88,-706.71 209.88,-702.76 213.83,-698.8 217.79,-698.8 217.79,-698.8 397.96,-698.8 397.96,-698.8 401.92,-698.8 405.88,-702.76 405.88,-706.71 405.88,-706.71 405.88,-714.63 405.88,-714.63 405.88,-718.59 401.92,-722.55 397.96,-722.55"/>
<text xml:space="preserve" text-anchor="middle" x="307.88" y="-705.25" font-family="Arial" font-size="14.00" fill="#cfffac">../lib/paminnelseInnstillinger.ts</text>
</g>
<!-- ../lib/resend.ts -->
<g id="node11" class="node">
<title>../lib/resend.ts</title>
<path fill="none" stroke="#cfffac" d="M349.96,-486.55C349.96,-486.55 265.79,-486.55 265.79,-486.55 261.83,-486.55 257.88,-482.59 257.88,-478.63 257.88,-478.63 257.88,-470.71 257.88,-470.71 257.88,-466.76 261.83,-462.8 265.79,-462.8 265.79,-462.8 349.96,-462.8 349.96,-462.8 353.92,-462.8 357.88,-466.76 357.88,-470.71 357.88,-470.71 357.88,-478.63 357.88,-478.63 357.88,-482.59 353.92,-486.55 349.96,-486.55"/>
<text xml:space="preserve" text-anchor="middle" x="307.88" y="-469.25" font-family="Arial" font-size="14.00" fill="#cfffac">../lib/resend.ts</text>
</g>
<!-- ../lib/tekstUtils.ts -->
<g id="node12" class="node">
<title>../lib/tekstUtils.ts</title>
<path fill="none" stroke="#cfffac" d="M586.83,-528.55C586.83,-528.55 489.17,-528.55 489.17,-528.55 485.21,-528.55 481.25,-524.59 481.25,-520.63 481.25,-520.63 481.25,-512.71 481.25,-512.71 481.25,-508.76 485.21,-504.8 489.17,-504.8 489.17,-504.8 586.83,-504.8 586.83,-504.8 590.79,-504.8 594.75,-508.76 594.75,-512.71 594.75,-512.71 594.75,-520.63 594.75,-520.63 594.75,-524.59 590.79,-528.55 586.83,-528.55"/>
<text xml:space="preserve" text-anchor="middle" x="538" y="-511.25" font-family="Arial" font-size="14.00" fill="#cfffac">../lib/tekstUtils.ts</text>
</g>
<!-- ../lib/tilbudHendelserCache.ts -->
<g id="node13" class="node">
<title>../lib/tilbudHendelserCache.ts</title>
<path fill="none" stroke="#c6c5fe" d="M395.71,-764.55C395.71,-764.55 220.04,-764.55 220.04,-764.55 216.08,-764.55 212.12,-760.59 212.12,-756.63 212.12,-756.63 212.12,-748.71 212.12,-748.71 212.12,-744.76 216.08,-740.8 220.04,-740.8 220.04,-740.8 395.71,-740.8 395.71,-740.8 399.67,-740.8 403.62,-744.76 403.62,-748.71 403.62,-748.71 403.62,-756.63 403.62,-756.63 403.62,-760.59 399.67,-764.55 395.71,-764.55"/>
<text xml:space="preserve" text-anchor="middle" x="307.88" y="-747.25" font-family="Arial" font-size="14.00" fill="#c6c5fe">../lib/tilbudHendelserCache.ts</text>
</g>
<!-- ../lib/tilbudHendelserCache.ts&#45;&gt;../types/index.ts -->
<g id="edge10" class="edge">
<title>../lib/tilbudHendelserCache.ts&#45;&gt;../types/index.ts</title>
<path fill="none" stroke="#757575" d="M376.51,-740.32C391.5,-737.53 407.3,-734.54 422,-731.67 509.27,-714.67 531.89,-713.81 618,-691.67 647.62,-684.06 680.38,-673.9 706.2,-665.48"/>
<polygon fill="#757575" stroke="#757575" points="706.96,-668.91 715.37,-662.46 704.78,-662.26 706.96,-668.91"/>
</g>
<!-- ../lib/tilbudHendelserCache.ts&#45;&gt;../lib/supabase.ts -->
<g id="edge9" class="edge">
<title>../lib/tilbudHendelserCache.ts&#45;&gt;../lib/supabase.ts</title>
<path fill="none" stroke="#757575" d="M403.99,-742.45C410.43,-739.56 416.52,-736.02 422,-731.67 453.19,-706.95 427.78,-675.57 458,-649.67 461.36,-646.79 465.07,-644.31 469,-642.15"/>
<polygon fill="#757575" stroke="#757575" points="470.16,-645.48 477.77,-638.11 467.22,-639.12 470.16,-645.48"/>
</g>
<!-- ../utils/tilbudStatus.ts -->
<g id="node14" class="node">
<title>../utils/tilbudStatus.ts</title>
<path fill="none" stroke="#c6c5fe" d="M599.96,-682.55C599.96,-682.55 476.04,-682.55 476.04,-682.55 472.08,-682.55 468.12,-678.59 468.12,-674.63 468.12,-674.63 468.12,-666.71 468.12,-666.71 468.12,-662.76 472.08,-658.8 476.04,-658.8 476.04,-658.8 599.96,-658.8 599.96,-658.8 603.92,-658.8 607.88,-662.76 607.88,-666.71 607.88,-666.71 607.88,-674.63 607.88,-674.63 607.88,-678.59 603.92,-682.55 599.96,-682.55"/>
<text xml:space="preserve" text-anchor="middle" x="538" y="-665.25" font-family="Arial" font-size="14.00" fill="#c6c5fe">../utils/tilbudStatus.ts</text>
</g>
<!-- ../utils/tilbudStatus.ts&#45;&gt;../types/index.ts -->
<g id="edge11" class="edge">
<title>../utils/tilbudStatus.ts&#45;&gt;../types/index.ts</title>
<path fill="none" stroke="#757575" d="M608.14,-663.88C633.54,-661.39 662.21,-658.57 687.29,-656.11"/>
<polygon fill="#757575" stroke="#757575" points="687.42,-659.62 697.03,-655.16 686.73,-652.65 687.42,-659.62"/>
</g>
<!-- KundeKontaktKalender.tsx -->
<g id="node15" class="node">
<title>KundeKontaktKalender.tsx</title>
<path fill="none" stroke="#cfffac" d="M387.46,-250.55C387.46,-250.55 228.29,-250.55 228.29,-250.55 224.33,-250.55 220.38,-246.59 220.38,-242.63 220.38,-242.63 220.38,-234.71 220.38,-234.71 220.38,-230.76 224.33,-226.8 228.29,-226.8 228.29,-226.8 387.46,-226.8 387.46,-226.8 391.42,-226.8 395.38,-230.76 395.38,-234.71 395.38,-234.71 395.38,-242.63 395.38,-242.63 395.38,-246.59 391.42,-250.55 387.46,-250.55"/>
<text xml:space="preserve" text-anchor="middle" x="307.88" y="-233.25" font-family="Arial" font-size="14.00" fill="#cfffac">KundeKontaktKalender.tsx</text>
</g>
<!-- NyttTilbudModal.tsx -->
<g id="node16" class="node">
<title>NyttTilbudModal.tsx</title>
<path fill="none" stroke="#c6c5fe" d="M138.58,-290.55C138.58,-290.55 19.17,-290.55 19.17,-290.55 15.21,-290.55 11.25,-286.59 11.25,-282.63 11.25,-282.63 11.25,-274.71 11.25,-274.71 11.25,-270.76 15.21,-266.8 19.17,-266.8 19.17,-266.8 138.58,-266.8 138.58,-266.8 142.54,-266.8 146.5,-270.76 146.5,-274.71 146.5,-274.71 146.5,-282.63 146.5,-282.63 146.5,-286.59 142.54,-290.55 138.58,-290.55"/>
<text xml:space="preserve" text-anchor="middle" x="78.88" y="-273.25" font-family="Arial" font-size="14.00" fill="#c6c5fe">NyttTilbudModal.tsx</text>
</g>
<!-- NyttTilbudModal.tsx&#45;&gt;../constants/tjenestePlaceholders.ts -->
<g id="edge12" class="edge">
<title>NyttTilbudModal.tsx&#45;&gt;../constants/tjenestePlaceholders.ts</title>
<path fill="none" stroke="#757575" d="M84.05,-266.68C95.82,-234.79 132.44,-147.4 193.75,-104.67 198.87,-101.11 204.4,-98.03 210.17,-95.36"/>
<polygon fill="#757575" stroke="#757575" points="211.46,-98.61 219.38,-91.58 208.8,-92.14 211.46,-98.61"/>
</g>
<!-- NyttTilbudModal.tsx&#45;&gt;../lib/firmaCache.ts -->
<g id="edge13" class="edge">
<title>NyttTilbudModal.tsx&#45;&gt;../lib/firmaCache.ts</title>
<path fill="none" stroke="#757575" d="M146.83,-278.67C230.85,-278.67 374.51,-278.67 462.1,-278.67"/>
<polygon fill="#757575" stroke="#757575" points="462.03,-282.17 472.03,-278.67 462.03,-275.17 462.03,-282.17"/>
</g>
<!-- NyttTilbudModal.tsx&#45;&gt;../types/index.ts -->
<g id="edge21" class="edge">
<title>NyttTilbudModal.tsx&#45;&gt;../types/index.ts</title>
<path fill="none" stroke="#757575" d="M96.53,-266.31C117.79,-251.37 156.33,-227.06 193.75,-217.67 285.6,-194.62 546.83,-195.21 618,-257.67 731.81,-357.57 749.65,-558.05 752.39,-626.3"/>
<polygon fill="#757575" stroke="#757575" points="748.88,-626.06 752.7,-635.94 755.88,-625.83 748.88,-626.06"/>
</g>
<!-- NyttTilbudModal.tsx&#45;&gt;../lib/openai.ts -->
<g id="edge14" class="edge">
<title>NyttTilbudModal.tsx&#45;&gt;../lib/openai.ts</title>
<path fill="none" stroke="#757575" d="M146.75,-290.46C178.44,-296.04 215.98,-302.66 246.75,-308.08"/>
<polygon fill="#757575" stroke="#757575" points="245.81,-311.47 256.27,-309.76 247.03,-304.57 245.81,-311.47"/>
</g>
<!-- NyttTilbudModal.tsx&#45;&gt;../lib/supabase.ts -->
<g id="edge16" class="edge">
<title>NyttTilbudModal.tsx&#45;&gt;../lib/supabase.ts</title>
<path fill="none" stroke="#757575" d="M86.87,-290.99C102.41,-317.11 142.51,-378.12 193.75,-407.67 283.39,-459.38 341.69,-388.41 422,-453.67 453.52,-479.29 436.43,-503.26 458,-537.67 474.71,-564.33 499.05,-591.07 516.29,-608.6"/>
<polygon fill="#757575" stroke="#757575" points="513.5,-610.76 523.05,-615.35 518.45,-605.81 513.5,-610.76"/>
</g>
<!-- NyttTilbudModal.tsx&#45;&gt;../lib/tilbudFinalisering.ts -->
<g id="edge18" class="edge">
<title>NyttTilbudModal.tsx&#45;&gt;../lib/tilbudFinalisering.ts</title>
<path fill="none" stroke="#757575" d="M85.09,-266.59C98.28,-237.74 136.12,-165.21 193.75,-137.67 286.26,-93.47 409.46,-109.59 480.31,-124.91"/>
<polygon fill="#757575" stroke="#757575" points="479.22,-128.25 489.75,-127.02 480.75,-121.42 479.22,-128.25"/>
</g>
<!-- NyttTilbudModal.tsx&#45;&gt;../lib/tilbudKundePlassholder.ts -->
<g id="edge19" class="edge">
<title>NyttTilbudModal.tsx&#45;&gt;../lib/tilbudKundePlassholder.ts</title>
<path fill="none" stroke="#757575" d="M81.74,-266.39C88.42,-227.31 115.07,-105.64 193.75,-57.67 354.74,40.48 436.43,-6.81 618,-57.67 661.29,-69.8 704.48,-100.05 729.92,-120.23"/>
<polygon fill="#757575" stroke="#757575" points="727.63,-122.87 737.6,-126.45 732.04,-117.43 727.63,-122.87"/>
</g>
<!-- NyttTilbudModal.tsx&#45;&gt;../lib/tilbudPris.ts -->
<g id="edge20" class="edge">
<title>NyttTilbudModal.tsx&#45;&gt;../lib/tilbudPris.ts</title>
<path fill="none" stroke="#757575" d="M96.99,-290.96C118.42,-305.58 156.82,-329.31 193.75,-339.67 286.56,-365.71 398.89,-366.46 469.16,-363.46"/>
<polygon fill="#757575" stroke="#757575" points="469.16,-366.96 478.99,-363 468.83,-359.97 469.16,-366.96"/>
</g>
<!-- NyttTilbudModal.tsx&#45;&gt;../lib/resend.ts -->
<g id="edge15" class="edge">
<title>NyttTilbudModal.tsx&#45;&gt;../lib/resend.ts</title>
<path fill="none" stroke="#757575" d="M84.31,-290.84C96.47,-322.38 133.49,-407.16 193.75,-448.67 209.14,-459.28 228.23,-465.61 246.32,-469.37"/>
<polygon fill="#757575" stroke="#757575" points="245.45,-472.77 255.92,-471.13 246.71,-465.89 245.45,-472.77"/>
</g>
<!-- NyttTilbudModal.tsx&#45;&gt;../lib/tekstUtils.ts -->
<g id="edge17" class="edge">
<title>NyttTilbudModal.tsx&#45;&gt;../lib/tekstUtils.ts</title>
<path fill="none" stroke="#757575" d="M91.98,-290.94C111.58,-310.08 152.26,-346.88 193.75,-366.67 287.84,-411.56 328.77,-374.02 422,-420.67 460.43,-439.9 497.16,-474.3 518.38,-496.28"/>
<polygon fill="#757575" stroke="#757575" points="515.77,-498.62 525.18,-503.48 520.86,-493.81 515.77,-498.62"/>
</g>
<!-- NyttTilbudModal.tsx&#45;&gt;KundeKontaktKalender.tsx -->
<g id="edge22" class="edge">
<title>NyttTilbudModal.tsx&#45;&gt;KundeKontaktKalender.tsx</title>
<path fill="none" stroke="#757575" d="M146.75,-266.89C171.48,-262.53 199.77,-257.55 225.63,-252.99"/>
<polygon fill="#757575" stroke="#757575" points="226.19,-256.44 235.43,-251.26 224.98,-249.55 226.19,-256.44"/>
</g>
<!-- SkeletonLoader.tsx -->
<g id="node17" class="node">
<title>SkeletonLoader.tsx</title>
<path fill="none" stroke="#cfffac" d="M365.33,-170.55C365.33,-170.55 250.42,-170.55 250.42,-170.55 246.46,-170.55 242.5,-166.59 242.5,-162.63 242.5,-162.63 242.5,-154.71 242.5,-154.71 242.5,-150.76 246.46,-146.8 250.42,-146.8 250.42,-146.8 365.33,-146.8 365.33,-146.8 369.29,-146.8 373.25,-150.76 373.25,-154.71 373.25,-154.71 373.25,-162.63 373.25,-162.63 373.25,-166.59 369.29,-170.55 365.33,-170.55"/>
<text xml:space="preserve" text-anchor="middle" x="307.88" y="-153.25" font-family="Arial" font-size="14.00" fill="#cfffac">SkeletonLoader.tsx</text>
</g>
<!-- NyttTilbudModal.tsx&#45;&gt;SkeletonLoader.tsx -->
<g id="edge23" class="edge">
<title>NyttTilbudModal.tsx&#45;&gt;SkeletonLoader.tsx</title>
<path fill="none" stroke="#757575" d="M90.86,-266.49C109.81,-246.26 150.75,-205.87 193.75,-184.67 205.47,-178.89 218.51,-174.38 231.45,-170.85"/>
<polygon fill="#757575" stroke="#757575" points="231.96,-174.33 240.8,-168.48 230.25,-167.54 231.96,-174.33"/>
</g>
<!-- TilbudsForhåndsvisning.tsx -->
<g id="node18" class="node">
<title>TilbudsForhåndsvisning.tsx</title>
<path fill="none" stroke="#c6c5fe" d="M389.71,-528.55C389.71,-528.55 226.04,-528.55 226.04,-528.55 222.08,-528.55 218.12,-524.59 218.12,-520.63 218.12,-520.63 218.12,-512.71 218.12,-512.71 218.12,-508.76 222.08,-504.8 226.04,-504.8 226.04,-504.8 389.71,-504.8 389.71,-504.8 393.67,-504.8 397.62,-508.76 397.62,-512.71 397.62,-512.71 397.62,-520.63 397.62,-520.63 397.62,-524.59 393.67,-528.55 389.71,-528.55"/>
<text xml:space="preserve" text-anchor="middle" x="307.88" y="-511.25" font-family="Arial" font-size="14.00" fill="#c6c5fe">TilbudsForhåndsvisning.tsx</text>
</g>
<!-- NyttTilbudModal.tsx&#45;&gt;TilbudsForhåndsvisning.tsx -->
<g id="edge24" class="edge">
<title>NyttTilbudModal.tsx&#45;&gt;TilbudsForhåndsvisning.tsx</title>
<path fill="none" stroke="#757575" d="M82.38,-290.96C90.7,-328.45 121.16,-442.13 193.75,-495.67 198.05,-498.84 202.68,-501.58 207.53,-503.94"/>
<polygon fill="#757575" stroke="#757575" points="205.78,-507 216.36,-507.68 208.51,-500.55 205.78,-507"/>
</g>
<!-- TilbudsForhåndsvisning.tsx&#45;&gt;../lib/tekstUtils.ts -->
<g id="edge35" class="edge">
<title>TilbudsForhåndsvisning.tsx&#45;&gt;../lib/tekstUtils.ts</title>
<path fill="none" stroke="#757575" d="M398.05,-516.67C421.78,-516.67 447.03,-516.67 469.39,-516.67"/>
<polygon fill="#757575" stroke="#757575" points="469.29,-520.17 479.29,-516.67 469.29,-513.17 469.29,-520.17"/>
</g>
<!-- TilbudDetaljerModal.tsx -->
<g id="node19" class="node">
<title>TilbudDetaljerModal.tsx</title>
<path fill="none" stroke="#c6c5fe" d="M149.83,-625.55C149.83,-625.55 7.92,-625.55 7.92,-625.55 3.96,-625.55 0,-621.59 0,-617.63 0,-617.63 0,-609.71 0,-609.71 0,-605.76 3.96,-601.8 7.92,-601.8 7.92,-601.8 149.83,-601.8 149.83,-601.8 153.79,-601.8 157.75,-605.76 157.75,-609.71 157.75,-609.71 157.75,-617.63 157.75,-617.63 157.75,-621.59 153.79,-625.55 149.83,-625.55"/>
<text xml:space="preserve" text-anchor="middle" x="78.88" y="-608.25" font-family="Arial" font-size="14.00" fill="#c6c5fe">TilbudDetaljerModal.tsx</text>
</g>
<!-- TilbudDetaljerModal.tsx&#45;&gt;../types/index.ts -->
<g id="edge32" class="edge">
<title>TilbudDetaljerModal.tsx&#45;&gt;../types/index.ts</title>
<path fill="none" stroke="#757575" d="M84.07,-625.91C95.63,-657.49 131.33,-741.48 193.75,-773.67 380.8,-870.14 640.79,-722.3 725.21,-668.22"/>
<polygon fill="#757575" stroke="#757575" points="727.09,-671.17 733.57,-662.79 723.28,-665.3 727.09,-671.17"/>
</g>
<!-- TilbudDetaljerModal.tsx&#45;&gt;../lib/openai.ts -->
<g id="edge25" class="edge">
<title>TilbudDetaljerModal.tsx&#45;&gt;../lib/openai.ts</title>
<path fill="none" stroke="#757575" d="M88.13,-601.39C106.46,-574.26 152.26,-507.36 193.75,-453.67 225.89,-412.09 265.87,-365.48 288.67,-339.35"/>
<polygon fill="#757575" stroke="#757575" points="291.3,-341.66 295.25,-331.83 286.03,-337.05 291.3,-341.66"/>
</g>
<!-- TilbudDetaljerModal.tsx&#45;&gt;../lib/supabase.ts -->
<g id="edge28" class="edge">
<title>TilbudDetaljerModal.tsx&#45;&gt;../lib/supabase.ts</title>
<path fill="none" stroke="#757575" d="M158.2,-616.24C245.19,-619.1 384.31,-623.66 467.55,-626.39"/>
<polygon fill="#757575" stroke="#757575" points="467.29,-629.89 477.4,-626.72 467.52,-622.89 467.29,-629.89"/>
</g>
<!-- TilbudDetaljerModal.tsx&#45;&gt;../lib/tilbudPris.ts -->
<g id="edge31" class="edge">
<title>TilbudDetaljerModal.tsx&#45;&gt;../lib/tilbudPris.ts</title>
<path fill="none" stroke="#757575" d="M107.41,-601.34C130.14,-591.63 163.46,-578.48 193.75,-570.67 293,-545.08 335.8,-593.13 422,-537.67 437.35,-527.8 497.55,-426.47 524.19,-380.79"/>
<polygon fill="#757575" stroke="#757575" points="527.15,-382.67 529.15,-372.26 521.1,-379.15 527.15,-382.67"/>
</g>
<!-- TilbudDetaljerModal.tsx&#45;&gt;../lib/paminnelseInnstillinger.ts -->
<g id="edge26" class="edge">
<title>TilbudDetaljerModal.tsx&#45;&gt;../lib/paminnelseInnstillinger.ts</title>
<path fill="none" stroke="#757575" d="M95.54,-625.82C116.69,-641.64 156.07,-669.11 193.75,-684.67 203.88,-688.86 214.81,-692.44 225.74,-695.48"/>
<polygon fill="#757575" stroke="#757575" points="224.62,-698.8 235.18,-697.96 226.4,-692.03 224.62,-698.8"/>
</g>
<!-- TilbudDetaljerModal.tsx&#45;&gt;../lib/resend.ts -->
<g id="edge27" class="edge">
<title>TilbudDetaljerModal.tsx&#45;&gt;../lib/resend.ts</title>
<path fill="none" stroke="#757575" d="M87.61,-601.62C103.96,-577.23 144.6,-522.1 193.75,-495.67 209.77,-487.06 228.71,-481.91 246.47,-478.86"/>
<polygon fill="#757575" stroke="#757575" points="246.76,-482.36 256.13,-477.41 245.72,-475.44 246.76,-482.36"/>
</g>
<!-- TilbudDetaljerModal.tsx&#45;&gt;../lib/tekstUtils.ts -->
<g id="edge29" class="edge">
<title>TilbudDetaljerModal.tsx&#45;&gt;../lib/tekstUtils.ts</title>
<path fill="none" stroke="#757575" d="M158.05,-610.81C228.32,-606.61 333.74,-596.25 422,-570.67 451.81,-562.04 483.6,-546.58 506.18,-534.41"/>
<polygon fill="#757575" stroke="#757575" points="507.77,-537.53 514.84,-529.64 504.39,-531.39 507.77,-537.53"/>
</g>
<!-- TilbudDetaljerModal.tsx&#45;&gt;../lib/tilbudHendelserCache.ts -->
<g id="edge30" class="edge">
<title>TilbudDetaljerModal.tsx&#45;&gt;../lib/tilbudHendelserCache.ts</title>
<path fill="none" stroke="#757575" d="M87.61,-625.72C103.96,-650.12 144.6,-705.25 193.75,-731.67 196.82,-733.32 199.99,-734.84 203.25,-736.25"/>
<polygon fill="#757575" stroke="#757575" points="201.86,-739.47 212.45,-739.8 204.38,-732.94 201.86,-739.47"/>
</g>
<!-- TilbudDetaljerModal.tsx&#45;&gt;../utils/tilbudStatus.ts -->
<g id="edge33" class="edge">
<title>TilbudDetaljerModal.tsx&#45;&gt;../utils/tilbudStatus.ts</title>
<path fill="none" stroke="#757575" d="M138.51,-626.04C156.21,-629.49 175.72,-633.02 193.75,-635.67 283.29,-648.86 386.7,-658.67 456.42,-664.5"/>
<polygon fill="#757575" stroke="#757575" points="455.98,-667.98 466.23,-665.31 456.56,-661 455.98,-667.98"/>
</g>
<!-- TilbudDetaljerModal.tsx&#45;&gt;TilbudsForhåndsvisning.tsx -->
<g id="edge34" class="edge">
<title>TilbudDetaljerModal.tsx&#45;&gt;TilbudsForhåndsvisning.tsx</title>
<path fill="none" stroke="#757575" d="M95.54,-601.52C116.69,-585.7 156.07,-558.24 193.75,-542.67 203.88,-538.49 214.81,-534.91 225.74,-531.87"/>
<polygon fill="#757575" stroke="#757575" points="226.4,-535.31 235.18,-529.39 224.62,-528.54 226.4,-535.31"/>
</g>
</g>
</svg>
