<?xml version="1.0" encoding="UTF-8" standalone="no"?>
<!DOCTYPE svg PUBLIC "-//W3C//DTD SVG 1.1//EN"
 "http://www.w3.org/Graphics/SVG/1.1/DTD/svg11.dtd">
<!-- Generated by graphviz version 14.1.4 (20260321.0153)
 -->
<!-- Title: G Pages: 1 -->
<svg width="865pt" height="462pt"
 viewBox="0.00 0.00 865.00 462.00" xmlns="http://www.w3.org/2000/svg" xmlns:xlink="http://www.w3.org/1999/xlink">
<g id="graph0" class="graph" transform="scale(1 1) rotate(0) translate(21.6 440.06)">
<title>G</title>
<polygon fill="#111111" stroke="none" points="-21.6,21.6 -21.6,-440.06 843.1,-440.06 843.1,21.6 -21.6,21.6"/>
<!-- ../lib/openai.ts -->
<g id="node1" class="node">
<title>../lib/openai.ts</title>
<path fill="none" stroke="#c6c5fe" d="M333.46,-378.46C333.46,-378.46 250.04,-378.46 250.04,-378.46 246.08,-378.46 242.12,-374.5 242.12,-370.54 242.12,-370.54 242.12,-362.62 242.12,-362.62 242.12,-358.67 246.08,-354.71 250.04,-354.71 250.04,-354.71 333.46,-354.71 333.46,-354.71 337.42,-354.71 341.38,-358.67 341.38,-362.62 341.38,-362.62 341.38,-370.54 341.38,-370.54 341.38,-374.5 337.42,-378.46 333.46,-378.46"/>
<text xml:space="preserve" text-anchor="middle" x="291.75" y="-361.16" font-family="Arial" font-size="14.00" fill="#c6c5fe">../lib/openai.ts</text>
</g>
<!-- ../lib/supabase.ts -->
<g id="node2" class="node">
<title>../lib/supabase.ts</title>
<path fill="none" stroke="#c6c5fe" d="M556.46,-256.46C556.46,-256.46 455.04,-256.46 455.04,-256.46 451.08,-256.46 447.12,-252.5 447.12,-248.54 447.12,-248.54 447.12,-240.62 447.12,-240.62 447.12,-236.67 451.08,-232.71 455.04,-232.71 455.04,-232.71 556.46,-232.71 556.46,-232.71 560.42,-232.71 564.38,-236.67 564.38,-240.62 564.38,-240.62 564.38,-248.54 564.38,-248.54 564.38,-252.5 560.42,-256.46 556.46,-256.46"/>
<text xml:space="preserve" text-anchor="middle" x="505.75" y="-239.16" font-family="Arial" font-size="14.00" fill="#c6c5fe">../lib/supabase.ts</text>
</g>
<!-- ../lib/openai.ts&#45;&gt;../lib/supabase.ts -->
<g id="edge1" class="edge">
<title>../lib/openai.ts&#45;&gt;../lib/supabase.ts</title>
<path fill="none" stroke="#757575" d="M314.24,-354.21C351.96,-332.51 430.18,-287.5 473.74,-262.43"/>
<polygon fill="#757575" stroke="#757575" points="475.28,-265.58 482.2,-257.56 471.79,-259.51 475.28,-265.58"/>
</g>
<!-- ../lib/tilbudFinalisering.ts -->
<g id="node3" class="node">
<title>../lib/tilbudFinalisering.ts</title>
<path fill="none" stroke="#c6c5fe" d="M577.83,-418.46C577.83,-418.46 433.67,-418.46 433.67,-418.46 429.71,-418.46 425.75,-414.5 425.75,-410.54 425.75,-410.54 425.75,-402.62 425.75,-402.62 425.75,-398.67 429.71,-394.71 433.67,-394.71 433.67,-394.71 577.83,-394.71 577.83,-394.71 581.79,-394.71 585.75,-398.67 585.75,-402.62 585.75,-402.62 585.75,-410.54 585.75,-410.54 585.75,-414.5 581.79,-418.46 577.83,-418.46"/>
<text xml:space="preserve" text-anchor="middle" x="505.75" y="-401.16" font-family="Arial" font-size="14.00" fill="#c6c5fe">../lib/tilbudFinalisering.ts</text>
</g>
<!-- ../lib/openai.ts&#45;&gt;../lib/tilbudFinalisering.ts -->
<g id="edge2" class="edge">
<title>../lib/openai.ts&#45;&gt;../lib/tilbudFinalisering.ts</title>
<path fill="none" stroke="#757575" d="M341.65,-375.81C367.24,-380.64 399.15,-386.66 427.94,-392.09"/>
<polygon fill="#757575" stroke="#757575" points="427.26,-395.52 437.73,-393.94 428.56,-388.64 427.26,-395.52"/>
</g>
<!-- ../lib/tilbudKundePlassholder.ts -->
<g id="node4" class="node">
<title>../lib/tilbudKundePlassholder.ts</title>
<path fill="none" stroke="#cfffac" d="M813.58,-398.46C813.58,-398.46 629.67,-398.46 629.67,-398.46 625.71,-398.46 621.75,-394.5 621.75,-390.54 621.75,-390.54 621.75,-382.62 621.75,-382.62 621.75,-378.67 625.71,-374.71 629.67,-374.71 629.67,-374.71 813.58,-374.71 813.58,-374.71 817.54,-374.71 821.5,-378.67 821.5,-382.62 821.5,-382.62 821.5,-390.54 821.5,-390.54 821.5,-394.5 817.54,-398.46 813.58,-398.46"/>
<text xml:space="preserve" text-anchor="middle" x="721.62" y="-381.16" font-family="Arial" font-size="14.00" fill="#cfffac">../lib/tilbudKundePlassholder.ts</text>
</g>
<!-- ../lib/openai.ts&#45;&gt;../lib/tilbudKundePlassholder.ts -->
<g id="edge3" class="edge">
<title>../lib/openai.ts&#45;&gt;../lib/tilbudKundePlassholder.ts</title>
<path fill="none" stroke="#757575" d="M341.83,-368.88C406.85,-371.92 523.42,-377.36 610.13,-381.42"/>
<polygon fill="#757575" stroke="#757575" points="609.95,-384.91 620.11,-381.88 610.28,-377.92 609.95,-384.91"/>
</g>
<!-- ../lib/tilbudPris.ts -->
<g id="node5" class="node">
<title>../lib/tilbudPris.ts</title>
<path fill="none" stroke="#cfffac" d="M554.96,-338.46C554.96,-338.46 456.54,-338.46 456.54,-338.46 452.58,-338.46 448.62,-334.5 448.62,-330.54 448.62,-330.54 448.62,-322.62 448.62,-322.62 448.62,-318.67 452.58,-314.71 456.54,-314.71 456.54,-314.71 554.96,-314.71 554.96,-314.71 558.92,-314.71 562.88,-318.67 562.88,-322.62 562.88,-322.62 562.88,-330.54 562.88,-330.54 562.88,-334.5 558.92,-338.46 554.96,-338.46"/>
<text xml:space="preserve" text-anchor="middle" x="505.75" y="-321.16" font-family="Arial" font-size="14.00" fill="#cfffac">../lib/tilbudPris.ts</text>
</g>
<!-- ../lib/openai.ts&#45;&gt;../lib/tilbudPris.ts -->
<g id="edge4" class="edge">
<title>../lib/openai.ts&#45;&gt;../lib/tilbudPris.ts</title>
<path fill="none" stroke="#757575" d="M341.65,-357.36C369.97,-352.01 406.03,-345.21 437.05,-339.36"/>
<polygon fill="#757575" stroke="#757575" points="437.55,-342.82 446.73,-337.53 436.26,-335.94 437.55,-342.82"/>
</g>
<!-- ../types/index.ts -->
<g id="node8" class="node">
<title>../types/index.ts</title>
<path fill="none" stroke="#cfffac" d="M768.58,-156.46C768.58,-156.46 674.67,-156.46 674.67,-156.46 670.71,-156.46 666.75,-152.5 666.75,-148.54 666.75,-148.54 666.75,-140.62 666.75,-140.62 666.75,-136.67 670.71,-132.71 674.67,-132.71 674.67,-132.71 768.58,-132.71 768.58,-132.71 772.54,-132.71 776.5,-136.67 776.5,-140.62 776.5,-140.62 776.5,-148.54 776.5,-148.54 776.5,-152.5 772.54,-156.46 768.58,-156.46"/>
<text xml:space="preserve" text-anchor="middle" x="721.62" y="-139.16" font-family="Arial" font-size="14.00" fill="#cfffac">../types/index.ts</text>
</g>
<!-- ../lib/supabase.ts&#45;&gt;../types/index.ts -->
<g id="edge5" class="edge">
<title>../lib/supabase.ts&#45;&gt;../types/index.ts</title>
<path fill="none" stroke="#757575" d="M532.98,-232.32C570.82,-214.63 640.9,-181.86 683.88,-161.76"/>
<polygon fill="#757575" stroke="#757575" points="685.24,-164.99 692.81,-157.59 682.27,-158.65 685.24,-164.99"/>
</g>
<!-- ../lib/tilbudFinalisering.ts&#45;&gt;../lib/tilbudKundePlassholder.ts -->
<g id="edge6" class="edge">
<title>../lib/tilbudFinalisering.ts&#45;&gt;../lib/tilbudKundePlassholder.ts</title>
<path fill="none" stroke="#757575" d="M586.09,-399.16C593.92,-398.43 601.97,-397.68 610.05,-396.92"/>
<polygon fill="#757575" stroke="#757575" points="610.33,-400.41 619.96,-396 609.68,-393.44 610.33,-400.41"/>
</g>
<!-- ../lib/paminnelseInnstillinger.ts -->
<g id="node6" class="node">
<title>../lib/paminnelseInnstillinger.ts</title>
<path fill="none" stroke="#cfffac" d="M381.83,-260.46C381.83,-260.46 201.67,-260.46 201.67,-260.46 197.71,-260.46 193.75,-256.5 193.75,-252.54 193.75,-252.54 193.75,-244.62 193.75,-244.62 193.75,-240.67 197.71,-236.71 201.67,-236.71 201.67,-236.71 381.83,-236.71 381.83,-236.71 385.79,-236.71 389.75,-240.67 389.75,-244.62 389.75,-244.62 389.75,-252.54 389.75,-252.54 389.75,-256.5 385.79,-260.46 381.83,-260.46"/>
<text xml:space="preserve" text-anchor="middle" x="291.75" y="-243.16" font-family="Arial" font-size="14.00" fill="#cfffac">../lib/paminnelseInnstillinger.ts</text>
</g>
<!-- ../lib/resend.ts -->
<g id="node7" class="node">
<title>../lib/resend.ts</title>
<path fill="none" stroke="#cfffac" d="M333.83,-218.46C333.83,-218.46 249.67,-218.46 249.67,-218.46 245.71,-218.46 241.75,-214.5 241.75,-210.54 241.75,-210.54 241.75,-202.62 241.75,-202.62 241.75,-198.67 245.71,-194.71 249.67,-194.71 249.67,-194.71 333.83,-194.71 333.83,-194.71 337.79,-194.71 341.75,-198.67 341.75,-202.62 341.75,-202.62 341.75,-210.54 341.75,-210.54 341.75,-214.5 337.79,-218.46 333.83,-218.46"/>
<text xml:space="preserve" text-anchor="middle" x="291.75" y="-201.16" font-family="Arial" font-size="14.00" fill="#cfffac">../lib/resend.ts</text>
</g>
<!-- ../lib/tekstUtils.ts -->
<g id="node9" class="node">
<title>../lib/tekstUtils.ts</title>
<path fill="none" stroke="#cfffac" d="M554.58,-78.46C554.58,-78.46 456.92,-78.46 456.92,-78.46 452.96,-78.46 449,-74.5 449,-70.54 449,-70.54 449,-62.62 449,-62.62 449,-58.67 452.96,-54.71 456.92,-54.71 456.92,-54.71 554.58,-54.71 554.58,-54.71 558.54,-54.71 562.5,-58.67 562.5,-62.62 562.5,-62.62 562.5,-70.54 562.5,-70.54 562.5,-74.5 558.54,-78.46 554.58,-78.46"/>
<text xml:space="preserve" text-anchor="middle" x="505.75" y="-61.16" font-family="Arial" font-size="14.00" fill="#cfffac">../lib/tekstUtils.ts</text>
</g>
<!-- ../lib/tilbudHendelserCache.ts -->
<g id="node10" class="node">
<title>../lib/tilbudHendelserCache.ts</title>
<path fill="none" stroke="#c6c5fe" d="M379.58,-176.46C379.58,-176.46 203.92,-176.46 203.92,-176.46 199.96,-176.46 196,-172.5 196,-168.54 196,-168.54 196,-160.62 196,-160.62 196,-156.67 199.96,-152.71 203.92,-152.71 203.92,-152.71 379.58,-152.71 379.58,-152.71 383.54,-152.71 387.5,-156.67 387.5,-160.62 387.5,-160.62 387.5,-168.54 387.5,-168.54 387.5,-172.5 383.54,-176.46 379.58,-176.46"/>
<text xml:space="preserve" text-anchor="middle" x="291.75" y="-159.16" font-family="Arial" font-size="14.00" fill="#c6c5fe">../lib/tilbudHendelserCache.ts</text>
</g>
<!-- ../lib/tilbudHendelserCache.ts&#45;&gt;../lib/supabase.ts -->
<g id="edge7" class="edge">
<title>../lib/tilbudHendelserCache.ts&#45;&gt;../lib/supabase.ts</title>
<path fill="none" stroke="#757575" d="M360.7,-176.93C370.56,-179.4 380.5,-182.27 389.75,-185.58 419.98,-196.4 452.34,-213.56 475.01,-226.59"/>
<polygon fill="#757575" stroke="#757575" points="472.99,-229.46 483.4,-231.48 476.52,-223.42 472.99,-229.46"/>
</g>
<!-- ../lib/tilbudHendelserCache.ts&#45;&gt;../types/index.ts -->
<g id="edge8" class="edge">
<title>../lib/tilbudHendelserCache.ts&#45;&gt;../types/index.ts</title>
<path fill="none" stroke="#757575" d="M387.98,-160.13C469.15,-156.34 583.69,-150.98 654.99,-147.65"/>
<polygon fill="#757575" stroke="#757575" points="655.14,-151.15 664.96,-147.18 654.81,-144.16 655.14,-151.15"/>
</g>
<!-- ../utils/tilbudStatus.ts -->
<g id="node11" class="node">
<title>../utils/tilbudStatus.ts</title>
<path fill="none" stroke="#c6c5fe" d="M567.71,-27.46C567.71,-27.46 443.79,-27.46 443.79,-27.46 439.83,-27.46 435.88,-23.5 435.88,-19.54 435.88,-19.54 435.88,-11.62 435.88,-11.62 435.88,-7.67 439.83,-3.71 443.79,-3.71 443.79,-3.71 567.71,-3.71 567.71,-3.71 571.67,-3.71 575.62,-7.67 575.62,-11.62 575.62,-11.62 575.62,-19.54 575.62,-19.54 575.62,-23.5 571.67,-27.46 567.71,-27.46"/>
<text xml:space="preserve" text-anchor="middle" x="505.75" y="-10.16" font-family="Arial" font-size="14.00" fill="#c6c5fe">../utils/tilbudStatus.ts</text>
</g>
<!-- ../utils/tilbudStatus.ts&#45;&gt;../types/index.ts -->
<g id="edge9" class="edge">
<title>../utils/tilbudStatus.ts&#45;&gt;../types/index.ts</title>
<path fill="none" stroke="#757575" d="M545.45,-27.91C558.58,-32.71 573.12,-38.71 585.75,-45.58 628.02,-68.57 672.06,-103.26 697.88,-124.88"/>
<polygon fill="#757575" stroke="#757575" points="695.49,-127.44 705.38,-131.24 700.01,-122.1 695.49,-127.44"/>
</g>
<!-- TilbudDetaljerModal.tsx -->
<g id="node12" class="node">
<title>TilbudDetaljerModal.tsx</title>
<path fill="none" stroke="#c6c5fe" d="M149.83,-197.46C149.83,-197.46 7.92,-197.46 7.92,-197.46 3.96,-197.46 0,-193.5 0,-189.54 0,-189.54 0,-181.62 0,-181.62 0,-177.67 3.96,-173.71 7.92,-173.71 7.92,-173.71 149.83,-173.71 149.83,-173.71 153.79,-173.71 157.75,-177.67 157.75,-181.62 157.75,-181.62 157.75,-189.54 157.75,-189.54 157.75,-193.5 153.79,-197.46 149.83,-197.46"/>
<text xml:space="preserve" text-anchor="middle" x="78.88" y="-180.16" font-family="Arial" font-size="14.00" fill="#c6c5fe">TilbudDetaljerModal.tsx</text>
</g>
<!-- TilbudDetaljerModal.tsx&#45;&gt;../lib/openai.ts -->
<g id="edge10" class="edge">
<title>TilbudDetaljerModal.tsx&#45;&gt;../lib/openai.ts</title>
<path fill="none" stroke="#757575" d="M85.3,-197.84C98.97,-227.28 137.79,-302.34 193.75,-340.58 204.77,-348.11 217.88,-353.47 230.83,-357.27"/>
<polygon fill="#757575" stroke="#757575" points="229.61,-360.57 240.17,-359.73 231.39,-353.8 229.61,-360.57"/>
</g>
<!-- TilbudDetaljerModal.tsx&#45;&gt;../lib/supabase.ts -->
<g id="edge13" class="edge">
<title>TilbudDetaljerModal.tsx&#45;&gt;../lib/supabase.ts</title>
<path fill="none" stroke="#757575" d="M91.03,-197.79C109.9,-217.43 150.34,-255.31 193.75,-269.58 282.82,-298.88 393.64,-277.13 456.06,-259.96"/>
<polygon fill="#757575" stroke="#757575" points="456.64,-263.44 465.31,-257.35 454.73,-256.7 456.64,-263.44"/>
</g>
<!-- TilbudDetaljerModal.tsx&#45;&gt;../lib/tilbudPris.ts -->
<g id="edge16" class="edge">
<title>TilbudDetaljerModal.tsx&#45;&gt;../lib/tilbudPris.ts</title>
<path fill="none" stroke="#757575" d="M88.87,-197.95C106.23,-220.76 146.82,-269.06 193.75,-290.58 271.7,-326.34 371.7,-331.69 436.96,-330.54"/>
<polygon fill="#757575" stroke="#757575" points="436.9,-334.04 446.81,-330.3 436.73,-327.05 436.9,-334.04"/>
</g>
<!-- TilbudDetaljerModal.tsx&#45;&gt;../lib/paminnelseInnstillinger.ts -->
<g id="edge11" class="edge">
<title>TilbudDetaljerModal.tsx&#45;&gt;../lib/paminnelseInnstillinger.ts</title>
<path fill="none" stroke="#757575" d="M109.46,-197.8C132.23,-206.87 164.62,-219.1 193.75,-227.58 201.12,-229.73 208.85,-231.76 216.61,-233.66"/>
<polygon fill="#757575" stroke="#757575" points="215.54,-237 226.08,-235.9 217.15,-230.19 215.54,-237"/>
</g>
<!-- TilbudDetaljerModal.tsx&#45;&gt;../lib/resend.ts -->
<g id="edge12" class="edge">
<title>TilbudDetaljerModal.tsx&#45;&gt;../lib/resend.ts</title>
<path fill="none" stroke="#757575" d="M158.1,-193.37C181.85,-195.74 207.59,-198.3 230.01,-200.53"/>
<polygon fill="#757575" stroke="#757575" points="229.6,-204.01 239.9,-201.52 230.3,-197.05 229.6,-204.01"/>
</g>
<!-- TilbudDetaljerModal.tsx&#45;&gt;../types/index.ts -->
<g id="edge17" class="edge">
<title>TilbudDetaljerModal.tsx&#45;&gt;../types/index.ts</title>
<path fill="none" stroke="#757575" d="M104.93,-173.41C127.54,-163.14 162.01,-149.25 193.75,-143.58 357.67,-114.32 554.89,-127.18 655.16,-137.05"/>
<polygon fill="#757575" stroke="#757575" points="654.79,-140.53 665.1,-138.06 655.5,-133.57 654.79,-140.53"/>
</g>
<!-- TilbudDetaljerModal.tsx&#45;&gt;../lib/tekstUtils.ts -->
<g id="edge14" class="edge">
<title>TilbudDetaljerModal.tsx&#45;&gt;../lib/tekstUtils.ts</title>
<path fill="none" stroke="#757575" d="M86.43,-173.55C101.39,-147.54 140.87,-86.56 193.75,-63.58 274.8,-28.36 379.34,-39.4 444.2,-51.95"/>
<polygon fill="#757575" stroke="#757575" points="443.46,-55.37 453.96,-53.92 444.85,-48.51 443.46,-55.37"/>
</g>
<!-- TilbudDetaljerModal.tsx&#45;&gt;../lib/tilbudHendelserCache.ts -->
<g id="edge15" class="edge">
<title>TilbudDetaljerModal.tsx&#45;&gt;../lib/tilbudHendelserCache.ts</title>
<path fill="none" stroke="#757575" d="M158.1,-177.79C166.67,-176.94 175.5,-176.06 184.34,-175.18"/>
<polygon fill="#757575" stroke="#757575" points="184.41,-178.69 194.01,-174.22 183.71,-171.72 184.41,-178.69"/>
</g>
<!-- TilbudDetaljerModal.tsx&#45;&gt;../utils/tilbudStatus.ts -->
<g id="edge18" class="edge">
<title>TilbudDetaljerModal.tsx&#45;&gt;../utils/tilbudStatus.ts</title>
<path fill="none" stroke="#757575" d="M84.79,-173.44C97.57,-143.65 134.99,-67.14 193.75,-35.58 264.72,2.53 358.33,3.08 424.25,-3.14"/>
<polygon fill="#757575" stroke="#757575" points="423.59,-6.59 433.89,-4.13 424.3,0.37 423.59,-6.59"/>
</g>
<!-- TilbudsForhåndsvisning.tsx -->
<g id="node13" class="node">
<title>TilbudsForhåndsvisning.tsx</title>
<path fill="none" stroke="#c6c5fe" d="M373.58,-96.46C373.58,-96.46 209.92,-96.46 209.92,-96.46 205.96,-96.46 202,-92.5 202,-88.54 202,-88.54 202,-80.62 202,-80.62 202,-76.67 205.96,-72.71 209.92,-72.71 209.92,-72.71 373.58,-72.71 373.58,-72.71 377.54,-72.71 381.5,-76.67 381.5,-80.62 381.5,-80.62 381.5,-88.54 381.5,-88.54 381.5,-92.5 377.54,-96.46 373.58,-96.46"/>
<text xml:space="preserve" text-anchor="middle" x="291.75" y="-79.16" font-family="Arial" font-size="14.00" fill="#c6c5fe">TilbudsForhåndsvisning.tsx</text>
</g>
<!-- TilbudDetaljerModal.tsx&#45;&gt;TilbudsForhåndsvisning.tsx -->
<g id="edge19" class="edge">
<title>TilbudDetaljerModal.tsx&#45;&gt;TilbudsForhåndsvisning.tsx</title>
<path fill="none" stroke="#757575" d="M94.8,-173.47C115.72,-157.03 155.53,-127.75 193.75,-110.58 202.59,-106.61 212.16,-103.14 221.74,-100.14"/>
<polygon fill="#757575" stroke="#757575" points="222.46,-103.57 231.05,-97.38 220.47,-96.86 222.46,-103.57"/>
</g>
<!-- TilbudsForhåndsvisning.tsx&#45;&gt;../lib/tekstUtils.ts -->
<g id="edge20" class="edge">
<title>TilbudsForhåndsvisning.tsx&#45;&gt;../lib/tekstUtils.ts</title>
<path fill="none" stroke="#757575" d="M381.74,-77.03C400.33,-75.45 419.63,-73.81 437.29,-72.31"/>
<polygon fill="#757575" stroke="#757575" points="437.45,-75.81 447.12,-71.48 436.86,-68.83 437.45,-75.81"/>
</g>
</g>
</svg>
