<?xml version="1.0" encoding="UTF-8" standalone="no"?>
<!DOCTYPE svg PUBLIC "-//W3C//DTD SVG 1.1//EN"
 "http://www.w3.org/Graphics/SVG/1.1/DTD/svg11.dtd">
<!-- Generated by graphviz version 14.1.4 (20260321.0153)
 -->
<!-- Title: G Pages: 1 -->
<svg width="985pt" height="559pt"
 viewBox="0.00 0.00 985.00 559.00" xmlns="http://www.w3.org/2000/svg" xmlns:xlink="http://www.w3.org/1999/xlink">
<g id="graph0" class="graph" transform="scale(1 1) rotate(0) translate(21.6 537.35)">
<title>G</title>
<polygon fill="#111111" stroke="none" points="-21.6,21.6 -21.6,-537.35 963.1,-537.35 963.1,21.6 -21.6,21.6"/>
<!-- components/KundeKontaktKalender.tsx -->
<g id="node1" class="node">
<title>components/KundeKontaktKalender.tsx</title>
<path fill="none" stroke="#cfffac" d="M496.58,-515.75C496.58,-515.75 259.42,-515.75 259.42,-515.75 255.46,-515.75 251.5,-511.79 251.5,-507.83 251.5,-507.83 251.5,-499.92 251.5,-499.92 251.5,-495.96 255.46,-492 259.42,-492 259.42,-492 496.58,-492 496.58,-492 500.54,-492 504.5,-495.96 504.5,-499.92 504.5,-499.92 504.5,-507.83 504.5,-507.83 504.5,-511.79 500.54,-515.75 496.58,-515.75"/>
<text xml:space="preserve" text-anchor="middle" x="378" y="-498.45" font-family="Arial" font-size="14.00" fill="#cfffac">components/KundeKontaktKalender.tsx</text>
</g>
<!-- components/NyttTilbudModal.tsx -->
<g id="node2" class="node">
<title>components/NyttTilbudModal.tsx</title>
<path fill="none" stroke="#c6c5fe" d="M205.33,-270.75C205.33,-270.75 7.92,-270.75 7.92,-270.75 3.96,-270.75 0,-266.79 0,-262.83 0,-262.83 0,-254.92 0,-254.92 0,-250.96 3.96,-247 7.92,-247 7.92,-247 205.33,-247 205.33,-247 209.29,-247 213.25,-250.96 213.25,-254.92 213.25,-254.92 213.25,-262.83 213.25,-262.83 213.25,-266.79 209.29,-270.75 205.33,-270.75"/>
<text xml:space="preserve" text-anchor="middle" x="106.62" y="-253.45" font-family="Arial" font-size="14.00" fill="#c6c5fe">components/NyttTilbudModal.tsx</text>
</g>
<!-- components/NyttTilbudModal.tsx&#45;&gt;components/KundeKontaktKalender.tsx -->
<g id="edge1" class="edge">
<title>components/NyttTilbudModal.tsx&#45;&gt;components/KundeKontaktKalender.tsx</title>
<path fill="none" stroke="#757575" d="M111.35,-271.13C123.76,-309.63 167.54,-428.76 249.25,-482.88 251.15,-484.13 253.09,-485.32 255.08,-486.45"/>
<polygon fill="#757575" stroke="#757575" points="253.49,-489.57 264,-490.9 256.62,-483.3 253.49,-489.57"/>
</g>
<!-- components/SkeletonLoader.tsx -->
<g id="node3" class="node">
<title>components/SkeletonLoader.tsx</title>
<path fill="none" stroke="#cfffac" d="M474.46,-473.75C474.46,-473.75 281.54,-473.75 281.54,-473.75 277.58,-473.75 273.62,-469.79 273.62,-465.83 273.62,-465.83 273.62,-457.92 273.62,-457.92 273.62,-453.96 277.58,-450 281.54,-450 281.54,-450 474.46,-450 474.46,-450 478.42,-450 482.38,-453.96 482.38,-457.92 482.38,-457.92 482.38,-465.83 482.38,-465.83 482.38,-469.79 478.42,-473.75 474.46,-473.75"/>
<text xml:space="preserve" text-anchor="middle" x="378" y="-456.45" font-family="Arial" font-size="14.00" fill="#cfffac">components/SkeletonLoader.tsx</text>
</g>
<!-- components/NyttTilbudModal.tsx&#45;&gt;components/SkeletonLoader.tsx -->
<g id="edge2" class="edge">
<title>components/NyttTilbudModal.tsx&#45;&gt;components/SkeletonLoader.tsx</title>
<path fill="none" stroke="#757575" d="M113.14,-271.18C128.91,-304.77 177.66,-398.33 249.25,-440.88 253.55,-443.43 258.07,-445.7 262.74,-447.72"/>
<polygon fill="#757575" stroke="#757575" points="261.16,-450.86 271.75,-451.19 263.67,-444.33 261.16,-450.86"/>
</g>
<!-- components/TilbudsForhåndsvisning.tsx -->
<g id="node4" class="node">
<title>components/TilbudsForhåndsvisning.tsx</title>
<path fill="none" stroke="#c6c5fe" d="M498.83,-431.75C498.83,-431.75 257.17,-431.75 257.17,-431.75 253.21,-431.75 249.25,-427.79 249.25,-423.83 249.25,-423.83 249.25,-415.92 249.25,-415.92 249.25,-411.96 253.21,-408 257.17,-408 257.17,-408 498.83,-408 498.83,-408 502.79,-408 506.75,-411.96 506.75,-415.92 506.75,-415.92 506.75,-423.83 506.75,-423.83 506.75,-427.79 502.79,-431.75 498.83,-431.75"/>
<text xml:space="preserve" text-anchor="middle" x="378" y="-414.45" font-family="Arial" font-size="14.00" fill="#c6c5fe">components/TilbudsForhåndsvisning.tsx</text>
</g>
<!-- components/NyttTilbudModal.tsx&#45;&gt;components/TilbudsForhåndsvisning.tsx -->
<g id="edge3" class="edge">
<title>components/NyttTilbudModal.tsx&#45;&gt;components/TilbudsForhåndsvisning.tsx</title>
<path fill="none" stroke="#757575" d="M116.35,-270.92C136.46,-297.72 189.03,-362.44 249.25,-393.88 256.94,-397.89 265.19,-401.28 273.66,-404.15"/>
<polygon fill="#757575" stroke="#757575" points="272.44,-407.44 283.03,-407.07 274.52,-400.76 272.44,-407.44"/>
</g>
<!-- constants/tjenestePlaceholders.ts -->
<g id="node5" class="node">
<title>constants/tjenestePlaceholders.ts</title>
<path fill="none" stroke="#c6c5fe" d="M478.58,-351.75C478.58,-351.75 277.42,-351.75 277.42,-351.75 273.46,-351.75 269.5,-347.79 269.5,-343.83 269.5,-343.83 269.5,-335.92 269.5,-335.92 269.5,-331.96 273.46,-328 277.42,-328 277.42,-328 478.58,-328 478.58,-328 482.54,-328 486.5,-331.96 486.5,-335.92 486.5,-335.92 486.5,-343.83 486.5,-343.83 486.5,-347.79 482.54,-351.75 478.58,-351.75"/>
<text xml:space="preserve" text-anchor="middle" x="378" y="-334.45" font-family="Arial" font-size="14.00" fill="#c6c5fe">constants/tjenestePlaceholders.ts</text>
</g>
<!-- components/NyttTilbudModal.tsx&#45;&gt;constants/tjenestePlaceholders.ts -->
<g id="edge4" class="edge">
<title>components/NyttTilbudModal.tsx&#45;&gt;constants/tjenestePlaceholders.ts</title>
<path fill="none" stroke="#757575" d="M135.09,-271.15C163.28,-283.36 208.63,-301.95 249.25,-313.88 263.75,-318.13 279.39,-321.94 294.57,-325.24"/>
<polygon fill="#757575" stroke="#757575" points="293.54,-328.6 304.04,-327.24 294.98,-321.75 293.54,-328.6"/>
</g>
<!-- lib/firmaCache.ts -->
<g id="node6" class="node">
<title>lib/firmaCache.ts</title>
<path fill="none" stroke="#c6c5fe" d="M680.58,-267.75C680.58,-267.75 579.17,-267.75 579.17,-267.75 575.21,-267.75 571.25,-263.79 571.25,-259.83 571.25,-259.83 571.25,-251.92 571.25,-251.92 571.25,-247.96 575.21,-244 579.17,-244 579.17,-244 680.58,-244 680.58,-244 684.54,-244 688.5,-247.96 688.5,-251.92 688.5,-251.92 688.5,-259.83 688.5,-259.83 688.5,-263.79 684.54,-267.75 680.58,-267.75"/>
<text xml:space="preserve" text-anchor="middle" x="629.88" y="-250.45" font-family="Arial" font-size="14.00" fill="#c6c5fe">lib/firmaCache.ts</text>
</g>
<!-- components/NyttTilbudModal.tsx&#45;&gt;lib/firmaCache.ts -->
<g id="edge5" class="edge">
<title>components/NyttTilbudModal.tsx&#45;&gt;lib/firmaCache.ts</title>
<path fill="none" stroke="#757575" d="M213.74,-258.26C317.11,-257.67 471.24,-256.78 559.71,-256.27"/>
<polygon fill="#757575" stroke="#757575" points="559.47,-259.77 569.45,-256.22 559.43,-252.77 559.47,-259.77"/>
</g>
<!-- lib/openai.ts -->
<g id="node7" class="node">
<title>lib/openai.ts</title>
<path fill="none" stroke="#c6c5fe" d="M414.08,-154.75C414.08,-154.75 341.92,-154.75 341.92,-154.75 337.96,-154.75 334,-150.79 334,-146.83 334,-146.83 334,-138.92 334,-138.92 334,-134.96 337.96,-131 341.92,-131 341.92,-131 414.08,-131 414.08,-131 418.04,-131 422,-134.96 422,-138.92 422,-138.92 422,-146.83 422,-146.83 422,-150.79 418.04,-154.75 414.08,-154.75"/>
<text xml:space="preserve" text-anchor="middle" x="378" y="-137.45" font-family="Arial" font-size="14.00" fill="#c6c5fe">lib/openai.ts</text>
</g>
<!-- components/NyttTilbudModal.tsx&#45;&gt;lib/openai.ts -->
<g id="edge6" class="edge">
<title>components/NyttTilbudModal.tsx&#45;&gt;lib/openai.ts</title>
<path fill="none" stroke="#757575" d="M122.73,-246.6C147.56,-227.06 199.27,-189.04 249.25,-168.88 272.32,-159.57 299.14,-153.46 322.22,-149.52"/>
<polygon fill="#757575" stroke="#757575" points="322.76,-152.98 332.08,-147.94 321.65,-146.07 322.76,-152.98"/>
</g>
<!-- lib/resend.ts -->
<g id="node8" class="node">
<title>lib/resend.ts</title>
<path fill="none" stroke="#cfffac" d="M414.46,-23.75C414.46,-23.75 341.54,-23.75 341.54,-23.75 337.58,-23.75 333.62,-19.79 333.62,-15.83 333.62,-15.83 333.62,-7.92 333.62,-7.92 333.62,-3.96 337.58,0 341.54,0 341.54,0 414.46,0 414.46,0 418.42,0 422.38,-3.96 422.38,-7.92 422.38,-7.92 422.38,-15.83 422.38,-15.83 422.38,-19.79 418.42,-23.75 414.46,-23.75"/>
<text xml:space="preserve" text-anchor="middle" x="378" y="-6.45" font-family="Arial" font-size="14.00" fill="#cfffac">lib/resend.ts</text>
</g>
<!-- components/NyttTilbudModal.tsx&#45;&gt;lib/resend.ts -->
<g id="edge7" class="edge">
<title>components/NyttTilbudModal.tsx&#45;&gt;lib/resend.ts</title>
<path fill="none" stroke="#757575" d="M111.58,-246.64C124.52,-208.76 169.37,-92.62 249.25,-37.88 270.44,-23.35 297.96,-16.59 322.03,-13.57"/>
<polygon fill="#757575" stroke="#757575" points="322.08,-17.09 331.66,-12.56 321.35,-10.13 322.08,-17.09"/>
</g>
<!-- lib/supabase.ts -->
<g id="node9" class="node">
<title>lib/supabase.ts</title>
<path fill="none" stroke="#c6c5fe" d="M674.96,-225.75C674.96,-225.75 584.79,-225.75 584.79,-225.75 580.83,-225.75 576.88,-221.79 576.88,-217.83 576.88,-217.83 576.88,-209.92 576.88,-209.92 576.88,-205.96 580.83,-202 584.79,-202 584.79,-202 674.96,-202 674.96,-202 678.92,-202 682.88,-205.96 682.88,-209.92 682.88,-209.92 682.88,-217.83 682.88,-217.83 682.88,-221.79 678.92,-225.75 674.96,-225.75"/>
<text xml:space="preserve" text-anchor="middle" x="629.88" y="-208.45" font-family="Arial" font-size="14.00" fill="#c6c5fe">lib/supabase.ts</text>
</g>
<!-- components/NyttTilbudModal.tsx&#45;&gt;lib/supabase.ts -->
<g id="edge8" class="edge">
<title>components/NyttTilbudModal.tsx&#45;&gt;lib/supabase.ts</title>
<path fill="none" stroke="#757575" d="M213.74,-249.71C319.28,-240.6 477.74,-226.92 565.21,-219.37"/>
<polygon fill="#757575" stroke="#757575" points="565.38,-222.87 575.04,-218.52 564.78,-215.9 565.38,-222.87"/>
</g>
<!-- lib/tekstUtils.ts -->
<g id="node10" class="node">
<title>lib/tekstUtils.ts</title>
<path fill="none" stroke="#cfffac" d="M673.08,-431.75C673.08,-431.75 586.67,-431.75 586.67,-431.75 582.71,-431.75 578.75,-427.79 578.75,-423.83 578.75,-423.83 578.75,-415.92 578.75,-415.92 578.75,-411.96 582.71,-408 586.67,-408 586.67,-408 673.08,-408 673.08,-408 677.04,-408 681,-411.96 681,-415.92 681,-415.92 681,-423.83 681,-423.83 681,-427.79 677.04,-431.75 673.08,-431.75"/>
<text xml:space="preserve" text-anchor="middle" x="629.88" y="-414.45" font-family="Arial" font-size="14.00" fill="#cfffac">lib/tekstUtils.ts</text>
</g>
<!-- components/NyttTilbudModal.tsx&#45;&gt;lib/tekstUtils.ts -->
<g id="edge9" class="edge">
<title>components/NyttTilbudModal.tsx&#45;&gt;lib/tekstUtils.ts</title>
<path fill="none" stroke="#757575" d="M120.01,-271.06C143.18,-293.05 195.62,-339.12 249.25,-360.88 356.45,-404.36 392.51,-380.63 506.75,-398.88 526.46,-402.02 547.93,-405.65 567.29,-408.99"/>
<polygon fill="#757575" stroke="#757575" points="566.47,-412.4 576.92,-410.66 567.67,-405.5 566.47,-412.4"/>
</g>
<!-- lib/tilbudFinalisering.ts -->
<g id="node11" class="node">
<title>lib/tilbudFinalisering.ts</title>
<path fill="none" stroke="#c6c5fe" d="M696.33,-183.75C696.33,-183.75 563.42,-183.75 563.42,-183.75 559.46,-183.75 555.5,-179.79 555.5,-175.83 555.5,-175.83 555.5,-167.92 555.5,-167.92 555.5,-163.96 559.46,-160 563.42,-160 563.42,-160 696.33,-160 696.33,-160 700.29,-160 704.25,-163.96 704.25,-167.92 704.25,-167.92 704.25,-175.83 704.25,-175.83 704.25,-179.79 700.29,-183.75 696.33,-183.75"/>
<text xml:space="preserve" text-anchor="middle" x="629.88" y="-166.45" font-family="Arial" font-size="14.00" fill="#c6c5fe">lib/tilbudFinalisering.ts</text>
</g>
<!-- components/NyttTilbudModal.tsx&#45;&gt;lib/tilbudFinalisering.ts -->
<g id="edge10" class="edge">
<title>components/NyttTilbudModal.tsx&#45;&gt;lib/tilbudFinalisering.ts</title>
<path fill="none" stroke="#757575" d="M147.88,-246.53C176.05,-238.28 214.66,-227.72 249.25,-220.88 349.75,-201 466.88,-187.29 544.17,-179.53"/>
<polygon fill="#757575" stroke="#757575" points="544.16,-183.05 553.77,-178.58 543.47,-176.08 544.16,-183.05"/>
</g>
<!-- lib/tilbudKundePlassholder.ts -->
<g id="node12" class="node">
<title>lib/tilbudKundePlassholder.ts</title>
<path fill="none" stroke="#cfffac" d="M933.58,-143.75C933.58,-143.75 760.92,-143.75 760.92,-143.75 756.96,-143.75 753,-139.79 753,-135.83 753,-135.83 753,-127.92 753,-127.92 753,-123.96 756.96,-120 760.92,-120 760.92,-120 933.58,-120 933.58,-120 937.54,-120 941.5,-123.96 941.5,-127.92 941.5,-127.92 941.5,-135.83 941.5,-135.83 941.5,-139.79 937.54,-143.75 933.58,-143.75"/>
<text xml:space="preserve" text-anchor="middle" x="847.25" y="-126.45" font-family="Arial" font-size="14.00" fill="#cfffac">lib/tilbudKundePlassholder.ts</text>
</g>
<!-- components/NyttTilbudModal.tsx&#45;&gt;lib/tilbudKundePlassholder.ts -->
<g id="edge11" class="edge">
<title>components/NyttTilbudModal.tsx&#45;&gt;lib/tilbudKundePlassholder.ts</title>
<path fill="none" stroke="#757575" d="M112.63,-246.52C127.39,-211.96 174.46,-114.4 249.25,-76.88 342.17,-30.26 615.56,-48.14 717,-70.88 753.81,-79.13 792.49,-99.09 817.83,-113.95"/>
<polygon fill="#757575" stroke="#757575" points="815.84,-116.83 826.21,-118.98 819.44,-110.83 815.84,-116.83"/>
</g>
<!-- lib/tilbudPris.ts -->
<g id="node13" class="node">
<title>lib/tilbudPris.ts</title>
<path fill="none" stroke="#cfffac" d="M673.46,-103.75C673.46,-103.75 586.29,-103.75 586.29,-103.75 582.33,-103.75 578.38,-99.79 578.38,-95.83 578.38,-95.83 578.38,-87.92 578.38,-87.92 578.38,-83.96 582.33,-80 586.29,-80 586.29,-80 673.46,-80 673.46,-80 677.42,-80 681.38,-83.96 681.38,-87.92 681.38,-87.92 681.38,-95.83 681.38,-95.83 681.38,-99.79 677.42,-103.75 673.46,-103.75"/>
<text xml:space="preserve" text-anchor="middle" x="629.88" y="-86.45" font-family="Arial" font-size="14.00" fill="#cfffac">lib/tilbudPris.ts</text>
</g>
<!-- components/NyttTilbudModal.tsx&#45;&gt;lib/tilbudPris.ts -->
<g id="edge12" class="edge">
<title>components/NyttTilbudModal.tsx&#45;&gt;lib/tilbudPris.ts</title>
<path fill="none" stroke="#757575" d="M115.75,-246.54C135.01,-218.48 186.57,-150.15 249.25,-121.88 353.07,-75.03 489.08,-77.65 566.94,-84.37"/>
<polygon fill="#757575" stroke="#757575" points="566.2,-87.82 576.48,-85.25 566.85,-80.85 566.2,-87.82"/>
</g>
<!-- types/index.ts -->
<g id="node14" class="node">
<title>types/index.ts</title>
<path fill="none" stroke="#cfffac" d="M888.58,-288.75C888.58,-288.75 805.92,-288.75 805.92,-288.75 801.96,-288.75 798,-284.79 798,-280.83 798,-280.83 798,-272.92 798,-272.92 798,-268.96 801.96,-265 805.92,-265 805.92,-265 888.58,-265 888.58,-265 892.54,-265 896.5,-268.96 896.5,-272.92 896.5,-272.92 896.5,-280.83 896.5,-280.83 896.5,-284.79 892.54,-288.75 888.58,-288.75"/>
<text xml:space="preserve" text-anchor="middle" x="847.25" y="-271.45" font-family="Arial" font-size="14.00" fill="#cfffac">types/index.ts</text>
</g>
<!-- components/NyttTilbudModal.tsx&#45;&gt;types/index.ts -->
<g id="edge13" class="edge">
<title>components/NyttTilbudModal.tsx&#45;&gt;types/index.ts</title>
<path fill="none" stroke="#757575" d="M175.91,-271.24C261.33,-286.04 412.28,-309.92 542.75,-318.88 620.01,-324.18 640.51,-330.99 717,-318.88 747.96,-313.97 781.59,-302.85 806.78,-293.28"/>
<polygon fill="#757575" stroke="#757575" points="807.92,-296.59 815.97,-289.71 805.38,-290.07 807.92,-296.59"/>
</g>
<!-- components/TilbudsForhåndsvisning.tsx&#45;&gt;lib/tekstUtils.ts -->
<g id="edge14" class="edge">
<title>components/TilbudsForhåndsvisning.tsx&#45;&gt;lib/tekstUtils.ts</title>
<path fill="none" stroke="#757575" d="M507.23,-419.88C528.07,-419.88 548.79,-419.88 567.06,-419.88"/>
<polygon fill="#757575" stroke="#757575" points="566.88,-423.38 576.88,-419.88 566.88,-416.38 566.88,-423.38"/>
</g>
<!-- constants/tjenester.ts -->
<g id="node15" class="node">
<title>constants/tjenester.ts</title>
<path fill="none" stroke="#cfffac" d="M693.33,-389.75C693.33,-389.75 566.42,-389.75 566.42,-389.75 562.46,-389.75 558.5,-385.79 558.5,-381.83 558.5,-381.83 558.5,-373.92 558.5,-373.92 558.5,-369.96 562.46,-366 566.42,-366 566.42,-366 693.33,-366 693.33,-366 697.29,-366 701.25,-369.96 701.25,-373.92 701.25,-373.92 701.25,-381.83 701.25,-381.83 701.25,-385.79 697.29,-389.75 693.33,-389.75"/>
<text xml:space="preserve" text-anchor="middle" x="629.88" y="-372.45" font-family="Arial" font-size="14.00" fill="#cfffac">constants/tjenester.ts</text>
</g>
<!-- constants/tjenestePlaceholders.ts&#45;&gt;constants/tjenester.ts -->
<g id="edge15" class="edge">
<title>constants/tjenestePlaceholders.ts&#45;&gt;constants/tjenester.ts</title>
<path fill="none" stroke="#757575" d="M460.13,-352.21C487.93,-356.44 519.05,-361.17 546.92,-365.41"/>
<polygon fill="#757575" stroke="#757575" points="546.33,-368.86 556.74,-366.91 547.38,-361.94 546.33,-368.86"/>
</g>
<!-- lib/firmaCache.ts&#45;&gt;types/index.ts -->
<g id="edge17" class="edge">
<title>lib/firmaCache.ts&#45;&gt;types/index.ts</title>
<path fill="none" stroke="#757575" d="M688.87,-261.53C719.04,-264.47 755.86,-268.06 786.3,-271.03"/>
<polygon fill="#757575" stroke="#757575" points="785.82,-274.5 796.12,-271.99 786.5,-267.53 785.82,-274.5"/>
</g>
<!-- lib/openai.ts&#45;&gt;lib/supabase.ts -->
<g id="edge18" class="edge">
<title>lib/openai.ts&#45;&gt;lib/supabase.ts</title>
<path fill="none" stroke="#757575" d="M417.2,-155.22C450.27,-165.74 499.47,-181 542.75,-192.88 550.03,-194.87 557.68,-196.87 565.29,-198.81"/>
<polygon fill="#757575" stroke="#757575" points="564.36,-202.18 574.91,-201.21 566.06,-195.39 564.36,-202.18"/>
</g>
<!-- lib/openai.ts&#45;&gt;lib/tilbudFinalisering.ts -->
<g id="edge19" class="edge">
<title>lib/openai.ts&#45;&gt;lib/tilbudFinalisering.ts</title>
<path fill="none" stroke="#757575" d="M422.24,-147.89C455.69,-151.78 503.06,-157.27 544,-162.02"/>
<polygon fill="#757575" stroke="#757575" points="543.52,-165.49 553.86,-163.17 544.33,-158.54 543.52,-165.49"/>
</g>
<!-- lib/openai.ts&#45;&gt;lib/tilbudKundePlassholder.ts -->
<g id="edge20" class="edge">
<title>lib/openai.ts&#45;&gt;lib/tilbudKundePlassholder.ts</title>
<path fill="none" stroke="#757575" d="M422.12,-141.86C494.13,-140.16 640.83,-136.71 741.34,-134.34"/>
<polygon fill="#757575" stroke="#757575" points="741.32,-137.85 751.23,-134.11 741.16,-130.85 741.32,-137.85"/>
</g>
<!-- lib/openai.ts&#45;&gt;lib/tilbudPris.ts -->
<g id="edge21" class="edge">
<title>lib/openai.ts&#45;&gt;lib/tilbudPris.ts</title>
<path fill="none" stroke="#757575" d="M422.24,-134.05C462.16,-125.9 521.89,-113.71 566.88,-104.53"/>
<polygon fill="#757575" stroke="#757575" points="567.4,-107.99 576.5,-102.56 566,-101.14 567.4,-107.99"/>
</g>
<!-- lib/supabase.ts&#45;&gt;types/index.ts -->
<g id="edge22" class="edge">
<title>lib/supabase.ts&#45;&gt;types/index.ts</title>
<path fill="none" stroke="#757575" d="M682.96,-225.91C694.23,-228.7 706.04,-231.76 717,-234.88 744.75,-242.76 775.48,-252.69 800.01,-260.92"/>
<polygon fill="#757575" stroke="#757575" points="798.78,-264.2 809.38,-264.08 801.02,-257.57 798.78,-264.2"/>
</g>
<!-- lib/tilbudFinalisering.ts&#45;&gt;lib/tilbudKundePlassholder.ts -->
<g id="edge23" class="edge">
<title>lib/tilbudFinalisering.ts&#45;&gt;lib/tilbudKundePlassholder.ts</title>
<path fill="none" stroke="#757575" d="M697.25,-159.55C719.77,-155.37 745.13,-150.66 768.45,-146.32"/>
<polygon fill="#757575" stroke="#757575" points="769.04,-149.77 778.23,-144.51 767.76,-142.89 769.04,-149.77"/>
</g>
<!-- hooks/useNyttTilbudFlyt.ts -->
<g id="node16" class="node">
<title>hooks/useNyttTilbudFlyt.ts</title>
<path fill="none" stroke="#c6c5fe" d="M709.08,-309.75C709.08,-309.75 550.67,-309.75 550.67,-309.75 546.71,-309.75 542.75,-305.79 542.75,-301.83 542.75,-301.83 542.75,-293.92 542.75,-293.92 542.75,-289.96 546.71,-286 550.67,-286 550.67,-286 709.08,-286 709.08,-286 713.04,-286 717,-289.96 717,-293.92 717,-293.92 717,-301.83 717,-301.83 717,-305.79 713.04,-309.75 709.08,-309.75"/>
<text xml:space="preserve" text-anchor="middle" x="629.88" y="-292.45" font-family="Arial" font-size="14.00" fill="#c6c5fe">hooks/useNyttTilbudFlyt.ts</text>
</g>
<!-- hooks/useNyttTilbudFlyt.ts&#45;&gt;types/index.ts -->
<g id="edge16" class="edge">
<title>hooks/useNyttTilbudFlyt.ts&#45;&gt;types/index.ts</title>
<path fill="none" stroke="#757575" d="M717.24,-289.45C740.45,-287.19 765.04,-284.79 786.45,-282.71"/>
<polygon fill="#757575" stroke="#757575" points="786.55,-286.21 796.16,-281.76 785.87,-279.25 786.55,-286.21"/>
</g>
</g>
</svg>
